<svg id="Layer_2" data-name="Layer 2" xmlns="http://www.w3.org/2000/svg" width="1920" height="1080" viewBox="0 0 1920 1080"><defs><style>.cls-1{fill:#333;opacity:0.5;}.cls-2{fill:#fff;}.cls-3{fill:#f7f7f7;}</style></defs><title>Score</title><rect class="cls-1" x="-1.2" y="-1.83" width="1919.9" height="1082.95"/><rect x="472.69" y="139.67" width="974.63" height="800.66"/><path class="cls-2" d="M692.65,664.62H658.38v-48h34.27v6.85H665.23v14H685.8v6.58H665.23v13.71h27.42Z"/><path class="cls-2" d="M733.78,664.62h-6.85V654.34H723.5v-3.43h-3.43v-3.43h-3.43v-3.42h-3.42v-3.43h-3.43V637.2h-3.43v27.42h-6.85v-48h6.85v10.28h3.43v3.43h3.43v3.42h3.42v3.43h3.43v3.43h3.43v3.43h3.43V616.64h6.85Z"/><path class="cls-2" d="M761.2,664.62h-6.85V623.49H740.64v-6.85h34.27v6.85H761.2Z"/><path class="cls-2" d="M816,664.62H781.77v-48H816v6.85H788.62v14h20.57v6.58H788.62v13.71H816Z"/><path class="cls-2" d="M853.75,657.77h3.42v6.85h-6.85v-3.43h-3.43v-3.42h-3.43v-3.43H840v-3.43h-3.43v-3.43h-3.43v-3.42h-3.43v20.56H822.9v-48h27.42v3.42h3.43v3.43h3.42V637.2h-3.42v3.43h-3.43v3.43h-6.86v3.42h3.43v3.43h3.43v3.43h3.43Zm-24-20.57h17.14v-3.43h3.43v-6.85h-3.43v-3.43H829.75Z"/><path class="cls-2" d="M925.72,640.63v24h-6.85v-24h-3.43V637.2H912v-3.43h-3.42v-3.42h-3.43V616.64H912v10.28h3.43v3.43h3.43v3.42h6.85v-3.42h3.43v-3.43h3.43V616.64h6.85v13.71H936v3.42h-3.43v3.43h-3.43v3.43Z"/><path class="cls-2" d="M953.14,661.19h-3.42v-3.42h-3.43V623.49h3.43v-3.43h3.42v-3.42h20.57v3.42h3.43v3.43h3.43v34.28h-3.43v3.42h-3.43v3.43H953.14Zm0-6.85h3.43v3.43h13.71v-3.43h3.43V626.92h-3.43v-3.43H956.57v3.43h-3.43Z"/><path class="cls-2" d="M1014.84,616.64h6.86v41.13h-3.43v3.42h-3.43v3.43H994.27v-3.43h-3.42v-3.42h-3.43V616.64h6.85v37.7h3.43v3.43h13.71v-3.43h3.43Z"/><path class="cls-2" d="M1059.4,657.77h3.43v6.85H1056v-3.43h-3.43v-3.42h-3.42v-3.43h-3.43v-3.43h-3.43v-3.43h-3.43v-3.42h-3.42v20.56h-6.86v-48H1056v3.42h3.43v3.43h3.43V637.2h-3.43v3.43H1056v3.43h-6.85v3.42h3.42v3.43H1056v3.43h3.43Zm-24-20.57h17.13v-3.43H1056v-6.85h-3.43v-3.43h-17.13Z"/><path class="cls-2" d="M1145.09,664.62h-6.86V654.34h-3.43v-3.43h-3.42v-3.43H1128v-3.42h-3.43v-3.43h-3.43V637.2h-3.42v27.42h-6.86v-48h6.86v10.28h3.42v3.43h3.43v3.42H1128v3.43h3.43v3.43h3.42v3.43h3.43V616.64h6.86Z"/><path class="cls-2" d="M1186.22,664.62h-6.86V650.91H1158.8v13.71h-6.86V630.35h3.43v-3.43h3.43v-3.43h3.43v-3.43h3.42v-3.42h6.86v3.42h3.43v3.43h3.42v3.43h3.43v3.43h3.43Zm-27.42-30.85v10.29h20.56V633.77h-3.42v-3.42h-3.43v-3.43h-6.86v3.43h-3.42v3.42Z"/><path class="cls-2" d="M1220.49,616.64h6.86v48h-6.86V630.35h-3.42v3.42h-3.43v3.43h-6.86v-3.43h-3.42v-3.42h-3.43v34.27h-6.86v-48h6.86v3.42h3.43v3.43h3.42v3.43h6.86v-3.43h3.43v-3.43h3.42Z"/><path class="cls-2" d="M1268.48,664.62H1234.2v-48h34.28v6.85h-27.42v14h20.56v6.58h-20.56v13.71h27.42Z"/><path class="cls-2" d="M781.77,267.55v24h-6.86v-24h-3.43v-3.43h-3.42v-3.43h-3.43v-3.43H761.2V243.55h6.86v10.29h3.42v3.42h3.43v3.43h6.86v-3.43h3.43v-3.42h3.42V243.55h6.86v13.71h-3.43v3.43h-3.43v3.43H785.2v3.43Z"/><path class="cls-2" d="M809.19,288.11h-3.43v-3.42h-3.43V250.41h3.43V247h3.43v-3.43h20.56V247h3.43v3.43h3.43v34.28h-3.43v3.42h-3.43v3.43H809.19Zm0-6.85h3.43v3.43h13.71v-3.43h3.42V253.84h-3.42v-3.43H812.62v3.43h-3.43Z"/><path class="cls-2" d="M870.88,243.55h6.86v41.14h-3.43v3.42h-3.43v3.43H850.32v-3.43h-3.43v-3.42h-3.43V243.55h6.86v37.71h3.43v3.43h13.71v-3.43h3.42Z"/><path class="cls-2" d="M915.44,284.69h3.43v6.85H912v-3.43h-3.42v-3.42h-3.43v-3.43h-3.43v-3.43H898.3V274.4h-3.42V271h-3.43v20.56h-6.86v-48H912V247h3.43v3.43h3.43v13.71h-3.43v3.43H912V271h-6.85v3.42h3.43v3.43H912v3.43h3.43Zm-24-20.57h17.14v-3.43H912v-6.85h-3.42v-3.43H891.45Z"/><path class="cls-2" d="M973.71,281.26h3.43v3.43h13.71v-3.43h3.43V274.4h-3.43V271H973.71v-3.43h-3.43v-3.43h-3.43V250.41h3.43V247h3.43v-3.43h20.57V247h3.42v3.43h3.43v6.85h-6.85v-3.42h-3.43v-3.43H977.14v3.43h-3.43v6.85h3.43v3.43h17.14v3.43h3.42V271h3.43v13.71H997.7v3.42h-3.42v3.43H973.71v-3.43h-3.43v-3.42h-3.43v-6.86h6.86Z"/><path class="cls-2" d="M1035.41,247h3.42v3.43h3.43v6.85h-6.85v-3.42H1032v-3.43h-13.71v3.43h-3.43v27.42h3.43v3.43H1032v-3.43h3.43v-3.43h6.85v6.86h-3.43v3.42h-3.42v3.43h-20.57v-3.43h-3.43v-3.42H1008V250.41h3.43V247h3.43v-3.43h20.57Z"/><path class="cls-2" d="M1056,288.11h-3.43v-3.42h-3.42V250.41h3.42V247H1056v-3.43h20.57V247H1080v3.43h3.43v34.28H1080v3.42h-3.42v3.43H1056Zm0-6.85h3.43v3.43h13.71v-3.43h3.43V253.84h-3.43v-3.43H1059.4v3.43H1056Z"/><path class="cls-2" d="M1121.09,284.69h3.43v6.85h-6.85v-3.43h-3.43v-3.42h-3.43v-3.43h-3.43v-3.43H1104V274.4h-3.43V271h-3.43v20.56h-6.85v-48h27.42V247h3.42v3.43h3.43v13.71h-3.43v3.43h-3.42V271h-6.86v3.42h3.43v3.43h3.43v3.43h3.42Zm-24-20.57h17.14v-3.43h3.43v-6.85h-3.43v-3.43H1097.1Z"/><path class="cls-2" d="M1165.65,291.54h-34.27v-48h34.27v6.86h-27.42v14h20.57V271h-20.57v13.71h27.42Z"/><rect class="cls-3" x="1092.97" y="479.46" width="100.81" height="13.39"/><rect class="cls-3" x="1177.76" y="485.61" width="24.7" height="13.39"/><rect class="cls-3" x="1189.16" y="492.67" width="17.92" height="13.39"/><rect class="cls-3" x="1199.03" y="499.37" width="14.39" height="13.39"/><rect class="cls-3" x="1225.99" y="519.46" width="14.39" height="13.39"/><rect class="cls-3" x="1235.58" y="526.32" width="11.58" height="10.78"/><rect class="cls-3" x="1244.09" y="532.75" width="9.05" height="8.42"/><rect class="cls-3" x="1251.87" y="537.37" width="10.86" height="10.11"/><rect class="cls-3" x="1260.38" y="545.7" width="8.69" height="16.2"/><rect class="cls-3" x="1209.88" y="507.24" width="14.39" height="13.39"/><rect class="cls-3" x="1219.3" y="513.21" width="14.39" height="13.39"/><rect class="cls-3" x="1103.19" y="474.48" width="84.79" height="5.79"/><rect class="cls-3" x="1144.82" y="406.79" width="33.93" height="70.43"/><rect class="cls-3" x="1094.69" y="406.88" width="158.99" height="7.87"/><rect class="cls-3" x="1178.75" y="410.38" width="62.86" height="7.87"/><rect class="cls-3" x="1193.72" y="414.12" width="28.6" height="7.87"/><rect class="cls-3" x="1159.33" y="368.52" width="12.19" height="39.36"/><rect class="cls-3" x="1149.32" y="369.72" width="12.19" height="27.99"/><rect class="cls-3" x="1170.07" y="371.17" width="7.6" height="26.3"/><rect class="cls-3" x="1253.23" y="405.64" width="18.58" height="5.88"/><rect class="cls-3" x="1057.04" y="403.65" width="18.58" height="5.88"/><rect class="cls-3" x="1075.55" y="404.92" width="32.26" height="5.81"/><rect class="cls-3" x="1083.96" y="408.22" width="32.26" height="5.81"/><rect class="cls-3" x="1112.83" y="414.01" width="32.26" height="5.81"/><rect class="cls-3" x="1089.71" y="486.88" width="16.11" height="23.53"/><rect class="cls-3" x="1089.71" y="495.57" width="9.77" height="46.06"/><rect class="cls-3" x="1082.38" y="541.63" width="16.38" height="8.42"/><rect class="cls-3" x="1065.19" y="548.41" width="33.57" height="4.16"/><rect class="cls-3" x="1075.14" y="545.06" width="9.14" height="3.53"/><rect class="cls-3" x="1097.67" y="510.04" width="8.69" height="11.58"/></svg>