<svg id="Layer_1" data-name="Layer 1" xmlns="http://www.w3.org/2000/svg" width="1500" height="600" viewBox="0 0 1500 600"><defs><style>.cls-1{opacity:0.15;}.cls-2,.cls-4{fill:#333;}.cls-3,.cls-7{fill:#00a3e0;}.cls-4,.cls-7{opacity:0.2;}.cls-5{opacity:0.1;}.cls-6{fill:none;}.cls-8{fill:#f7f7f7;}</style></defs><title>ShutterGlasses</title><g class="cls-1"><path class="cls-2" d="M1296.32,477.9l-.22.12-.33.17-.68.35h0l-.14.08.08,0,0,0,.46-.24c.16-.08.33-.16.5-.26l.27-.14,1.45-.78Zm-1.89,1h0a.91.91,0,0,1,.17-.09l.2-.11a.74.74,0,0,0,.13-.08c-.18.1-.36.18-.53.28Z"/><path class="cls-2" d="M1392.5,398.77v18.89H1374l0,0-.92,1h20V398.77Zm40.77-62.06v19.7h-20.2v0c-.16.4-.34.8-.49,1.21h21.06V336.71Zm31.41-184v18.47h-41.14v0c.06.23.12.47.16.69h41.18V152.67ZM1446.8,275.74v19.43h-16.73v0c-.07.32-.11.66-.15,1h17.15V275.74Zm9.85-60.92v19.1h-24.2v0c0,.26,0,.53,0,.78h24.32v-19.9Z"/><path class="cls-2" d="M1331.1,459.46v19.45h-36.68l-.13.07-.13.07-2,1.07h39.39V459.46Z"/><path class="cls-2" d="M1294.41,478.91h0Zm36.65-19.43v19.43h0V459.48Zm-38.86,20.65,0,0h39.39v0Zm100.24-81.34v18.87h0V398.79ZM1373,418.68l.92-1h0l-.48.51-.48.51h20v0Zm60.17-81.95v19.68h0V336.73Zm-20.63,20.91c.15-.41.33-.81.49-1.21h0c-.16.41-.34.81-.5,1.23h21.06v0Zm34.16-81.88v19.41h0V275.76Zm-16.81,20.4c0-.31.08-.65.15-1h0c-.06.33-.1.67-.15,1H1447v0Zm26.67-81.32v19.08h0V214.84Zm-24.09,19.88c0-.25,0-.52,0-.78h0c0,.14,0,.27,0,.4s0,.27,0,.4h24.32v0Zm32.13-82v18.45h0V152.69Zm-40.93,19.16c0-.22-.1-.46-.16-.69h0c.07.24.13.48.18.71h41.17v0Z"/><path class="cls-2" d="M1292.19,477.13l2-1.07c.07-.05.18-.09.26-.14h0L1292.3,477c-1.32.67-2.62,1.31-3.9,1.93h6c.17-.1.35-.18.53-.28a.74.74,0,0,1-.13.08l-.2.11a.65.65,0,0,0-.16.09h36.61v-1.78Zm3.33,1.2-.46.24,0,0h0l.68-.35-.15.09Zm.5-.26.08-.05.22-.12h0l0,0Zm-3.83-.94,2-1.07c.07-.05.18-.09.26-.14h0L1292.3,477c-1.32.67-2.62,1.31-3.9,1.93h6c.17-.1.35-.18.53-.28a.74.74,0,0,1-.13.08l-.2.11a.65.65,0,0,0-.16.09h36.61v-1.78Zm3.33,1.2-.46.24,0,0h0l.68-.35-.15.09Zm.5-.26.08-.05.22-.12h0l0,0Zm-3.83-.94,2-1.07c.07-.05.18-.09.26-.14h0L1292.3,477c-1.32.67-2.62,1.31-3.9,1.93h6c.17-.1.35-.18.53-.28a.74.74,0,0,1-.13.08l-.2.11a.65.65,0,0,0-.16.09h36.61v-1.78Zm3.33,1.2-.46.24,0,0h0l.68-.35-.15.09Zm.5-.26.08-.05.22-.12h0l0,0Zm-3.83-.94,2-1.07c.07-.05.18-.09.26-.14h0L1292.3,477c-1.32.67-2.62,1.31-3.9,1.93h6c.17-.1.35-.18.53-.28a.74.74,0,0,1-.13.08l-.2.11a.65.65,0,0,0-.16.09h36.61v-1.78Zm3.33,1.2-.46.24,0,0h0l.68-.35-.15.09Zm.5-.26.08-.05.22-.12h0l0,0Zm-3.83-.94,2-1.07c.07-.05.18-.09.26-.14h0L1292.3,477c-1.32.67-2.62,1.31-3.9,1.93h6c.17-.1.35-.18.53-.28a.74.74,0,0,1-.13.08l-.2.11a.65.65,0,0,0-.16.09h36.61v-1.78Zm3.33,1.2-.46.24,0,0h0l.68-.35-.15.09Zm.5-.26.08-.05.22-.12h0l0,0Zm-3.83-.94,2-1.07c.07-.05.18-.09.26-.14h0L1292.3,477c-1.32.67-2.62,1.31-3.9,1.93h6c.17-.1.35-.18.53-.28a.74.74,0,0,1-.13.08l-.2.11a.65.65,0,0,0-.16.09h36.61v-1.78Zm3.33,1.2-.46.24,0,0h0l.68-.35-.15.09Zm.5-.26.08-.05.22-.12h0l0,0Zm-3.83-.94,2-1.07c.07-.05.18-.09.26-.14h0L1292.3,477c-1.32.67-2.62,1.31-3.9,1.93h6c.17-.1.35-.18.53-.28a.74.74,0,0,1-.13.08l-.2.11a.65.65,0,0,0-.16.09h36.61v-1.78Zm3.33,1.2-.46.24,0,0h0l.68-.35-.15.09Zm.5-.26.08-.05.22-.12h0l0,0Zm-3.83-.94,2-1.07c.07-.05.18-.09.26-.14h0L1292.3,477c-1.32.67-2.62,1.31-3.9,1.93h6c.17-.1.35-.18.53-.28a.74.74,0,0,1-.13.08l-.2.11a.65.65,0,0,0-.16.09h36.61v-1.78Zm3.33,1.2-.46.24,0,0h0l.68-.35-.15.09Zm.5-.26.08-.05.22-.12h0l0,0Zm-3.83-.94,2-1.07c.07-.05.18-.09.26-.14h0L1292.3,477c-1.32.67-2.62,1.31-3.9,1.93h6c.17-.1.35-.18.53-.28a.74.74,0,0,1-.13.08l-.2.11a.65.65,0,0,0-.16.09h36.61v-1.78Zm3.33,1.2-.46.24,0,0h0l.68-.35-.15.09Zm.5-.26.08-.05.22-.12h0l0,0Zm-3.83-.94,2-1.07c.07-.05.18-.09.26-.14h0L1292.3,477c-1.32.67-2.62,1.31-3.9,1.93h6c.17-.1.35-.18.53-.28a.74.74,0,0,1-.13.08l-.2.11a.65.65,0,0,0-.16.09h36.61v-1.78Zm3.33,1.2-.46.24,0,0h0l.68-.35-.15.09Zm.5-.26.08-.05.22-.12h0l0,0Zm-3.83-.94,2-1.07c.07-.05.18-.09.26-.14h0L1292.3,477c-1.32.67-2.62,1.31-3.9,1.93h6c.17-.1.35-.18.53-.28a.74.74,0,0,1-.13.08l-.2.11a.65.65,0,0,0-.16.09h36.61v-1.78Zm3.33,1.2-.46.24,0,0h0l.68-.35-.15.09Zm.5-.26.08-.05.22-.12h0l0,0Zm-3.83-.94,2-1.07c.07-.05.18-.09.26-.14h0L1292.3,477c-1.32.67-2.62,1.31-3.9,1.93h6c.17-.1.35-.18.53-.28a.74.74,0,0,1-.13.08l-.2.11a.65.65,0,0,0-.16.09h36.61v-1.78Zm3.33,1.2-.46.24,0,0h0l.68-.35-.15.09Zm.5-.26.08-.05.22-.12h0l0,0Zm-3.83-.94,2-1.07c.07-.05.18-.09.26-.14h0L1292.3,477c-1.32.67-2.62,1.31-3.9,1.93h6c.17-.1.35-.18.53-.28a.74.74,0,0,1-.13.08l-.2.11a.65.65,0,0,0-.16.09h36.61v-1.78Zm3.33,1.2-.46.24,0,0h0l.68-.35-.15.09Zm.5-.26.08-.05.22-.12h0l0,0Zm-3.83-.94,2-1.07c.07-.05.18-.09.26-.14h0L1292.3,477c-1.32.67-2.62,1.31-3.9,1.93h6c.17-.1.35-.18.53-.28a.74.74,0,0,1-.13.08l-.2.11a.65.65,0,0,0-.16.09h36.61v-1.78Zm3.33,1.2-.46.24,0,0h0l.68-.35-.15.09Zm.5-.26.08-.05.22-.12h0l0,0Zm-3.83-.94,2-1.07c.07-.05.18-.09.26-.14h0L1292.3,477c-1.32.67-2.62,1.31-3.9,1.93h6c.17-.1.35-.18.53-.28a.74.74,0,0,1-.13.08l-.2.11a.65.65,0,0,0-.16.09h36.61v-1.78Zm3.33,1.2-.46.24,0,0h0l.68-.35-.15.09Zm.5-.26.08-.05.22-.12h0l0,0Zm-3.83-.94,2-1.07c.07-.05.18-.09.26-.14h0L1292.3,477c-1.32.67-2.62,1.31-3.9,1.93h6c.17-.1.35-.18.53-.28a.74.74,0,0,1-.13.08l-.2.11a.65.65,0,0,0-.16.09h36.61v-1.78Zm3.33,1.2-.46.24,0,0h0l.68-.35-.15.09Zm.5-.26.08-.05.22-.12h0l0,0Zm183.39-307.49c-.28-17.12-.49-34.6-4.33-51.37-1.61-7-3-14.07-4.7-21.09-1.58-6.63-4.75-13.22-10.27-17.51-8.25-6.4-20-5.22-29.87-5.22H917.84c-27.4,0-54.54,8.48-81.6,12.19A633,633,0,0,1,751,93.51h-1V313h1a45.7,45.7,0,0,1,25.63,7.68c.91.57,1.79,1.17,2.65,1.8a70.57,70.57,0,0,1,14.39,14.09,86,86,0,0,1,9.86,16.23c.57,1.21,1.12,2.45,1.63,3.68,1.28,3,2.45,6.12,3.53,9.21a312.2,312.2,0,0,0,12.88,32.13,202.71,202.71,0,0,0,10.9,19.91c.58.95,1.19,1.9,1.8,2.84A334.44,334.44,0,0,0,862.69,459a210.79,210.79,0,0,0,19.6,19.92,168.3,168.3,0,0,0,27.15,19.66c26.63,15.39,51.1,27,81.5,31.79h131.43c44.41,0,89.08,2.72,132.67-7.29,2.42-.55,4.84-1.15,7.25-1.78,24.58-6.56,44.5-20.44,64.36-35.29.54-.42,1.08-.82,1.64-1.23.93-.71,1.87-1.41,2.81-2.11l.26-.2c.08-.06.14-.12.23-.18,22.58-17,45.1-34.36,64.48-55,26.51-28.19,50.28-58.91,62.18-95.83a373.3,373.3,0,0,0,10.13-38.11c1.85-8.75,3.45-17.58,4.79-26.4a555.55,555.55,0,0,0,6-67.64q.25-7.85.28-15.7c0-1,0-2,0-3v-1.48C1479.48,176.29,1479.45,173.43,1479.41,170.58Zm-14.78-17.89h0v0h.2v19.18h0v0h-41.17c-.05-.23-.11-.47-.18-.71h0v0h41.09ZM851.23,151c2.28-.94,4.67-1.86,7.14-2.74,116.24-41.66,436.51-22.24,529.7-15.5,11.71.85,22,6.75,27.87,15.5a31.15,31.15,0,0,1,1.78,3H850.66A3.76,3.76,0,0,1,851.23,151Zm605.4,63.87V214h0v.81h.17v19.9h0v0h-24.32c0-.13,0-.26,0-.4s0-.26,0-.4h0v0h24.14V214.84Zm-26.75,81.34c0-.32.09-.66.15-1h0v0h16.66V275.76h0v-.51h0v.49h.27v20.42h0v0Zm-40.34,101.57H884.19A310.79,310.79,0,0,1,869,362.28c-.72-1.95-1.4-3.9-2.07-5.87h545.77c-.85,2-1.73,3.94-2.63,5.87A230.06,230.06,0,0,1,1389.54,397.75Zm42.8-163.83c.11,2,.21,3.92.29,5.87,0,.26,0,.54,0,.81q.21,5.42.23,10.68c0,1.64,0,3.26,0,4.88-.07,6.54-.35,12.89-.81,19.09H848c-1.74-12.29-3-24.21-3.78-35.46-.14-2-.27-3.93-.39-5.87Zm-2.47,61.25c-.29,2-.6,3.93-.93,5.86a248.9,248.9,0,0,1-8.75,35.47H860.71c-3.33-11.84-6.11-23.74-8.4-35.47-.38-2-.75-3.92-1.12-5.86Zm-5.07-117.45q3.54,17.22,5.47,33.29c.13,1,.25,2,.36,3H843c-.06-2.47-.09-4.9-.1-7.26q0-2.26,0-4.44c0-12.41.59-23,1.44-31.17h579.07c.06.24.1.46.16.69s.06.22.08.33c.34,1.63.7,3.24,1,4.85C1424.69,177.25,1424.74,177.48,1424.8,177.72ZM899.21,423.53q-1.94-2.91-3.79-5.87h478.44c-1.76,2-3.53,4-5.33,5.87a261.54,261.54,0,0,1-41.1,35.46H929.11A198.47,198.47,0,0,1,899.21,423.53Zm395.87,55h0l.68-.35-.15.09-.1.05-.46.24Zm1-.53.22-.12h0l0,0-.27.14ZM1373,418.7l.48-.51.48-.51h0l0,0h18.47V398.79h0v-1h0v1h.48v19.91h0v0Zm39.55-61c.16-.42.34-.82.5-1.23h0v0h20.13V336.73h0v-.23h0v.21h.36v20.93h0v0Zm-80.94,122.47h0v0h-39.39l0,0,2-1.07.13-.07.13-.07h0c-.69.36-1.4.73-2.08,1.06-3.46,1.75-6.78,3.34-9.93,4.79A245,245,0,0,1,1256.69,495a34.8,34.8,0,0,1-10.88,1.74H1003.12a47.48,47.48,0,0,1-15-2.41,156.68,156.68,0,0,1-22.52-9.51q-5.36-2.76-10.4-5.86h339.2c.17-.1.35-.18.53-.28a.74.74,0,0,1-.13.08l-.2.11a.65.65,0,0,0-.16.09h36.61V459.48h0v0h.49Zm-39.4-3,2-1.07c.07-.05.18-.09.26-.14h0L1292.3,477c-1.32.67-2.62,1.31-3.9,1.93h6c.17-.1.35-.18.53-.28a.74.74,0,0,1-.13.08l-.2.11a.65.65,0,0,0-.16.09h36.61v-1.78Zm3.33,1.2-.46.24,0,0h0l.68-.35-.15.09Zm.5-.26.08-.05.22-.12h0l0,0Zm-3.83-.94,2-1.07c.07-.05.18-.09.26-.14h0L1292.3,477c-1.32.67-2.62,1.31-3.9,1.93h6c.17-.1.35-.18.53-.28a.74.74,0,0,1-.13.08l-.2.11a.65.65,0,0,0-.16.09h36.61v-1.78Zm3.33,1.2-.46.24,0,0h0l.68-.35-.15.09Zm.5-.26.08-.05.22-.12h0l0,0Zm-3.83-.94,2-1.07c.07-.05.18-.09.26-.14h0L1292.3,477c-1.32.67-2.62,1.31-3.9,1.93h6c.17-.1.35-.18.53-.28a.74.74,0,0,1-.13.08l-.2.11a.65.65,0,0,0-.16.09h36.61v-1.78Zm3.33,1.2-.46.24,0,0h0l.68-.35-.15.09Zm.5-.26.08-.05.22-.12h0l0,0Zm-3.83-.94,2-1.07c.07-.05.18-.09.26-.14h0L1292.3,477c-1.32.67-2.62,1.31-3.9,1.93h6c.17-.1.35-.18.53-.28a.74.74,0,0,1-.13.08l-.2.11a.65.65,0,0,0-.16.09h36.61v-1.78Zm3.33,1.2-.46.24,0,0h0l.68-.35-.15.09Zm.5-.26.08-.05.22-.12h0l0,0Zm-3.83-.94,2-1.07c.07-.05.18-.09.26-.14h0L1292.3,477c-1.32.67-2.62,1.31-3.9,1.93h6c.17-.1.35-.18.53-.28a.74.74,0,0,1-.13.08l-.2.11a.65.65,0,0,0-.16.09h36.61v-1.78Zm3.33,1.2-.46.24,0,0h0l.68-.35-.15.09Zm.5-.26.08-.05.22-.12h0l0,0Zm-3.83-.94,2-1.07c.07-.05.18-.09.26-.14h0L1292.3,477c-1.32.67-2.62,1.31-3.9,1.93h6c.17-.1.35-.18.53-.28a.74.74,0,0,1-.13.08l-.2.11a.65.65,0,0,0-.16.09h36.61v-1.78Zm3.33,1.2-.46.24,0,0h0l.68-.35-.15.09Zm.5-.26.08-.05.22-.12h0l0,0Zm-3.83-.94,2-1.07c.07-.05.18-.09.26-.14h0L1292.3,477c-1.32.67-2.62,1.31-3.9,1.93h6c.17-.1.35-.18.53-.28a.74.74,0,0,1-.13.08l-.2.11a.65.65,0,0,0-.16.09h36.61v-1.78Zm3.33,1.2-.46.24,0,0h0l.68-.35-.15.09Zm.5-.26.08-.05.22-.12h0l0,0Zm-3.83-.94,2-1.07c.07-.05.18-.09.26-.14h0L1292.3,477c-1.32.67-2.62,1.31-3.9,1.93h6c.17-.1.35-.18.53-.28a.74.74,0,0,1-.13.08l-.2.11a.65.65,0,0,0-.16.09h36.61v-1.78Zm3.33,1.2-.46.24,0,0h0l.68-.35-.15.09Zm.5-.26.08-.05.22-.12h0l0,0Zm-3.83-.94,2-1.07c.07-.05.18-.09.26-.14h0L1292.3,477c-1.32.67-2.62,1.31-3.9,1.93h6c.17-.1.35-.18.53-.28a.74.74,0,0,1-.13.08l-.2.11a.65.65,0,0,0-.16.09h36.61v-1.78Zm3.33,1.2-.46.24,0,0h0l.68-.35-.15.09Zm.5-.26.08-.05.22-.12h0l0,0Zm-3.83-.94,2-1.07c.07-.05.18-.09.26-.14h0L1292.3,477c-1.32.67-2.62,1.31-3.9,1.93h6c.17-.1.35-.18.53-.28a.74.74,0,0,1-.13.08l-.2.11a.65.65,0,0,0-.16.09h36.61v-1.78Zm3.33,1.2-.46.24,0,0h0l.68-.35-.15.09Zm.5-.26.08-.05.22-.12h0l0,0Zm-3.83-.94,2-1.07c.07-.05.18-.09.26-.14h0L1292.3,477c-1.32.67-2.62,1.31-3.9,1.93h6c.17-.1.35-.18.53-.28a.74.74,0,0,1-.13.08l-.2.11a.65.65,0,0,0-.16.09h36.61v-1.78Zm3.33,1.2-.46.24,0,0h0l.68-.35-.15.09Zm.5-.26.08-.05.22-.12h0l0,0Zm-3.83-.94,2-1.07c.07-.05.18-.09.26-.14h0L1292.3,477c-1.32.67-2.62,1.31-3.9,1.93h6c.17-.1.35-.18.53-.28a.74.74,0,0,1-.13.08l-.2.11a.65.65,0,0,0-.16.09h36.61v-1.78Zm3.33,1.2-.46.24,0,0h0l.68-.35-.15.09Zm.5-.26.08-.05.22-.12h0l0,0Zm-3.83-.94,2-1.07c.07-.05.18-.09.26-.14h0L1292.3,477c-1.32.67-2.62,1.31-3.9,1.93h6c.17-.1.35-.18.53-.28a.74.74,0,0,1-.13.08l-.2.11a.65.65,0,0,0-.16.09h36.61v-1.78Zm3.33,1.2-.46.24,0,0h0l.68-.35-.15.09Zm.5-.26.08-.05.22-.12h0l0,0Zm-3.83-.94,2-1.07c.07-.05.18-.09.26-.14h0L1292.3,477c-1.32.67-2.62,1.31-3.9,1.93h6c.17-.1.35-.18.53-.28a.74.74,0,0,1-.13.08l-.2.11a.65.65,0,0,0-.16.09h36.61v-1.78Zm3.33,1.2-.46.24,0,0h0l.68-.35-.15.09Zm.5-.26.08-.05.22-.12h0l0,0Zm-3.83-.94,2-1.07c.07-.05.18-.09.26-.14h0L1292.3,477c-1.32.67-2.62,1.31-3.9,1.93h6c.17-.1.35-.18.53-.28a.74.74,0,0,1-.13.08l-.2.11a.65.65,0,0,0-.16.09h36.61v-1.78Zm3.33,1.2-.46.24,0,0h0l.68-.35-.15.09Zm.5-.26.08-.05.22-.12h0l0,0Z"/><path class="cls-2" d="M716.91,297.35a11,11,0,0,0-6.56,2,6.32,6.32,0,0,0-2.71,4.95c0,3.83,4.15,7,9.27,7H750v-14ZM655.69,168.14H76.62l-.15.69-.09.33-.42,2h.51v0h0c-.06.24-.12.48-.16.71h-.53L75.36,174c0,.24-.11.47-.15.71Q71.34,193.56,69.38,211h.36q2-16.06,5.47-33.29c0-.24.1-.47.15-.71.33-1.61.68-3.22,1-4.85l.09-.33.15-.69H655.69c.85,8.12,1.41,18.65,1.44,31A322,322,0,0,0,655.69,168.14Zm-588,62.78c-.06,1-.11,2-.16,3h0v0h0c0,.27,0,.54,0,.8h-.07l-.09,2,0,.81q-.27,6.63-.23,13,0-4.95.23-10l0-.81c.08-1.95.17-3.9.29-5.87H656c.07-1,.14-2,.2-3ZM648.78,148c-109.65-45.23-441.67-25.12-536.84-18.24-13,.94-24.27,8.12-29.66,18.5h1.79c5.86-8.75,16.16-14.65,27.87-15.5,93.19-6.74,413.46-26.16,529.7,15.5h7.71A4.27,4.27,0,0,0,648.78,148ZM70.13,292.17c.15,1,.31,2,.47,3H648.23c.2-1,.39-2,.58-3Zm17.21,61.24q.64,1.51,1.32,3H632.07c.35-1,.7-2,1-3Zm38.81,61.25c.89,1,1.78,2,2.68,3H602.67q1-1.5,1.92-3ZM205.6,475.9l-.11,0-.56-.3h0c-.92-.47-1.82-1-2.75-1.44.94.52,1.86,1,2.77,1.47l.05,0,.07,0,.13.08.21.11.07,0,.08,0h0l0,0h0l2.09,1.06c1.32.67,2.62,1.31,3.9,1.93H539.7q2.58-1.46,5.1-3Zm-98.1-80.11v0h-.2s0,0,0,0a2.75,2.75,0,0,0,.19.28l0,0v-.31Z"/><path class="cls-3" d="M750,311.34V313h-1a45.73,45.73,0,0,0-25.63,7.68q-1.35.86-2.64,1.8a70.32,70.32,0,0,0-14.39,14.09,85.48,85.48,0,0,0-9.86,16.23c-.57,1.21-1.12,2.45-1.63,3.68-1.29,3-2.45,6.12-3.53,9.21a312.22,312.22,0,0,1-12.89,32.13,200.51,200.51,0,0,1-10.89,19.91c-.58.95-1.19,1.9-1.8,2.84A335.62,335.62,0,0,1,637.32,459a210.79,210.79,0,0,1-19.6,19.92,168.38,168.38,0,0,1-27.16,19.66c-26.63,15.39-51.09,27-81.49,31.79H377.63c-44.4,0-89.08,2.72-132.66-7.29-2.43-.55-4.84-1.15-7.25-1.78-24.59-6.56-44.5-20.44-64.36-35.29l-1.64-1.23-2.81-2.11-.26-.2-.23-.18c-22.58-17-45.1-34.36-64.48-55-26.51-28.19-50.28-58.91-62.19-95.83a375.91,375.91,0,0,1-10.13-38.11c-1.85-8.75-3.44-17.58-4.78-26.4a557.57,557.57,0,0,1-6-67.64q-.26-7.85-.28-15.7c0-1,0-2,0-3q0,7.85.28,15.7a557.57,557.57,0,0,0,6,67.64c1.34,8.82,2.93,17.65,4.78,26.4a375.91,375.91,0,0,0,10.13,38.11c11.91,36.92,35.68,67.64,62.19,95.83,19.38,20.61,41.9,38,64.48,55l.23.18.26.2.65.49,2.16,1.62,1.64,1.23c19.86,14.85,39.77,28.73,64.36,35.29,2.41.63,4.82,1.23,7.25,1.78,43.58,10,88.26,7.29,132.66,7.29H509.07c30.4-4.8,54.86-16.4,81.49-31.79a167.83,167.83,0,0,0,27.16-19.67A209.49,209.49,0,0,0,637.32,456a335.62,335.62,0,0,0,28.42-38.49c.61-.95,1.22-1.89,1.8-2.84a200.51,200.51,0,0,0,10.89-19.91,313.13,313.13,0,0,0,12.89-32.13c1.08-3.09,2.24-6.18,3.53-9.21.51-1.23,1.06-2.47,1.63-3.68a85.48,85.48,0,0,1,9.86-16.23,70.32,70.32,0,0,1,14.39-14.09q1.29-.95,2.64-1.8a49,49,0,0,1,14-6.27Z"/><path class="cls-4" d="M1464.84,152.69v19.18h-41.17c-.05-.23-.11-.47-.17-.71h41.14V152.69Z"/><path class="cls-4" d="M1456.78,214.84v19.9h-24.31c0-.26,0-.53,0-.8h24.17v-19.1Z"/><path class="cls-4" d="M1447,275.76v20.42h-17.15c0-.32.09-.66.15-1h16.71V275.76Z"/><path class="cls-4" d="M1433.59,336.73v20.93h-21.06c.16-.42.34-.82.5-1.23h20.18v-19.7Z"/><path class="cls-4" d="M1393,398.79V418.7h-20l1-1h18.51V398.79Z"/><path class="cls-4" d="M1297.84,477.1c-.94.52-1.86,1-2.78,1.47l0,0h0C1296,478.08,1296.91,477.59,1297.84,477.1Z"/><path class="cls-4" d="M1331.55,459.48v20.67h-39.39l0,0,2-1.07c.08-.05.18-.09.26-.13h36.64V459.48Z"/><path class="cls-2" d="M1296.32,477.9l-.22.12-.33.17-.68.35h0l-.14.08.08,0,0,0,.46-.24c.16-.08.33-.16.5-.26l.27-.14,1.45-.78Zm-1.94,1h.07a.65.65,0,0,1,.16-.09l.2-.11a.74.74,0,0,0,.13-.08c-.18.1-.36.18-.53.28Z"/></g><g class="cls-5"><path class="cls-2" d="M87.48,357.66h-1l-.54-1.25h1v0h0C87.13,356.84,87.32,357.24,87.48,357.66Z"/><path class="cls-2" d="M107.52,395.79v.31l0,0a2.75,2.75,0,0,1-.19-.28s0,0,0,0h.2v0Z"/><path class="cls-2" d="M544.8,475.9q-2.52,1.56-5.1,3t-5.3,2.86a157.46,157.46,0,0,1-22.53,9.51,47.43,47.43,0,0,1-15,2.41H254.19A34.84,34.84,0,0,1,243.31,492a246.73,246.73,0,0,1-25.68-10.18q-2.91-1.35-6-2.86c-1.28-.62-2.58-1.26-3.9-1.93l-2.09-1.06h0l0,0h0l-.08,0-.07,0-.21-.11-.13-.08-.07,0-.05,0c-.91-.47-1.83-.95-2.77-1.47.93.49,1.83,1,2.75,1.44h0l.56.3.11,0Z"/><path class="cls-2" d="M604.59,414.66q-.95,1.5-1.92,3c-.61,1-1.24,1.91-1.87,2.86A198.6,198.6,0,0,1,570.9,456H172.57a260.6,260.6,0,0,1-41.09-35.47c-.89-.94-1.77-1.9-2.65-2.86s-1.79-2-2.68-3Z"/><path class="cls-2" d="M632.07,356.41h1c-.67,2-1.36,3.92-2.07,5.87a312.59,312.59,0,0,1-15.22,35.47H110.47A230.06,230.06,0,0,1,90,362.28c-.9-1.93-1.78-3.88-2.63-5.87h1.32q-.68-1.49-1.32-3H633.11C632.77,354.42,632.42,355.42,632.07,356.41Z"/><path class="cls-2" d="M648.23,295.17h.58c-.37,1.94-.74,3.9-1.12,5.86-2.28,11.73-5.06,23.63-8.39,35.47H79.82A248.9,248.9,0,0,1,71.07,301c-.33-1.93-.64-3.89-.94-5.86h.47c-.16-1-.32-2-.47-3H648.81C648.62,293.17,648.43,294.17,648.23,295.17Z"/><path class="cls-2" d="M648.78,151a4.27,4.27,0,0,1,.57.26H82.28a29.31,29.31,0,0,1,1.79-3H82.28c5.39-10.38,16.65-17.56,29.66-18.5,95.17-6.88,427.19-27,536.84,18.24a4.27,4.27,0,0,1,.57.26h-7.71C644.11,149.11,646.5,150,648.78,151Z"/><path class="cls-2" d="M656,233.92h.2c-.12,1.94-.25,3.89-.39,5.87C655,251,653.75,263,652,275.25H67.94c-.46-6.2-.75-12.55-.81-19.09,0-1.83,0-3.67,0-5.53q0-6.4.23-13l0-.81.09-2c0-.27,0-.55,0-.82,0-1,.1-2,.16-3H656.19C656.13,231.92,656.06,232.92,656,233.92Z"/><path class="cls-2" d="M657.13,202.11v3.63c0,.34,0,.67,0,1,0,2.36,0,4.79-.09,7.26H69.38c.11-1,.23-2,.36-3h-.36q2-17.44,5.83-36.29c0-.24.1-.47.15-.71l.45-2.14.15-.73.42-2,.09-.33.15-.69H655.69A322,322,0,0,1,657.13,202.11Z"/></g><path class="cls-3" d="M204.93,475.55h0c-.92-.47-1.82-1-2.75-1.44.94.52,1.86,1,2.77,1.47l.05,0,.07,0,.13.08.21.11.07,0h0Zm.56.3.06,0h0Z"/><path class="cls-6" d="M205.57,475.9h0l0,0h0Z"/><path class="cls-4" d="M107.52,395.79v.31l0,0a2.75,2.75,0,0,1-.19-.28Z"/><path class="cls-4" d="M204.94,475.57c-.91-.47-1.83-.95-2.77-1.47.93.49,1.83,1,2.75,1.44h0Z"/><path class="cls-3" d="M205.6,475.9l-.11,0-.56-.3h0c-.92-.47-1.82-1-2.75-1.44.94.52,1.86,1,2.77,1.47l.05,0,.07,0,.13.08.21.11.07,0,.08,0h0l0,0h0Z"/><g class="cls-5"><path class="cls-2" d="M985.69,497.28a47.13,47.13,0,0,0,15.11,2.46h244.94a34.88,34.88,0,0,0,11-1.77c36.17-12.06,228.68-89,165-344.57-3.52-14.11-16.72-24.43-32.44-25.57-96.06-7-431.15-27.58-541.82,18.64-2.63,1.1-3.61,2.74-4.56,6C832.9,187,830.89,444.75,985.69,497.28Z"/></g><path class="cls-3" d="M1295.09,475.54h0l-.14.08.08,0,0,0c.91-.47,1.84-.95,2.78-1.47Zm-.55.3.07,0,.2-.11a.74.74,0,0,0,.13-.08l-.2.1Zm-.1.06.08,0-.11,0Z"/><path class="cls-3" d="M1392.5,395.77v18.89H1374l0,0-.92,1h20V395.77Zm40.77-62.06v19.7h-20.2v0c-.16.4-.34.8-.49,1.21h21.06V333.71Zm31.41-184v18.47h-41.14v0c.06.23.12.47.16.69h41.18V149.67ZM1446.8,272.74v19.43h-16.73v0c-.07.32-.11.66-.15,1h17.15V272.74Zm9.85-60.92v19.1h-24.2v0c0,.26,0,.53,0,.78h24.32v-19.9Z"/><path class="cls-3" d="M1331.1,456.46V475.9h-36.66s0,0,0,0-.19.09-.26.14l-2,1.07h39.4V456.46Z"/><path class="cls-3" d="M1294.43,475.9l0,0h0s0,0,0,0Zm36.63-19.42V475.9h0V456.48Zm-38.87,20.65,0,0h39.39v0Zm100.25-81.34v18.87h0V395.79ZM1373,415.68l.92-1h0c-.32.34-.63.68-1,1h0Zm60.17-81.95v19.68h0V333.73Zm-20.63,20.91c.15-.41.33-.81.49-1.21h0c-.16.41-.34.81-.5,1.23h21.06v0Zm34.16-81.88v19.41h0V272.76Zm-16.81,20.4c0-.31.08-.65.15-1h0c-.07.33-.1.67-.15,1H1447v0Zm26.67-81.32v19.08h0V211.84Zm-24.09,19.88c0-.25,0-.52,0-.78h0c0,.27,0,.54,0,.8h24.32v0Zm32.13-82v18.45h0V149.69Zm-40.93,19.16c0-.22-.1-.46-.16-.69h0c.07.24.13.48.18.71h41.17v0Z"/><path class="cls-3" d="M1479.41,167.58c-.28-17.12-.49-34.6-4.33-51.37-1.61-7-3-14.07-4.7-21.09-1.58-6.63-4.75-13.22-10.27-17.51-8.25-6.4-20-5.22-29.87-5.22H917.84c-27.4,0-54.54,8.48-81.6,12.18A631.42,631.42,0,0,1,751,90.51h-1V310h1q1.28,0,2.55,0c1.06.05,2.11.13,3.15.26l.93.13c.28,0,.55.07.82.12a37.86,37.86,0,0,1,4.13.88,49,49,0,0,1,14,6.27c.91.57,1.79,1.17,2.65,1.8a70.57,70.57,0,0,1,14.39,14.09,86,86,0,0,1,9.86,16.23c.57,1.21,1.12,2.45,1.63,3.68,1.28,3,2.45,6.12,3.53,9.21a313.11,313.11,0,0,0,12.88,32.13,202.71,202.71,0,0,0,10.9,19.91c.58.95,1.19,1.89,1.8,2.84A334.44,334.44,0,0,0,862.69,456a209.49,209.49,0,0,0,19.6,19.91,167.75,167.75,0,0,0,27.15,19.67c26.63,15.39,51.1,27,81.5,31.79h131.43c44.41,0,89.08,2.72,132.67-7.29,2.42-.55,4.84-1.15,7.25-1.78,24.58-6.56,44.5-20.44,64.36-35.29.54-.42,1.08-.82,1.64-1.23.71-.55,1.44-1.09,2.16-1.62l0,0,.63-.47.26-.2.19-.15,0,0c22.58-17,45.1-34.36,64.48-55,26.51-28.19,50.28-58.91,62.18-95.83a373.3,373.3,0,0,0,10.13-38.11c1.85-8.75,3.45-17.58,4.79-26.4a555.55,555.55,0,0,0,6-67.64q.25-7.85.28-15.7v-1.48C1479.49,175.28,1479.47,171.43,1479.41,167.58Zm-184.33,308h0l2.75-1.44c-.94.52-1.87,1-2.78,1.47Zm-.14.08a.74.74,0,0,1-.13.08l-.2.11-.07,0,.2-.11ZM851.19,292.17h578.68c-.15,1-.3,2-.46,3s-.31,1.91-.47,2.86a248.9,248.9,0,0,1-8.75,35.47H860.71c-3.33-11.84-6.11-23.74-8.4-35.47-.18-.95-.37-1.91-.54-2.86S851.38,293.17,851.19,292.17Zm517.34,128.35a261.1,261.1,0,0,1-41.1,35.47H929.11a198.18,198.18,0,0,1-29.9-35.47c-.63-.95-1.26-1.9-1.87-2.86s-1.29-2-1.92-3h478.44c-.89,1-1.78,2-2.68,3S1369.42,419.58,1368.53,420.52ZM1410,359.28a230.06,230.06,0,0,1-20.5,35.47H884.19A310.79,310.79,0,0,1,869,359.28c-.35-1-.7-1.91-1-2.87s-.7-2-1-3h545.77q-.64,1.51-1.32,3C1410.92,357.37,1410.48,358.33,1410,359.28Zm22.46-125.34c0,.26,0,.52,0,.78v0l.09,2c0,.26,0,.54,0,.81q.27,7,.23,13.68c0,.63,0,1.26,0,1.88-.07,6.54-.35,12.89-.81,19.09H848c-1.74-12.29-3-24.21-3.78-35.46-.07-1-.13-1.92-.19-2.87s-.14-2-.2-3h588.52c.06,1,.11,2,.16,3Zm-8.45-62.78c0,.23.1.46.14.69v0l.45,2.14c0,.24.09.47.15.71q3.87,18.84,5.83,36.29H843c-.06-2.47-.09-4.9-.1-7.26v-1.44a325.53,325.53,0,0,1,1.44-34.17h579.07c.06.24.1.46.16.69s.06.22.08.33l.42,2S1424,171.16,1424.05,171.16ZM850.66,148.23a3.76,3.76,0,0,1,.57-.26c109.65-45.23,441.67-25.12,536.84-18.24,13,.94,24.27,8.12,29.65,18.5Zm480.93,328.9h0v0h-39.39l0,0,2-1.07c.07-.05.18-.09.26-.14h0L1292.3,477c-1.32.67-2.62,1.31-3.9,1.93q-3.11,1.51-6,2.86A245,245,0,0,1,1256.69,492a34.8,34.8,0,0,1-10.88,1.74H1003.12a47.48,47.48,0,0,1-15-2.41,157.81,157.81,0,0,1-22.52-9.51q-2.68-1.38-5.3-2.86t-5.1-3h339.2l.11,0-.07,0h36.61V456.48h0v0h.49ZM1393,415.68h-20c.33-.33.64-.67,1-1h0l0,0h18.47V395.79h0v-1h0v1h.48Zm40.65-61h0v0h-21.06c.16-.42.34-.82.5-1.23h0v0h20.13V333.73h0v-.23h0v.21h.36Zm13.44-61.48h0v0h-17.15c0-.32.08-.66.15-1h0v0h16.66V272.76h0v-.51h0v.49h.27Zm9.75-61.44h0v0h-24.32c0-.26,0-.53,0-.8h0v0h24.14V211.84h0V211h0v.81h.17Zm8.06-62.87h0v0h-41.17c-.05-.23-.11-.47-.18-.71h0v0h41.09V149.69h0v0h.2Z"/><path class="cls-3" d="M87,356.43h0v0h-1l.54,1.25h1C87.32,357.24,87.13,356.84,87,356.43Zm545.09,0c-.34,1-.68,1.91-1,2.87a312.59,312.59,0,0,1-15.22,35.47H110.47A230.06,230.06,0,0,1,90,359.28c-.44-.95-.88-1.91-1.31-2.87H87.34c.85,2,1.73,3.94,2.63,5.87a230.06,230.06,0,0,0,20.5,35.47H615.82A312.59,312.59,0,0,0,631,362.28c.71-1.95,1.4-3.9,2.07-5.87Zm16.16-61.24c-.17.95-.36,1.91-.54,2.86-2.28,11.73-5.06,23.63-8.39,35.47H79.82A248.9,248.9,0,0,1,71.07,298c-.16-.95-.32-1.9-.47-2.86h-.47c.3,2,.61,3.93.94,5.86a248.9,248.9,0,0,0,8.75,35.47H639.3c3.33-11.84,6.11-23.74,8.39-35.47.38-2,.75-3.92,1.12-5.86Zm.55-144.2c-2.28-.94-4.67-1.86-7.14-2.74H84.07a29.31,29.31,0,0,0-1.79,3H649.35A4.27,4.27,0,0,0,648.78,151ZM656,233.92c-.06,1-.12,1.91-.19,2.87C655,248,653.75,260,652,272.25H67.94c-.46-6.2-.75-12.55-.81-19.09,0-.84,0-1.68,0-2.53,0,1.86,0,3.7,0,5.53.06,6.54.35,12.89.81,19.09H652c1.73-12.29,3-24.21,3.78-35.46.14-2,.27-3.93.39-5.87ZM657,211H69.74c-.13,1-.25,2-.36,3H657c.06-2.47.09-4.9.09-7.26,0-.34,0-.67,0-1v-2C657.13,206.11,657.1,208.54,657,211Zm92-120.5a631.16,631.16,0,0,1-85.23-5.94c-27.06-3.7-54.21-12.18-81.6-12.18H69.75c-9.81,0-21.6-1.18-29.85,5.22-5.53,4.29-8.69,10.88-10.27,17.51-1.69,7-3.1,14.07-4.7,21.09-3.84,16.77-4.05,34.25-4.33,51.37-.07,3.87-.09,7.75-.08,11.63q0-4.32.08-8.63c.28-17.12.49-34.6,4.33-51.37,1.6-7,3-14.07,4.7-21.09,1.58-6.63,4.74-13.22,10.27-17.51,8.25-6.4,20-5.22,29.85-5.22H582.17c27.39,0,54.54,8.48,81.6,12.19A632.78,632.78,0,0,0,749,93.51h1v-3ZM716.91,297.35a11,11,0,0,0-6.56,2,6.32,6.32,0,0,0-2.71,4.95c0,3.83,4.15,7,9.27,7h20.51a38.89,38.89,0,0,1,4.13-.88c.27,0,.55-.09.82-.12l.93-.13c1.05-.13,2.1-.21,3.16-.26.84,0,1.69,0,2.54,0h1v-12.6Z"/><path class="cls-7" d="M1464.84,149.69v19.18h-41.17c-.05-.23-.11-.47-.18-.71h41.14V149.69Z"/><path class="cls-7" d="M1456.78,211.84v19.9h-24.32c0-.26,0-.53,0-.8h24.17v-19.1Z"/><path class="cls-7" d="M1447,272.76v20.42h-17.15c0-.32.08-.66.15-1h16.7V272.76Z"/><path class="cls-7" d="M1433.59,333.73v20.93h-21.06c.16-.42.34-.82.5-1.23h20.17v-19.7Z"/><path class="cls-7" d="M1392.94,395.79v19.9h-20c.33-.33.64-.67,1-1h18.5V395.79Z"/><path class="cls-7" d="M1297.84,474.1c-.94.52-1.87,1-2.78,1.47l0,0h0Z"/><path class="cls-7" d="M1331.55,456.48v20.67h-39.39l0,0,2-1.07c.07-.05.18-.09.26-.14h36.64V456.48Z"/><path class="cls-3" d="M1295.09,475.54h0l-.14.08.08,0,0,0c.91-.47,1.84-.95,2.78-1.47Zm-.55.3.07,0,.2-.11a.74.74,0,0,0,.13-.08l-.2.1Zm-.16.08h0s0,0,0,0h0l.07,0-.11,0Z"/><path class="cls-3" d="M1295.09,475.54h0l-.14.08.08,0,0,0c.91-.47,1.84-.95,2.78-1.47Zm-.55.3.07,0,.2-.11a.74.74,0,0,0,.13-.08l-.2.1Zm-.1.06.08,0-.11,0Z"/><path class="cls-3" d="M1392.5,395.77v18.89H1374l0,0-.92,1h20V395.77Zm40.77-62.06v19.7h-20.2v0c-.16.4-.34.8-.49,1.21h21.06V333.71Zm31.41-184v18.47h-41.14v0c.06.23.12.47.16.69h41.18V149.67ZM1446.8,272.74v19.43h-16.73v0c-.07.32-.11.66-.15,1h17.15V272.74Zm9.85-60.92v19.1h-24.2v0c0,.26,0,.53,0,.78h24.32v-19.9Z"/><path class="cls-3" d="M1331.1,456.46V475.9h-36.66s0,0,0,0-.19.09-.26.14l-2,1.07h39.4V456.46Z"/><path class="cls-3" d="M1294.43,475.9l0,0h0s0,0,0,0Zm36.63-19.42V475.9h0V456.48Zm-38.87,20.65,0,0h39.39v0Zm100.25-81.34v18.87h0V395.79ZM1373,415.68l.92-1h0c-.32.34-.63.68-1,1h0Zm60.17-81.95v19.68h0V333.73Zm-20.63,20.91c.15-.41.33-.81.49-1.21h0c-.16.41-.34.81-.5,1.23h21.06v0Zm34.16-81.88v19.41h0V272.76Zm-16.81,20.4c0-.31.08-.65.15-1h0c-.07.33-.1.67-.15,1H1447v0Zm26.67-81.32v19.08h0V211.84Zm-24.09,19.88c0-.25,0-.52,0-.78h0c0,.27,0,.54,0,.8h24.32v0Zm32.13-82v18.45h0V149.69Zm-40.93,19.16c0-.22-.1-.46-.16-.69h0c.07.24.13.48.18.71h41.17v0Z"/><path class="cls-3" d="M1479.41,167.58c-.28-17.12-.49-34.6-4.33-51.37-1.61-7-3-14.07-4.7-21.09-1.58-6.63-4.75-13.22-10.27-17.51-8.25-6.4-20-5.22-29.87-5.22H917.84c-27.4,0-54.54,8.48-81.6,12.18A631.42,631.42,0,0,1,751,90.51h-1V310h1q1.28,0,2.55,0c1.06.05,2.11.13,3.15.26l.93.13c.28,0,.55.07.82.12a37.86,37.86,0,0,1,4.13.88,49,49,0,0,1,14,6.27c.91.57,1.79,1.17,2.65,1.8a70.57,70.57,0,0,1,14.39,14.09,86,86,0,0,1,9.86,16.23c.57,1.21,1.12,2.45,1.63,3.68,1.28,3,2.45,6.12,3.53,9.21a313.11,313.11,0,0,0,12.88,32.13,202.71,202.71,0,0,0,10.9,19.91c.58.95,1.19,1.89,1.8,2.84A334.44,334.44,0,0,0,862.69,456a209.49,209.49,0,0,0,19.6,19.91,167.75,167.75,0,0,0,27.15,19.67c26.63,15.39,51.1,27,81.5,31.79h131.43c44.41,0,89.08,2.72,132.67-7.29,2.42-.55,4.84-1.15,7.25-1.78,24.58-6.56,44.5-20.44,64.36-35.29.54-.42,1.08-.82,1.64-1.23.71-.55,1.44-1.09,2.16-1.62l0,0,.63-.47.26-.2.19-.15,0,0c22.58-17,45.1-34.36,64.48-55,26.51-28.19,50.28-58.91,62.18-95.83a373.3,373.3,0,0,0,10.13-38.11c1.85-8.75,3.45-17.58,4.79-26.4a555.55,555.55,0,0,0,6-67.64q.25-7.85.28-15.7v-1.48C1479.49,175.28,1479.47,171.43,1479.41,167.58Zm-184.33,308h0l2.75-1.44c-.94.52-1.87,1-2.78,1.47Zm-.14.08a.74.74,0,0,1-.13.08l-.2.11-.07,0,.2-.11ZM851.19,292.17h578.68c-.15,1-.3,2-.46,3s-.31,1.91-.47,2.86a248.9,248.9,0,0,1-8.75,35.47H860.71c-3.33-11.84-6.11-23.74-8.4-35.47-.18-.95-.37-1.91-.54-2.86S851.38,293.17,851.19,292.17Zm517.34,128.35a261.1,261.1,0,0,1-41.1,35.47H929.11a198.18,198.18,0,0,1-29.9-35.47c-.63-.95-1.26-1.9-1.87-2.86s-1.29-2-1.92-3h478.44c-.89,1-1.78,2-2.68,3S1369.42,419.58,1368.53,420.52ZM1410,359.28a230.06,230.06,0,0,1-20.5,35.47H884.19A310.79,310.79,0,0,1,869,359.28c-.35-1-.7-1.91-1-2.87s-.7-2-1-3h545.77q-.64,1.51-1.32,3C1410.92,357.37,1410.48,358.33,1410,359.28Zm22.46-125.34c0,.26,0,.52,0,.78v0l.09,2c0,.26,0,.54,0,.81q.27,7,.23,13.68c0,.63,0,1.26,0,1.88-.07,6.54-.35,12.89-.81,19.09H848c-1.74-12.29-3-24.21-3.78-35.46-.07-1-.13-1.92-.19-2.87s-.14-2-.2-3h588.52c.06,1,.11,2,.16,3Zm-8.45-62.78c0,.23.1.46.14.69v0l.45,2.14c0,.24.09.47.15.71q3.87,18.84,5.83,36.29H843c-.06-2.47-.09-4.9-.1-7.26v-1.44a325.53,325.53,0,0,1,1.44-34.17h579.07c.06.24.1.46.16.69s.06.22.08.33l.42,2S1424,171.16,1424.05,171.16ZM850.66,148.23a3.76,3.76,0,0,1,.57-.26c109.65-45.23,441.67-25.12,536.84-18.24,13,.94,24.27,8.12,29.65,18.5Zm480.93,328.9h0v0h-39.39l0,0,2-1.07c.07-.05.18-.09.26-.14h0L1292.3,477c-1.32.67-2.62,1.31-3.9,1.93q-3.11,1.51-6,2.86A245,245,0,0,1,1256.69,492a34.8,34.8,0,0,1-10.88,1.74H1003.12a47.48,47.48,0,0,1-15-2.41,157.81,157.81,0,0,1-22.52-9.51q-2.68-1.38-5.3-2.86t-5.1-3h339.2l.11,0-.07,0h36.61V456.48h0v0h.49ZM1393,415.68h-20c.33-.33.64-.67,1-1h0l0,0h18.47V395.79h0v-1h0v1h.48Zm40.65-61h0v0h-21.06c.16-.42.34-.82.5-1.23h0v0h20.13V333.73h0v-.23h0v.21h.36Zm13.44-61.48h0v0h-17.15c0-.32.08-.66.15-1h0v0h16.66V272.76h0v-.51h0v.49h.27Zm9.75-61.44h0v0h-24.32c0-.26,0-.53,0-.8h0v0h24.14V211.84h0V211h0v.81h.17Zm8.06-62.87h0v0h-41.17c-.05-.23-.11-.47-.18-.71h0v0h41.09V149.69h0v0h.2Z"/><path class="cls-3" d="M87,356.43h0v0h-1l.54,1.25h1C87.32,357.24,87.13,356.84,87,356.43Zm545.09,0c-.34,1-.68,1.91-1,2.87a312.59,312.59,0,0,1-15.22,35.47H110.47A230.06,230.06,0,0,1,90,359.28c-.44-.95-.88-1.91-1.31-2.87H87.34c.85,2,1.73,3.94,2.63,5.87a230.06,230.06,0,0,0,20.5,35.47H615.82A312.59,312.59,0,0,0,631,362.28c.71-1.95,1.4-3.9,2.07-5.87Zm16.16-61.24c-.17.95-.36,1.91-.54,2.86-2.28,11.73-5.06,23.63-8.39,35.47H79.82A248.9,248.9,0,0,1,71.07,298c-.16-.95-.32-1.9-.47-2.86h-.47c.3,2,.61,3.93.94,5.86a248.9,248.9,0,0,0,8.75,35.47H639.3c3.33-11.84,6.11-23.74,8.39-35.47.38-2,.75-3.92,1.12-5.86Zm.55-144.2c-2.28-.94-4.67-1.86-7.14-2.74H84.07a29.31,29.31,0,0,0-1.79,3H649.35A4.27,4.27,0,0,0,648.78,151ZM656,233.92c-.06,1-.12,1.91-.19,2.87C655,248,653.75,260,652,272.25H67.94c-.46-6.2-.75-12.55-.81-19.09,0-.84,0-1.68,0-2.53,0,1.86,0,3.7,0,5.53.06,6.54.35,12.89.81,19.09H652c1.73-12.29,3-24.21,3.78-35.46.14-2,.27-3.93.39-5.87ZM657,211H69.74c-.13,1-.25,2-.36,3H657c.06-2.47.09-4.9.09-7.26,0-.34,0-.67,0-1v-2C657.13,206.11,657.1,208.54,657,211Zm92-120.5a631.16,631.16,0,0,1-85.23-5.94c-27.06-3.7-54.21-12.18-81.6-12.18H69.75c-9.81,0-21.6-1.18-29.85,5.22-5.53,4.29-8.69,10.88-10.27,17.51-1.69,7-3.1,14.07-4.7,21.09-3.84,16.77-4.05,34.25-4.33,51.37-.07,3.87-.09,7.75-.08,11.63q0-4.32.08-8.63c.28-17.12.49-34.6,4.33-51.37,1.6-7,3-14.07,4.7-21.09,1.58-6.63,4.74-13.22,10.27-17.51,8.25-6.4,20-5.22,29.85-5.22H582.17c27.39,0,54.54,8.48,81.6,12.19A632.78,632.78,0,0,0,749,93.51h1v-3ZM716.91,297.35a11,11,0,0,0-6.56,2,6.32,6.32,0,0,0-2.71,4.95c0,3.83,4.15,7,9.27,7h20.51a38.89,38.89,0,0,1,4.13-.88c.27,0,.55-.09.82-.12l.93-.13c1.05-.13,2.1-.21,3.16-.26.84,0,1.69,0,2.54,0h1v-12.6Z"/><path class="cls-3" d="M1295.09,475.54h0l-.14.08.08,0,0,0c.91-.47,1.84-.95,2.78-1.47Zm-.55.3.07,0,.2-.11a.74.74,0,0,0,.13-.08l-.2.1Zm-.1.06.08,0-.11,0Z"/><path class="cls-3" d="M1392.5,395.77v18.89H1374l0,0-.92,1h20V395.77Zm40.77-62.06v19.7h-20.2v0c-.16.4-.34.8-.49,1.21h21.06V333.71Zm31.41-184v18.47h-41.14v0c.06.23.12.47.16.69h41.18V149.67ZM1446.8,272.74v19.43h-16.73v0c-.07.32-.11.66-.15,1h17.15V272.74Zm9.85-60.92v19.1h-24.2v0c0,.26,0,.53,0,.78h24.32v-19.9Z"/><path class="cls-3" d="M1331.1,456.46V475.9h-36.66s0,0,0,0-.19.09-.26.14l-2,1.07h39.4V456.46Z"/><path class="cls-3" d="M1294.43,475.9l0,0h0s0,0,0,0Zm36.63-19.42V475.9h0V456.48Zm-38.87,20.65,0,0h39.39v0Zm100.25-81.34v18.87h0V395.79ZM1373,415.68l.92-1h0c-.32.34-.63.68-1,1h0Zm60.17-81.95v19.68h0V333.73Zm-20.63,20.91c.15-.41.33-.81.49-1.21h0c-.16.41-.34.81-.5,1.23h21.06v0Zm34.16-81.88v19.41h0V272.76Zm-16.81,20.4c0-.31.08-.65.15-1h0c-.07.33-.1.67-.15,1H1447v0Zm26.67-81.32v19.08h0V211.84Zm-24.09,19.88c0-.25,0-.52,0-.78h0c0,.27,0,.54,0,.8h24.32v0Zm32.13-82v18.45h0V149.69Zm-40.93,19.16c0-.22-.1-.46-.16-.69h0c.07.24.13.48.18.71h41.17v0Z"/><path class="cls-3" d="M1479.41,167.58c-.28-17.12-.49-34.6-4.33-51.37-1.61-7-3-14.07-4.7-21.09-1.58-6.63-4.75-13.22-10.27-17.51-8.25-6.4-20-5.22-29.87-5.22H917.84c-27.4,0-54.54,8.48-81.6,12.18A631.42,631.42,0,0,1,751,90.51h-1V310h1q1.28,0,2.55,0c1.06.05,2.11.13,3.15.26l.93.13c.28,0,.55.07.82.12a37.86,37.86,0,0,1,4.13.88,49,49,0,0,1,14,6.27c.91.57,1.79,1.17,2.65,1.8a70.57,70.57,0,0,1,14.39,14.09,86,86,0,0,1,9.86,16.23c.57,1.21,1.12,2.45,1.63,3.68,1.28,3,2.45,6.12,3.53,9.21a313.11,313.11,0,0,0,12.88,32.13,202.71,202.71,0,0,0,10.9,19.91c.58.95,1.19,1.89,1.8,2.84A334.44,334.44,0,0,0,862.69,456a209.49,209.49,0,0,0,19.6,19.91,167.75,167.75,0,0,0,27.15,19.67c26.63,15.39,51.1,27,81.5,31.79h131.43c44.41,0,89.08,2.72,132.67-7.29,2.42-.55,4.84-1.15,7.25-1.78,24.58-6.56,44.5-20.44,64.36-35.29.54-.42,1.08-.82,1.64-1.23.71-.55,1.44-1.09,2.16-1.62l0,0,.63-.47.26-.2.19-.15,0,0c22.58-17,45.1-34.36,64.48-55,26.51-28.19,50.28-58.91,62.18-95.83a373.3,373.3,0,0,0,10.13-38.11c1.85-8.75,3.45-17.58,4.79-26.4a555.55,555.55,0,0,0,6-67.64q.25-7.85.28-15.7v-1.48C1479.49,175.28,1479.47,171.43,1479.41,167.58Zm-184.33,308h0l2.75-1.44c-.94.52-1.87,1-2.78,1.47Zm-.14.08a.74.74,0,0,1-.13.08l-.2.11-.07,0,.2-.11ZM851.19,292.17h578.68c-.15,1-.3,2-.46,3s-.31,1.91-.47,2.86a248.9,248.9,0,0,1-8.75,35.47H860.71c-3.33-11.84-6.11-23.74-8.4-35.47-.18-.95-.37-1.91-.54-2.86S851.38,293.17,851.19,292.17Zm517.34,128.35a261.1,261.1,0,0,1-41.1,35.47H929.11a198.18,198.18,0,0,1-29.9-35.47c-.63-.95-1.26-1.9-1.87-2.86s-1.29-2-1.92-3h478.44c-.89,1-1.78,2-2.68,3S1369.42,419.58,1368.53,420.52ZM1410,359.28a230.06,230.06,0,0,1-20.5,35.47H884.19A310.79,310.79,0,0,1,869,359.28c-.35-1-.7-1.91-1-2.87s-.7-2-1-3h545.77q-.64,1.51-1.32,3C1410.92,357.37,1410.48,358.33,1410,359.28Zm22.46-125.34c0,.26,0,.52,0,.78v0l.09,2c0,.26,0,.54,0,.81q.27,7,.23,13.68c0,.63,0,1.26,0,1.88-.07,6.54-.35,12.89-.81,19.09H848c-1.74-12.29-3-24.21-3.78-35.46-.07-1-.13-1.92-.19-2.87s-.14-2-.2-3h588.52c.06,1,.11,2,.16,3Zm-8.45-62.78c0,.23.1.46.14.69v0l.45,2.14c0,.24.09.47.15.71q3.87,18.84,5.83,36.29H843c-.06-2.47-.09-4.9-.1-7.26v-1.44a325.53,325.53,0,0,1,1.44-34.17h579.07c.06.24.1.46.16.69s.06.22.08.33l.42,2S1424,171.16,1424.05,171.16ZM850.66,148.23a3.76,3.76,0,0,1,.57-.26c109.65-45.23,441.67-25.12,536.84-18.24,13,.94,24.27,8.12,29.65,18.5Zm480.93,328.9h0v0h-39.39l0,0,2-1.07c.07-.05.18-.09.26-.14h0L1292.3,477c-1.32.67-2.62,1.31-3.9,1.93q-3.11,1.51-6,2.86A245,245,0,0,1,1256.69,492a34.8,34.8,0,0,1-10.88,1.74H1003.12a47.48,47.48,0,0,1-15-2.41,157.81,157.81,0,0,1-22.52-9.51q-2.68-1.38-5.3-2.86t-5.1-3h339.2l.11,0-.07,0h36.61V456.48h0v0h.49ZM1393,415.68h-20c.33-.33.64-.67,1-1h0l0,0h18.47V395.79h0v-1h0v1h.48Zm40.65-61h0v0h-21.06c.16-.42.34-.82.5-1.23h0v0h20.13V333.73h0v-.23h0v.21h.36Zm13.44-61.48h0v0h-17.15c0-.32.08-.66.15-1h0v0h16.66V272.76h0v-.51h0v.49h.27Zm9.75-61.44h0v0h-24.32c0-.26,0-.53,0-.8h0v0h24.14V211.84h0V211h0v.81h.17Zm8.06-62.87h0v0h-41.17c-.05-.23-.11-.47-.18-.71h0v0h41.09V149.69h0v0h.2Z"/><path class="cls-3" d="M87,356.43h0v0h-1l.54,1.25h1C87.32,357.24,87.13,356.84,87,356.43Zm545.09,0c-.34,1-.68,1.91-1,2.87a312.59,312.59,0,0,1-15.22,35.47H110.47A230.06,230.06,0,0,1,90,359.28c-.44-.95-.88-1.91-1.31-2.87H87.34c.85,2,1.73,3.94,2.63,5.87a230.06,230.06,0,0,0,20.5,35.47H615.82A312.59,312.59,0,0,0,631,362.28c.71-1.95,1.4-3.9,2.07-5.87Zm16.16-61.24c-.17.95-.36,1.91-.54,2.86-2.28,11.73-5.06,23.63-8.39,35.47H79.82A248.9,248.9,0,0,1,71.07,298c-.16-.95-.32-1.9-.47-2.86h-.47c.3,2,.61,3.93.94,5.86a248.9,248.9,0,0,0,8.75,35.47H639.3c3.33-11.84,6.11-23.74,8.39-35.47.38-2,.75-3.92,1.12-5.86Zm.55-144.2c-2.28-.94-4.67-1.86-7.14-2.74H84.07a29.31,29.31,0,0,0-1.79,3H649.35A4.27,4.27,0,0,0,648.78,151ZM656,233.92c-.06,1-.12,1.91-.19,2.87C655,248,653.75,260,652,272.25H67.94c-.46-6.2-.75-12.55-.81-19.09,0-.84,0-1.68,0-2.53,0,1.86,0,3.7,0,5.53.06,6.54.35,12.89.81,19.09H652c1.73-12.29,3-24.21,3.78-35.46.14-2,.27-3.93.39-5.87ZM657,211H69.74c-.13,1-.25,2-.36,3H657c.06-2.47.09-4.9.09-7.26,0-.34,0-.67,0-1v-2C657.13,206.11,657.1,208.54,657,211Zm92-120.5a631.16,631.16,0,0,1-85.23-5.94c-27.06-3.7-54.21-12.18-81.6-12.18H69.75c-9.81,0-21.6-1.18-29.85,5.22-5.53,4.29-8.69,10.88-10.27,17.51-1.69,7-3.1,14.07-4.7,21.09-3.84,16.77-4.05,34.25-4.33,51.37-.07,3.87-.09,7.75-.08,11.63q0-4.32.08-8.63c.28-17.12.49-34.6,4.33-51.37,1.6-7,3-14.07,4.7-21.09,1.58-6.63,4.74-13.22,10.27-17.51,8.25-6.4,20-5.22,29.85-5.22H582.17c27.39,0,54.54,8.48,81.6,12.19A632.78,632.78,0,0,0,749,93.51h1v-3ZM716.91,297.35a11,11,0,0,0-6.56,2,6.32,6.32,0,0,0-2.71,4.95c0,3.83,4.15,7,9.27,7h20.51a38.89,38.89,0,0,1,4.13-.88c.27,0,.55-.09.82-.12l.93-.13c1.05-.13,2.1-.21,3.16-.26.84,0,1.69,0,2.54,0h1v-12.6Z"/><path class="cls-3" d="M710.35,299.39a11,11,0,0,1,6.56-2H750V93.51h-1a632.78,632.78,0,0,1-85.23-5.93c-27.06-3.71-54.21-12.19-81.6-12.19H69.75c-9.81,0-21.6-1.18-29.85,5.22-5.53,4.29-8.69,10.88-10.27,17.51-1.69,7-3.1,14.07-4.7,21.09-3.84,16.77-4.05,34.25-4.33,51.37q-.08,4.3-.08,8.63v1.42q0,7.85.28,15.7a557.57,557.57,0,0,0,6,67.64c1.34,8.82,2.93,17.65,4.78,26.4a375.91,375.91,0,0,0,10.13,38.11c11.91,36.92,35.68,67.64,62.19,95.83,19.38,20.61,41.9,38,64.48,55l.23.18.26.2.65.49,2.16,1.62,1.64,1.23c19.86,14.85,39.77,28.73,64.36,35.29,2.41.63,4.82,1.23,7.25,1.78,43.58,10,88.26,7.29,132.66,7.29H509.07c30.4-4.8,54.86-16.4,81.49-31.79a167.83,167.83,0,0,0,27.16-19.67A209.49,209.49,0,0,0,637.32,456a335.62,335.62,0,0,0,28.42-38.49c.61-.95,1.22-1.89,1.8-2.84a200.51,200.51,0,0,0,10.89-19.91,313.13,313.13,0,0,0,12.89-32.13c1.08-3.09,2.24-6.18,3.53-9.21.51-1.23,1.06-2.47,1.63-3.68a85.48,85.48,0,0,1,9.86-16.23,70.32,70.32,0,0,1,14.39-14.09q1.29-.95,2.64-1.8a49,49,0,0,1,14-6.27H716.91c-5.12,0-9.27-3.17-9.27-7A6.32,6.32,0,0,1,710.35,299.39ZM82.28,148.23c5.39-10.38,16.65-17.56,29.66-18.5,95.17-6.88,427.19-27,536.84,18.24a4.27,4.27,0,0,1,.57.26h-7.71c2.47.88,4.86,1.8,7.14,2.74a4.27,4.27,0,0,1,.57.26H82.28a29.31,29.31,0,0,1,1.79-3Zm4.17,209.43-.54-1.25h1v0h0c.15.41.34.81.5,1.23Zm21.07,38.44,0,0a2.75,2.75,0,0,1-.19-.28s0,0,0,0h.2v0h0ZM539.7,478.91q-2.61,1.48-5.3,2.86a157.46,157.46,0,0,1-22.53,9.51,47.43,47.43,0,0,1-15,2.41H254.19A34.84,34.84,0,0,1,243.31,492a246.73,246.73,0,0,1-25.68-10.18q-2.91-1.35-6-2.86c-1.28-.62-2.58-1.26-3.9-1.93l-2.09-1.06h0l0,0h0l-.08,0-.07,0-.21-.11-.13-.08-.07,0-.05,0c-.91-.47-1.83-.95-2.77-1.47.93.49,1.83,1,2.75,1.44h0l.56.3.11,0H544.8Q542.28,477.46,539.7,478.91Zm63-61.25c-.61,1-1.24,1.91-1.87,2.86A198.6,198.6,0,0,1,570.9,456H172.57a260.6,260.6,0,0,1-41.09-35.47c-.89-.94-1.77-1.9-2.65-2.86s-1.79-2-2.68-3H604.59Q603.65,416.16,602.67,417.66Zm30.44-61.25c-.67,2-1.36,3.92-2.07,5.87a312.59,312.59,0,0,1-15.22,35.47H110.47A230.06,230.06,0,0,1,90,362.28c-.9-1.93-1.78-3.88-2.63-5.87h1.32q-.68-1.49-1.32-3H633.11c-.34,1-.69,2-1,3Zm15.7-61.24c-.37,1.94-.74,3.9-1.12,5.86-2.28,11.73-5.06,23.63-8.39,35.47H79.82A248.9,248.9,0,0,1,71.07,301c-.33-1.93-.64-3.89-.94-5.86h.47c-.16-1-.32-2-.47-3H648.81c-.19,1-.38,2-.58,3Zm7.38-61.25c-.12,1.94-.25,3.89-.39,5.87C655,251,653.75,263,652,275.25H67.94c-.46-6.2-.75-12.55-.81-19.09,0-1.83,0-3.67,0-5.53q0-6.4.23-13l0-.81.09-2c0-.27,0-.55,0-.82,0-1,.1-2,.16-3H656.19c-.06,1-.13,2-.2,3Zm.94-31.81v.54q0,1.53,0,3.09c0,.34,0,.67,0,1,0,2.36,0,4.79-.09,7.26H69.38c.11-1,.23-2,.36-3h-.36q2-17.44,5.83-36.29c0-.24.1-.47.15-.71l.45-2.14.15-.73.42-2,.09-.33.15-.69H655.69A322,322,0,0,1,657.13,202.11Z"/><path class="cls-7" d="M770.67,290.41v19.18H729.5c0-.24-.11-.47-.17-.71h41.14V290.41Z"/><path class="cls-7" d="M762.18,290.05V310H737.87c0-.26,0-.53,0-.8H762v-19.1Z"/><path class="cls-7" d="M758.57,289.79v20.42H741.43c0-.32.08-.66.14-1h16.71V289.79Z"/><path class="cls-7" d="M760.53,289.54v20.92H739.47c.16-.41.34-.82.5-1.22h20.18v-19.7Z"/><path class="cls-7" d="M760,290.05V310H740c.32-.33.63-.67,1-1h18.51V290.05Z"/><path class="cls-7" d="M751.39,299.26c-.94.53-1.86,1-2.78,1.48l0,0a0,0,0,0,1,0,0Z"/><path class="cls-7" d="M769.7,289.66v20.68H730.3l0,0c.66-.35,1.3-.71,2-1.07l.27-.14h36.64V289.66Z"/><path class="cls-3" d="M750.35,299.82l-.13.07.11-.05.35-.19Zm-1.37.71a0,0,0,0,0,0,0l-.06,0,0,0,1-.55h0Zm-.36.2h0l.09,0,.14-.08.07,0-.27.14Zm-.35.18h0l0,0h0a.51.51,0,0,1,.16-.09.53.53,0,0,0,.1-.06l-.31.15Z"/><g class="cls-1"><path class="cls-8" d="M797.31,306.39c-1.37,1.36-3.53,1.64-5.85,1.24a18.45,18.45,0,0,1-7.26-3.13,60,60,0,0,0-68.4,0c-4.67,3.21-10.31,4.52-13.11,1.89-1.37-1.35-1.62-3.59-.75-6.11a15.81,15.81,0,0,1,5.88-7.27,74,74,0,0,1,84.36,0C798.16,297.17,800.13,303.77,797.31,306.39Z"/></g></svg>