<svg id="Layer_1" data-name="Layer 1" xmlns="http://www.w3.org/2000/svg" xmlns:xlink="http://www.w3.org/1999/xlink" width="714.07" height="948.09" viewBox="0 0 714.07 948.09"><defs><style>.cls-1,.cls-10,.cls-11,.cls-12,.cls-14,.cls-17,.cls-18,.cls-19,.cls-20,.cls-7{fill:none;}.cls-2{fill:#333;}.cls-3{fill:#d83582;}.cls-4{opacity:0.2;}.cls-5{clip-path:url(#clip-path);}.cls-6{fill:#2e3192;}.cls-7{stroke:#ffd732;}.cls-10,.cls-11,.cls-12,.cls-14,.cls-7{stroke-linecap:round;stroke-linejoin:round;}.cls-10,.cls-7{stroke-width:10.86px;}.cls-8{fill:#ffd732;}.cls-9{fill:#fff;}.cls-10,.cls-12{stroke:#fff;}.cls-11,.cls-14{stroke:#00b8f1;}.cls-11,.cls-12{stroke-width:7.16px;}.cls-13{fill:#00b8f1;}.cls-14{stroke-width:5.74px;}.cls-15{fill:#231f20;}.cls-16{fill:#e40087;}.cls-17,.cls-19{stroke:#333;}.cls-17,.cls-18,.cls-19,.cls-20{stroke-miterlimit:10;}.cls-17,.cls-18{stroke-width:10px;}.cls-18,.cls-20{stroke:#6ae582;}.cls-19,.cls-20{stroke-width:7px;}</style><clipPath id="clip-path"><polygon class="cls-1" points="630.86 156.75 630.86 902.96 65.1 868.93 65.1 122.72 630.86 156.75"/></clipPath></defs><title>HighScore</title><polygon class="cls-2" points="646.71 179.09 646.71 925.3 80.94 891.28 80.94 145.06 646.71 179.09"/><polygon class="cls-3" points="630.86 156.75 630.86 902.96 65.1 868.93 65.1 122.72 630.86 156.75"/><g class="cls-4"><g class="cls-5"><ellipse class="cls-6" cx="579.41" cy="629.92" rx="274.68" ry="190.42"/><ellipse class="cls-7" cx="184.87" cy="243.95" rx="192.65" ry="194.88"/><ellipse class="cls-8" cx="298.71" cy="189.18" rx="4.24" ry="4.28"/><ellipse class="cls-8" cx="318.67" cy="168.98" rx="4.24" ry="4.28"/><ellipse class="cls-8" cx="278.75" cy="209.37" rx="4.24" ry="4.28"/><ellipse class="cls-8" cx="338.64" cy="148.79" rx="4.24" ry="4.28"/><ellipse class="cls-8" cx="358.6" cy="128.59" rx="4.24" ry="4.28"/><ellipse class="cls-8" cx="378.57" cy="108.4" rx="4.24" ry="4.28"/><ellipse class="cls-8" cx="398.53" cy="88.2" rx="4.24" ry="4.28"/><ellipse class="cls-8" cx="418.5" cy="68.01" rx="4.24" ry="4.28"/><ellipse class="cls-8" cx="438.46" cy="47.81" rx="4.24" ry="4.28"/><ellipse class="cls-8" cx="318.67" cy="209.37" rx="4.24" ry="4.28"/><ellipse class="cls-8" cx="338.64" cy="189.18" rx="4.24" ry="4.28"/><ellipse class="cls-8" cx="298.71" cy="229.57" rx="4.24" ry="4.28"/><ellipse class="cls-8" cx="358.6" cy="168.98" rx="4.24" ry="4.28"/><ellipse class="cls-8" cx="378.57" cy="148.79" rx="4.24" ry="4.28"/><ellipse class="cls-8" cx="398.53" cy="128.59" rx="4.24" ry="4.28"/><ellipse class="cls-8" cx="418.5" cy="108.4" rx="4.24" ry="4.28"/><ellipse class="cls-8" cx="438.46" cy="88.2" rx="4.24" ry="4.28"/><ellipse class="cls-8" cx="458.43" cy="68.01" rx="4.24" ry="4.28"/><ellipse class="cls-8" cx="478.39" cy="47.81" rx="4.24" ry="4.28"/><ellipse class="cls-8" cx="338.64" cy="229.57" rx="4.24" ry="4.28"/><ellipse class="cls-8" cx="358.6" cy="209.37" rx="4.24" ry="4.28"/><ellipse class="cls-8" cx="318.67" cy="249.76" rx="4.24" ry="4.28"/><ellipse class="cls-8" cx="378.57" cy="189.18" rx="4.24" ry="4.28"/><ellipse class="cls-8" cx="398.53" cy="168.98" rx="4.24" ry="4.28"/><ellipse class="cls-8" cx="418.5" cy="148.79" rx="4.24" ry="4.28"/><ellipse class="cls-8" cx="438.46" cy="128.59" rx="4.24" ry="4.28"/><ellipse class="cls-8" cx="458.43" cy="108.4" rx="4.24" ry="4.28"/><ellipse class="cls-8" cx="478.39" cy="88.2" rx="4.24" ry="4.28"/><ellipse class="cls-8" cx="498.36" cy="68.01" rx="4.24" ry="4.28"/><ellipse class="cls-8" cx="518.32" cy="47.81" rx="4.24" ry="4.28"/><ellipse class="cls-8" cx="358.6" cy="249.76" rx="4.24" ry="4.28"/><ellipse class="cls-8" cx="378.57" cy="229.57" rx="4.24" ry="4.28"/><ellipse class="cls-8" cx="338.64" cy="269.96" rx="4.24" ry="4.28"/><ellipse class="cls-8" cx="398.53" cy="209.37" rx="4.24" ry="4.28"/><ellipse class="cls-8" cx="418.5" cy="189.18" rx="4.24" ry="4.28"/><ellipse class="cls-8" cx="438.46" cy="168.98" rx="4.24" ry="4.28"/><ellipse class="cls-8" cx="458.43" cy="148.79" rx="4.24" ry="4.28"/><ellipse class="cls-8" cx="478.39" cy="128.59" rx="4.24" ry="4.28"/><ellipse class="cls-8" cx="498.36" cy="108.4" rx="4.24" ry="4.28"/><ellipse class="cls-8" cx="518.32" cy="88.2" rx="4.24" ry="4.28"/><ellipse class="cls-8" cx="538.28" cy="68.01" rx="4.24" ry="4.28"/><ellipse class="cls-8" cx="558.25" cy="47.81" rx="4.24" ry="4.28"/><ellipse class="cls-8" cx="378.57" cy="269.96" rx="4.24" ry="4.28"/><ellipse class="cls-8" cx="398.53" cy="249.76" rx="4.24" ry="4.28"/><ellipse class="cls-8" cx="358.6" cy="290.16" rx="4.24" ry="4.28"/><ellipse class="cls-8" cx="418.5" cy="229.57" rx="4.24" ry="4.28"/><ellipse class="cls-8" cx="438.46" cy="209.37" rx="4.24" ry="4.28"/><ellipse class="cls-8" cx="458.43" cy="189.18" rx="4.24" ry="4.28"/><ellipse class="cls-8" cx="478.39" cy="168.98" rx="4.24" ry="4.28"/><ellipse class="cls-8" cx="498.36" cy="148.79" rx="4.24" ry="4.28"/><ellipse class="cls-8" cx="518.32" cy="128.59" rx="4.24" ry="4.28"/><ellipse class="cls-8" cx="538.28" cy="108.4" rx="4.24" ry="4.28"/><ellipse class="cls-8" cx="558.25" cy="88.2" rx="4.24" ry="4.28"/><ellipse class="cls-8" cx="578.21" cy="68.01" rx="4.24" ry="4.28"/><ellipse class="cls-8" cx="398.53" cy="290.16" rx="4.24" ry="4.28"/><ellipse class="cls-8" cx="418.5" cy="269.96" rx="4.24" ry="4.28"/><ellipse class="cls-8" cx="378.57" cy="310.35" rx="4.24" ry="4.28"/><ellipse class="cls-8" cx="438.46" cy="249.76" rx="4.24" ry="4.28"/><ellipse class="cls-8" cx="458.43" cy="229.57" rx="4.24" ry="4.28"/><ellipse class="cls-8" cx="478.39" cy="209.37" rx="4.24" ry="4.28"/><ellipse class="cls-8" cx="498.36" cy="189.18" rx="4.24" ry="4.28"/><ellipse class="cls-8" cx="518.32" cy="168.98" rx="4.24" ry="4.28"/><ellipse class="cls-8" cx="538.28" cy="148.79" rx="4.24" ry="4.28"/><ellipse class="cls-8" cx="558.25" cy="128.59" rx="4.24" ry="4.28"/><ellipse class="cls-8" cx="578.21" cy="108.4" rx="4.24" ry="4.28"/><ellipse class="cls-8" cx="598.18" cy="88.2" rx="4.24" ry="4.28"/><ellipse class="cls-8" cx="418.5" cy="310.35" rx="4.24" ry="4.28"/><ellipse class="cls-8" cx="438.46" cy="290.16" rx="4.24" ry="4.28"/><ellipse class="cls-8" cx="398.53" cy="330.55" rx="4.24" ry="4.28"/><ellipse class="cls-8" cx="458.43" cy="269.96" rx="4.24" ry="4.28"/><ellipse class="cls-8" cx="478.39" cy="249.76" rx="4.24" ry="4.28"/><ellipse class="cls-8" cx="498.36" cy="229.57" rx="4.24" ry="4.28"/><ellipse class="cls-8" cx="518.32" cy="209.37" rx="4.24" ry="4.28"/><ellipse class="cls-8" cx="538.28" cy="189.18" rx="4.24" ry="4.28"/><ellipse class="cls-8" cx="558.25" cy="168.98" rx="4.24" ry="4.28"/><ellipse class="cls-8" cx="578.21" cy="148.79" rx="4.24" ry="4.28"/><ellipse class="cls-8" cx="598.18" cy="128.59" rx="4.24" ry="4.28"/><ellipse class="cls-8" cx="618.14" cy="108.4" rx="4.24" ry="4.28"/><ellipse class="cls-8" cx="438.46" cy="330.55" rx="4.24" ry="4.28"/><ellipse class="cls-8" cx="458.43" cy="310.35" rx="4.24" ry="4.28"/><ellipse class="cls-8" cx="418.5" cy="350.74" rx="4.24" ry="4.28"/><ellipse class="cls-8" cx="478.39" cy="290.16" rx="4.24" ry="4.28"/><ellipse class="cls-8" cx="498.36" cy="269.96" rx="4.24" ry="4.28"/><ellipse class="cls-8" cx="518.32" cy="249.76" rx="4.24" ry="4.28"/><ellipse class="cls-8" cx="538.28" cy="229.57" rx="4.24" ry="4.28"/><ellipse class="cls-8" cx="558.25" cy="209.37" rx="4.24" ry="4.28"/><ellipse class="cls-8" cx="578.21" cy="189.18" rx="4.24" ry="4.28"/><ellipse class="cls-8" cx="598.18" cy="168.98" rx="4.24" ry="4.28"/><ellipse class="cls-8" cx="618.14" cy="148.79" rx="4.24" ry="4.28"/><ellipse class="cls-8" cx="638.11" cy="128.59" rx="4.24" ry="4.28"/><ellipse class="cls-8" cx="458.43" cy="350.74" rx="4.24" ry="4.28"/><ellipse class="cls-8" cx="478.39" cy="330.55" rx="4.24" ry="4.28"/><ellipse class="cls-8" cx="438.46" cy="370.94" rx="4.24" ry="4.28"/><ellipse class="cls-8" cx="498.36" cy="310.35" rx="4.24" ry="4.28"/><ellipse class="cls-8" cx="518.32" cy="290.16" rx="4.24" ry="4.28"/><ellipse class="cls-8" cx="538.28" cy="269.96" rx="4.24" ry="4.28"/><ellipse class="cls-8" cx="558.25" cy="249.76" rx="4.24" ry="4.28"/><ellipse class="cls-8" cx="578.21" cy="229.57" rx="4.24" ry="4.28"/><ellipse class="cls-8" cx="598.18" cy="209.37" rx="4.24" ry="4.28"/><ellipse class="cls-8" cx="618.14" cy="189.18" rx="4.24" ry="4.28"/><ellipse class="cls-8" cx="638.11" cy="168.98" rx="4.24" ry="4.28"/><ellipse class="cls-8" cx="658.07" cy="148.79" rx="4.24" ry="4.28"/><ellipse class="cls-8" cx="478.39" cy="370.94" rx="4.24" ry="4.28"/><ellipse class="cls-8" cx="498.36" cy="350.74" rx="4.24" ry="4.28"/><ellipse class="cls-8" cx="458.43" cy="391.13" rx="4.24" ry="4.28"/><ellipse class="cls-8" cx="518.32" cy="330.55" rx="4.24" ry="4.28"/><ellipse class="cls-8" cx="538.28" cy="310.35" rx="4.24" ry="4.28"/><ellipse class="cls-8" cx="558.25" cy="290.16" rx="4.24" ry="4.28"/><ellipse class="cls-8" cx="578.21" cy="269.96" rx="4.24" ry="4.28"/><ellipse class="cls-8" cx="598.18" cy="249.76" rx="4.24" ry="4.28"/><ellipse class="cls-8" cx="618.14" cy="229.57" rx="4.24" ry="4.28"/><ellipse class="cls-8" cx="638.11" cy="209.37" rx="4.24" ry="4.28"/><ellipse class="cls-8" cx="658.07" cy="189.18" rx="4.24" ry="4.28"/><ellipse class="cls-8" cx="678.04" cy="168.98" rx="4.24" ry="4.28"/><ellipse class="cls-8" cx="498.36" cy="391.13" rx="4.24" ry="4.28"/><ellipse class="cls-8" cx="518.32" cy="370.94" rx="4.24" ry="4.28"/><ellipse class="cls-8" cx="478.39" cy="411.33" rx="4.24" ry="4.28"/><ellipse class="cls-8" cx="538.28" cy="350.74" rx="4.24" ry="4.28"/><ellipse class="cls-8" cx="558.25" cy="330.55" rx="4.24" ry="4.28"/><ellipse class="cls-8" cx="578.21" cy="310.35" rx="4.24" ry="4.28"/><ellipse class="cls-8" cx="598.18" cy="290.16" rx="4.24" ry="4.28"/><ellipse class="cls-8" cx="618.14" cy="269.96" rx="4.24" ry="4.28"/><ellipse class="cls-8" cx="638.11" cy="249.76" rx="4.24" ry="4.28"/><ellipse class="cls-8" cx="658.07" cy="229.57" rx="4.24" ry="4.28"/><ellipse class="cls-8" cx="678.04" cy="209.37" rx="4.24" ry="4.28"/><ellipse class="cls-8" cx="698" cy="189.18" rx="4.24" ry="4.28"/><ellipse class="cls-8" cx="518.32" cy="411.33" rx="4.24" ry="4.28"/><ellipse class="cls-8" cx="538.28" cy="391.13" rx="4.24" ry="4.28"/><ellipse class="cls-8" cx="498.36" cy="431.52" rx="4.24" ry="4.28"/><ellipse class="cls-8" cx="558.25" cy="370.94" rx="4.24" ry="4.28"/><ellipse class="cls-8" cx="578.21" cy="350.74" rx="4.24" ry="4.28"/><ellipse class="cls-8" cx="598.18" cy="330.55" rx="4.24" ry="4.28"/><ellipse class="cls-8" cx="618.14" cy="310.35" rx="4.24" ry="4.28"/><ellipse class="cls-8" cx="638.11" cy="290.16" rx="4.24" ry="4.28"/><ellipse class="cls-8" cx="658.07" cy="269.96" rx="4.24" ry="4.28"/><ellipse class="cls-8" cx="678.04" cy="249.76" rx="4.24" ry="4.28"/><ellipse class="cls-8" cx="698" cy="229.57" rx="4.24" ry="4.28"/><ellipse class="cls-8" cx="717.97" cy="209.37" rx="4.24" ry="4.28"/><ellipse class="cls-8" cx="327.78" cy="660.4" rx="22.44" ry="22.7"/><ellipse class="cls-9" cx="345.92" cy="505.88" rx="22.44" ry="22.7"/><ellipse class="cls-10" cx="98.46" cy="757.37" rx="192.65" ry="194.88"/><path class="cls-11" d="M183.38,380.93,151,479.32,86.12,413.73Z"/><path class="cls-12" d="M178.14,354.44l-32.42,98.39L80.88,387.24Z"/><path class="cls-9" d="M692.32,559.46a39.58,39.58,0,0,1-15.57,10.16,36.46,36.46,0,0,0-14.56,9.48,37.07,37.07,0,0,0-9.38,14.73,40.09,40.09,0,0,1-10,15.75,39.63,39.63,0,0,1-15.57,10.16,36.48,36.48,0,0,0-14.56,9.48,37.07,37.07,0,0,0-9.37,14.72,40.07,40.07,0,0,1-10,15.75,39.46,39.46,0,0,1-15.57,10.16,36.39,36.39,0,0,0-14.56,9.49,37.11,37.11,0,0,0-9.38,14.72,40,40,0,0,1-10,15.75A39.4,39.4,0,0,1,528.11,720a36.46,36.46,0,0,0-14.56,9.49,37.07,37.07,0,0,0-9.37,14.72,40.12,40.12,0,0,1-10.05,15.75,39.56,39.56,0,0,1-15.57,10.17A36.35,36.35,0,0,0,464,779.58l-4.63-4.68A39.53,39.53,0,0,1,475,764.74a36.44,36.44,0,0,0,14.55-9.49,37,37,0,0,0,9.38-14.72,40,40,0,0,1,10.05-15.75,39.56,39.56,0,0,1,15.57-10.17,36.39,36.39,0,0,0,14.55-9.48,37,37,0,0,0,9.38-14.72,40,40,0,0,1,10-15.75A39.46,39.46,0,0,1,574,664.5,36.5,36.5,0,0,0,588.6,655,37.07,37.07,0,0,0,598,640.29a40.19,40.19,0,0,1,10-15.75,39.51,39.51,0,0,1,15.57-10.16,36.5,36.5,0,0,0,14.55-9.48,37,37,0,0,0,9.38-14.73,40.09,40.09,0,0,1,10-15.75,39.58,39.58,0,0,1,15.57-10.16,36.46,36.46,0,0,0,14.56-9.48Z"/><path class="cls-13" d="M140.64,672.67h30.87V641.45h21.81v31.22h30.87v22.07H193.32V726H171.51V694.74H140.64Z"/><path class="cls-14" d="M490.41,621.18,369.69,743.29"/><path class="cls-14" d="M528.83,613.4,408.11,735.52"/></g></g><path class="cls-15" d="M251.16,75.61,240.43,157.7l44.1,3.12L307.83,80l-56.64-4.4Z"/><path class="cls-15" d="M171.23,163.38l63.61,6.72,8.37-82.59h-72Z"/><path class="cls-15" d="M102.61,103.05,165,95v77.83L100,185.71Z"/><path class="cls-15" d="M30,169.7l66.65-11.93L95.43,84.06,36.21,79.87,30,169.7Z"/><path class="cls-15" d="M556.14,75.61,545.41,157.7l44.11,3.12L612.81,80l-56.64-4.4Z"/><path class="cls-15" d="M476.21,163.38l63.61,6.72,8.37-82.59h-72Z"/><path class="cls-15" d="M407.59,103.05,470,95v77.83L405,185.71Z"/><path class="cls-15" d="M335,169.7l66.65-11.93-1.24-73.71L341.2,79.87,335,169.7Z"/><path class="cls-15" d="M660.1,188.23l15.09-88.74-58.5-10.17-18.53,71.3,61.94,27.61Z"/><path class="cls-13" d="M92.83,162.3h-12V137H57.36v25.3h-12v-59h12v23.92H80.81V103.26h12Z"/><path class="cls-8" d="M133.63,176.32h-12v-59h12Z"/><path class="cls-16" d="M230.35,145.24a20.78,20.78,0,0,1-9.18,6.11A38.13,38.13,0,0,1,208,153.51a25.8,25.8,0,0,1-13.29-3.34,22.22,22.22,0,0,1-8.82-9.71,34.63,34.63,0,0,1-3.19-15v-4a36.54,36.54,0,0,1,3-15.3,22,22,0,0,1,8.5-9.9,24.27,24.27,0,0,1,13-3.42q10.38,0,16.24,5t6.93,14.58h-11.7q-.81-5.07-3.55-7.42t-7.56-2.35a10.6,10.6,0,0,0-9.33,4.66Q195,112,195,121.2V125q0,9.28,3.49,14t10.22,4.74q6.77,0,9.66-2.92V130.65h-11v-9h23Z"/><path class="cls-13" d="M302.18,153.44h-12v-25.3H266.71v25.3h-12v-59h12v23.92h23.45V94.41h12Z"/><path class="cls-16" d="M375.32,138a6.26,6.26,0,0,0-2.41-5.29q-2.4-1.84-8.66-3.89a61.51,61.51,0,0,1-9.9-4q-9.93-5.43-9.94-14.63a14.37,14.37,0,0,1,2.67-8.54,17.46,17.46,0,0,1,7.66-5.86,28.59,28.59,0,0,1,11.2-2.11,25.91,25.91,0,0,1,11.14,2.3,17.81,17.81,0,0,1,7.6,6.46,17.12,17.12,0,0,1,2.7,9.49h-12a8,8,0,0,0-2.53-6.3,10.3,10.3,0,0,0-7.09-2.26,11,11,0,0,0-6.86,1.89,6,6,0,0,0-2.44,5A5.7,5.7,0,0,0,359.3,115a32,32,0,0,0,8.44,3.65q10.26,3.12,14.95,7.75a15.49,15.49,0,0,1,4.69,11.51,14.26,14.26,0,0,1-5.73,12q-5.73,4.37-15.43,4.36A29.57,29.57,0,0,1,354,151.76a19.43,19.43,0,0,1-8.43-6.83,17.66,17.66,0,0,1-2.91-10.06h12.06q0,9.78,11.55,9.77a11.15,11.15,0,0,0,6.69-1.76A5.76,5.76,0,0,0,375.32,138Z"/><path class="cls-13" d="M457.13,147.8q-.67,9.52-6.95,15t-16.53,5.48q-11.23,0-17.66-7.65t-6.43-21V136a35.66,35.66,0,0,1,3-15,22.43,22.43,0,0,1,8.48-10,23.53,23.53,0,0,1,12.81-3.46q10.1,0,16.27,5.47t7.13,15.37h-12c-.29-3.81-1.34-6.58-3.15-8.29s-4.55-2.58-8.23-2.58q-6,0-9,4.36t-3.07,13.52v4.46q0,9.57,2.87,14t9,4.42q5.57,0,8.31-2.57t3.15-8Z"/><path class="cls-8" d="M532.67,131.9a35.85,35.85,0,0,1-3,15.29,23.12,23.12,0,0,1-8.71,10.14,25.57,25.57,0,0,1-26,0,23.39,23.39,0,0,1-8.82-10.08A34.88,34.88,0,0,1,483,132.23v-2.92a35.84,35.84,0,0,1,3.1-15.35,23.35,23.35,0,0,1,8.78-10.18,25.53,25.53,0,0,1,25.94,0A23.33,23.33,0,0,1,529.56,114a35.57,35.57,0,0,1,3.11,15.31Zm-12.18-2.67q0-9.28-3.29-14.11a11.53,11.53,0,0,0-18.72-.06q-3.28,4.75-3.33,14v2.87q0,9,3.29,14a11.44,11.44,0,0,0,18.76.19q3.24-4.81,3.29-14Z"/><path class="cls-16" d="M579.07,128.88h-9.58v21.61h-12v-59h21.69q10.33,0,16,4.67t5.61,13.17a18.36,18.36,0,0,1-2.58,10.08,17.76,17.76,0,0,1-7.84,6.43l12.63,24.12v.57H590ZM569.49,119h9.7c3,0,5.35-.77,7-2.33a8.35,8.35,0,0,0,2.49-6.42,9,9,0,0,0-2.35-6.57c-1.56-1.6-4-2.39-7.19-2.39h-9.66Z"/><path class="cls-8" d="M658.1,152.21H635V168H662.1v9.77H623v-59h39v9.85H635v14.07H658.1Z"/><path class="cls-2" d="M173.49,102,188.37,45.7l-30.45,17-7.61-27.27-21.25,19.5-7.52-27.25L96.56,51,74,14.87,56.74,80.5Z"/><path class="cls-13" d="M168.64,103.08l14.88-56.26-30.44,17-7.62-27.27L124.21,56l-7.52-27.25-25,23.3L69.17,16,51.89,81.62Z"/><polyline class="cls-17" points="613.97 181.24 583.64 155.41 562.97 184.12 530.41 156.85 510.65 184.12 484.94 165.5 467.82 192.59"/><polyline class="cls-18" points="606.3 177.66 575.97 151.83 555.3 180.54 522.74 153.27 502.98 180.54 477.27 161.92 460.15 189.01"/><polyline class="cls-19" points="130.25 199.41 112.29 173.67 90.81 191.43 71.44 164.15 50.94 180.99 35.06 161.66 16.61 178.89"/><polyline class="cls-20" points="125.12 195.15 107.16 169.41 85.68 187.17 66.31 159.89 45.81 176.73 29.93 157.41 11.48 174.63"/></svg>