<svg id="Layer_1" data-name="Layer 1" xmlns="http://www.w3.org/2000/svg" xmlns:xlink="http://www.w3.org/1999/xlink" width="280" height="126" viewBox="0 0 280 126"><defs><style>.cls-1,.cls-4{fill:none;}.cls-2{opacity:0.5;}.cls-3{clip-path:url(#clip-path);}.cls-4{stroke:#ffd732;stroke-linecap:round;stroke-linejoin:round;stroke-width:10.86px;}.cls-5{fill:#1a1a1a;}.cls-6{fill:#E11487;}.cls-7{fill:#f7f7f7;}</style><clipPath id="clip-path"><rect class="cls-1" x="-481" y="-1284.5" width="1922" height="1083"/></clipPath></defs><title>Reset</title><g class="cls-2"><g class="cls-3"><ellipse class="cls-4" cx="188.68" cy="-86.05" rx="281.9" ry="263.27"/></g></g><polygon class="cls-5" points="27.42 90.99 265.23 110.27 265.1 50.47 27.29 31.2 27.42 90.99"/><polygon class="cls-6" points="31.06 84.01 268.87 103.29 268.75 43.5 30.94 24.22 31.06 84.01"/><path d="M71.23,76.77Q73.47,70.3,75.81,64t4.58-12.76c.19-.57.37-1.11.55-1.61s.35-1,.52-1.53.3-1,.41-1.55a11.88,11.88,0,0,0,.25-1.65,8.52,8.52,0,0,0,0-1.22,7.59,7.59,0,0,1,0-1.25,6.41,6.41,0,0,1,.3-1.4,6,6,0,0,1,1.46-2.52,3.15,3.15,0,0,1,2.49-.65,5.83,5.83,0,0,1,1.27.25c.41.12.81.26,1.21.41a13.19,13.19,0,0,0,1.34.47,6.76,6.76,0,0,0,1.41.27,10.92,10.92,0,0,0,1.13,0h1.27l1.69,0c.64,0,1.46.07,2.44.16.54.05,1.17.13,1.9.23a20.15,20.15,0,0,1,2.26.46,18,18,0,0,1,2.34.81,9.54,9.54,0,0,1,2.17,1.26,7.55,7.55,0,0,1,1.72,1.8,6.48,6.48,0,0,1,1,2.43,7.67,7.67,0,0,1,.16,1.24,7.56,7.56,0,0,1,0,1.07,7.44,7.44,0,0,1-1.21,3.39,14.84,14.84,0,0,1-3.05,3.38,27.25,27.25,0,0,1-4.29,2.83c-.63.35-1.36.71-2.19,1.07s-1.64.71-2.44,1l-2.14.9a11.42,11.42,0,0,0-1.33.64c.65.39,1.29.79,1.93,1.21a17.18,17.18,0,0,1,2,1.47,16.39,16.39,0,0,1,2,2,22.58,22.58,0,0,1,2,2.81,39.38,39.38,0,0,1,2.1,3.87c.71,1.48,1.43,3.22,2.17,5.2a3.25,3.25,0,0,1,.21,1.51,3.12,3.12,0,0,1-.35,1.19,4.35,4.35,0,0,1-.76,1,3.48,3.48,0,0,1-1.07.7,2.63,2.63,0,0,1-1.27.19,2.15,2.15,0,0,1-1.61-.9,8.91,8.91,0,0,1-1.09-2.08c-.33-.84-.67-1.79-1-2.85a24.09,24.09,0,0,0-1.33-3.24,28.12,28.12,0,0,0-2-3.38A17.91,17.91,0,0,0,92.48,68a13.67,13.67,0,0,0-2.76-2A7.55,7.55,0,0,0,86.78,65l-.43,0a7.25,7.25,0,0,0-1.62,0c-.48.07-1,.12-1.4.15A2.26,2.26,0,0,1,82.13,64a3.19,3.19,0,0,1-.26-1.66l0-.4-3.12,8.89c-.11.28-.25.66-.43,1.15s-.38,1-.61,1.61-.46,1.19-.7,1.83-.47,1.24-.69,1.8l-.57,1.52c-.16.45-.29.79-.37,1a3.19,3.19,0,0,1-1.12,1,2.41,2.41,0,0,1-1.38.3,2,2,0,0,1-1.7-.92,3.25,3.25,0,0,1-.33-1.82,8.19,8.19,0,0,1,.13-.82C71.08,77.27,71.15,77,71.23,76.77Zm17.1-31.3-.65,1.63c-.29.71-.61,1.51-1,2.41s-.73,1.87-1.14,2.9-.8,2.07-1.21,3.11-.79,2-1.17,3l-1,2.62A5.1,5.1,0,0,1,84,60a23.81,23.81,0,0,1,2.7-.88c.77-.2,1.73-.5,2.87-.89s2.35-.85,3.61-1.38,2.52-1.11,3.79-1.74a29.72,29.72,0,0,0,3.44-2A14.34,14.34,0,0,0,103,51a3.79,3.79,0,0,0,1.09-2.19,2,2,0,0,0-.6-1.75,5.05,5.05,0,0,0-1.79-1.11,12.66,12.66,0,0,0-2.43-.64q-1.34-.23-2.49-.33a34.22,34.22,0,0,0-4.18-.11A19.19,19.19,0,0,0,88.33,45.47Z"/><path d="M111.52,72.82a3.36,3.36,0,0,1,.86-2,3.16,3.16,0,0,1,1.86-1c.25-.4.63-1,1.14-1.63a26.11,26.11,0,0,1,1.85-2.21,31.23,31.23,0,0,1,2.47-2.35,19.64,19.64,0,0,1,3-2.09,15.56,15.56,0,0,1,3.42-1.43,10.74,10.74,0,0,1,3.77-.33,9.53,9.53,0,0,1,2.88.67,5.71,5.71,0,0,1,1.95,1.31,4.56,4.56,0,0,1,1.06,1.83,5.62,5.62,0,0,1,.21,2.18,7.37,7.37,0,0,1-2.18,4.55A11.36,11.36,0,0,1,131,72.16a16.45,16.45,0,0,1-3.37,1.23,35.32,35.32,0,0,1-3.58.7c-1.19.16-2.33.27-3.42.32s-2,.07-2.83.08a5.63,5.63,0,0,0-.57,1.27,7.24,7.24,0,0,0-.33,1.53A3,3,0,0,0,118,80a6.39,6.39,0,0,0,3.58,1.25,10.94,10.94,0,0,0,2.63-.07,15.27,15.27,0,0,0,2.42-.57,19.54,19.54,0,0,0,2.19-.85c.69-.32,1.32-.63,1.89-1a19.2,19.2,0,0,1,2.08-1,3.6,3.6,0,0,1,1.71-.33c.48,0,.77.19.89.44a1.54,1.54,0,0,1,.13.79c0,.15,0,.3-.05.44s0,.26-.08.36a4.94,4.94,0,0,1-1.93,2.65A19.59,19.59,0,0,1,127,85a21.81,21.81,0,0,1-6.84.41c-.46,0-1-.12-1.62-.23a13.79,13.79,0,0,1-1.92-.52,10.6,10.6,0,0,1-1.92-.93,6.31,6.31,0,0,1-1.63-1.46,6.21,6.21,0,0,1-1.07-2.1,7.84,7.84,0,0,1-.22-2.9,13.91,13.91,0,0,1,.65-3,1.28,1.28,0,0,1-.67-.46A1.3,1.3,0,0,1,111.52,72.82Zm18.8-6.38a1,1,0,0,0,.08-.26c0-.07,0-.16,0-.26A1.32,1.32,0,0,0,130,64.7a2.46,2.46,0,0,0-1.35-.51,5.17,5.17,0,0,0-2.56.44,11.43,11.43,0,0,0-2.46,1.45,15.23,15.23,0,0,0-2.11,2A15.63,15.63,0,0,0,120,70a27.48,27.48,0,0,0,3.87-.22,14.77,14.77,0,0,0,3.1-.71,7.81,7.81,0,0,0,2.2-1.14A3.5,3.5,0,0,0,130.32,66.44Z"/><path d="M141.3,81.57a1.54,1.54,0,0,1,.41.1l.41.16a3,3,0,0,0,.51.18,3.82,3.82,0,0,0,.75.13,18.26,18.26,0,0,0,3,0,24.13,24.13,0,0,0,3.2-.47,13.49,13.49,0,0,0,2.62-.83c.74-.33,1.18-.7,1.31-1.12a2.14,2.14,0,0,0,.14-.6,1.31,1.31,0,0,0-.39-1,7,7,0,0,0-1.12-1,15.23,15.23,0,0,0-1.5-.89c-.53-.28-1-.54-1.5-.77l-.94-.5a9.14,9.14,0,0,1-1.41-.83,8.81,8.81,0,0,1-1.26-1.09,6.32,6.32,0,0,1-1-1.39,5.62,5.62,0,0,1-.56-1.75,8,8,0,0,1-.11-.82,5.17,5.17,0,0,1,0-.88,3.92,3.92,0,0,1,.66-1.67,10.32,10.32,0,0,1,1.53-1.8,16.76,16.76,0,0,1,2.1-1.64,11.4,11.4,0,0,1,2.4-1.24c.61-.36,1.2-.67,1.77-1a12.24,12.24,0,0,1,1.71-.69,10.45,10.45,0,0,1,1.72-.4,7.85,7.85,0,0,1,1.82,0c.58,0,1.2.14,1.87.25a7.06,7.06,0,0,1,1.82.57,3.72,3.72,0,0,1,1.31,1.07,2.39,2.39,0,0,1,.42,1.71,5.55,5.55,0,0,1-.17.83,4.44,4.44,0,0,1-.38,1,3.16,3.16,0,0,1-.57.85.86.86,0,0,1-.73.32,2.09,2.09,0,0,1-1.07-.36,5.07,5.07,0,0,1-.73-.64,7.81,7.81,0,0,0-.67-.62,1.62,1.62,0,0,0-.9-.35,6,6,0,0,0-1.57.11,12.91,12.91,0,0,0-1.86.5,17.33,17.33,0,0,0-1.89.81,14.77,14.77,0,0,0-1.69,1,7.65,7.65,0,0,0-1.25,1,1.77,1.77,0,0,0-.52,1,1.1,1.1,0,0,0,.24.83,3,3,0,0,0,.76.62c.41.27.87.55,1.4.83l1.6.84,1.57.84c.51.28.94.53,1.31.76s.94.62,1.33.92a5.52,5.52,0,0,1,1,.94,3.5,3.5,0,0,1,.57,1.1,3.8,3.8,0,0,1,.11,1.38,4.91,4.91,0,0,1-.13.75c-.06.24-.14.53-.25.85a6.18,6.18,0,0,1-.39,1c-.18.37-.37.74-.57,1.1a9.56,9.56,0,0,1-.59,1,2.37,2.37,0,0,1-.49.55,15.39,15.39,0,0,1-2.83,1.71,23.67,23.67,0,0,1-3.33,1.3,22.77,22.77,0,0,1-3.42.79,13.22,13.22,0,0,1-3.09.13,5,5,0,0,1-1.5-.41,7.17,7.17,0,0,1-1.48-.86,4.68,4.68,0,0,1-1.09-1.14,1.81,1.81,0,0,1-.38-1.19,1.54,1.54,0,0,1,.24-.64,3.19,3.19,0,0,1,1.1-1.09A1,1,0,0,1,141.3,81.57Z"/><path d="M165.2,77.63a3.41,3.41,0,0,1,.86-2,3.15,3.15,0,0,1,1.86-1c.25-.41.63-1,1.14-1.63a28.45,28.45,0,0,1,1.86-2.21,29.33,29.33,0,0,1,2.46-2.35,19.25,19.25,0,0,1,3-2.09,14.83,14.83,0,0,1,3.41-1.43,10.31,10.31,0,0,1,3.77-.33,9.24,9.24,0,0,1,2.88.67,5.52,5.52,0,0,1,1.95,1.31,4.6,4.6,0,0,1,1.06,1.82,5.69,5.69,0,0,1,.21,2.19,6.58,6.58,0,0,1-.43,1.85,6.45,6.45,0,0,1-1.75,2.7A11.94,11.94,0,0,1,184.69,77a16.45,16.45,0,0,1-3.37,1.23,32.7,32.7,0,0,1-3.58.69c-1.19.17-2.33.27-3.42.32s-2,.08-2.83.08a5.73,5.73,0,0,0-.57,1.28,6.55,6.55,0,0,0-.32,1.52,3,3,0,0,0,1.09,2.72,6.35,6.35,0,0,0,3.59,1.26A11.4,11.4,0,0,0,177.9,86a15,15,0,0,0,2.42-.57,21.68,21.68,0,0,0,2.19-.85c.69-.32,1.32-.64,1.89-1a20.34,20.34,0,0,1,2.08-1,3.73,3.73,0,0,1,1.71-.32c.48,0,.78.19.89.44a1.5,1.5,0,0,1,.13.78c0,.16,0,.31-.05.45a2.45,2.45,0,0,1-.08.36,5,5,0,0,1-.71,1.45,4.93,4.93,0,0,1-1.21,1.2,19.64,19.64,0,0,1-6.47,2.82,22.06,22.06,0,0,1-6.83.41,15.72,15.72,0,0,1-1.63-.24,11.48,11.48,0,0,1-1.92-.52,9.43,9.43,0,0,1-1.92-.93,6.09,6.09,0,0,1-1.63-1.45A6.45,6.45,0,0,1,165.69,85a7.81,7.81,0,0,1-.22-2.9,14.82,14.82,0,0,1,.65-3,1.29,1.29,0,0,1-.67-.45A1.36,1.36,0,0,1,165.2,77.63ZM184,71.26a.76.76,0,0,0,.08-.26c0-.07,0-.16,0-.26a1.31,1.31,0,0,0-.47-1.22,2.46,2.46,0,0,0-1.35-.51,5.17,5.17,0,0,0-2.56.44,11.43,11.43,0,0,0-2.46,1.45,15.17,15.17,0,0,0-2.11,2,14.57,14.57,0,0,0-1.48,2,27.42,27.42,0,0,0,3.86-.22,14.62,14.62,0,0,0,3.1-.71,7.93,7.93,0,0,0,2.2-1.14A3.48,3.48,0,0,0,184,71.26Z"/><path d="M198.77,82.83a24.38,24.38,0,0,1,1-5c.52-1.71,1.06-3.35,1.6-4.91a6.52,6.52,0,0,1-1.51-.37,5.94,5.94,0,0,1-1.36-.67,3.38,3.38,0,0,1-1-1,1.87,1.87,0,0,1-.3-1.2,2.89,2.89,0,0,1,.18-.66,4.27,4.27,0,0,1,.4-.76,2.15,2.15,0,0,1,.63-.61,1.14,1.14,0,0,1,.8-.21l3.87.35a.74.74,0,0,0,.79-.41,6.57,6.57,0,0,0,.41-.91c.35-1.09.67-2,1-2.84s.55-1.47.75-2,.37-1,.49-1.35a3.28,3.28,0,0,0,.2-.84,6.06,6.06,0,0,0,0-.73c0-.23,0-.55.06-1l0-.29c0-.15,0-.35.1-.6a5.38,5.38,0,0,1,.37-1,2.76,2.76,0,0,1,.73-1,1.79,1.79,0,0,1,1.4-.37,2.55,2.55,0,0,1,2.12,1.36,3.64,3.64,0,0,1,.41,1.23,5,5,0,0,1,.06,1.34,5.35,5.35,0,0,1-.26,1.29l-2.84,7.89q1.59-.12,2.82-.24l2.47-.24c.9-.1,1.68-.19,2.34-.29l1.69-.24c.47-.06.87-.12,1.19-.15a3.9,3.9,0,0,1,.81,0,6,6,0,0,1,.93.15,3.42,3.42,0,0,1,.82.32,1.5,1.5,0,0,1,.54.55,1.35,1.35,0,0,1,.16.85,2.59,2.59,0,0,1-.39,1.21,3,3,0,0,1-.79.86,3.77,3.77,0,0,1-1,.55,6.11,6.11,0,0,1-1.13.26l-1.23.15-1.65.23-1.87.27-1.89.3-2.32.37c-.64.1-1.18.17-1.63.2s-.82.07-1.1.08-.51,0-.68,0c-.47,1.06-.88,2.11-1.25,3.14s-.68,2-.94,2.9-.47,1.71-.62,2.42a14.5,14.5,0,0,0-.29,1.68,8.32,8.32,0,0,0,0,1.5,3.78,3.78,0,0,0,.38,1.27,2.52,2.52,0,0,0,.87.91,3.19,3.19,0,0,0,1.46.43,5.94,5.94,0,0,0,3.08-.56,14.59,14.59,0,0,0,3-1.87,26.12,26.12,0,0,0,2.8-2.59c.89-1,1.71-1.86,2.47-2.72a1.05,1.05,0,0,1,.94-.44,1.51,1.51,0,0,1,.41.1,1.45,1.45,0,0,1,.46.24,1.29,1.29,0,0,1,.36.41,1,1,0,0,1,.11.57,3.2,3.2,0,0,1-.06.34A16.63,16.63,0,0,1,218.42,84c-.76,1.14-1.53,2.29-2.31,3.44a6.07,6.07,0,0,1-1,1.16,12.88,12.88,0,0,1-1.33,1.06c-.48.34-1,.65-1.48,1s-1,.55-1.44.78a6.86,6.86,0,0,1-2.48.74,12.77,12.77,0,0,1-2.54,0,7.94,7.94,0,0,1-3.27-1,7,7,0,0,1-2.29-2.07A8,8,0,0,1,199,86.22,10.27,10.27,0,0,1,198.77,82.83Z"/><path class="cls-7" d="M64.77,74.08Q67,67.61,69.35,61.32t4.58-12.76c.19-.56.37-1.1.56-1.61s.35-1,.51-1.52.3-1,.42-1.55a14.22,14.22,0,0,0,.25-1.65,8.57,8.57,0,0,0,0-1.23,7.6,7.6,0,0,1,0-1.25,6.32,6.32,0,0,1,.3-1.39,6.07,6.07,0,0,1,1.47-2.52A3.11,3.11,0,0,1,80,35.19a6.63,6.63,0,0,1,1.27.24c.41.13.81.26,1.2.42s.88.33,1.34.47a6.73,6.73,0,0,0,1.42.27,10.76,10.76,0,0,0,1.13,0h1.26l1.69,0c.65,0,1.46.08,2.44.17.54,0,1.18.12,1.91.22a20.1,20.1,0,0,1,2.25.47,16,16,0,0,1,2.35.81,10.13,10.13,0,0,1,2.17,1.25,8.4,8.4,0,0,1,1.72,1.8,6.6,6.6,0,0,1,1,2.43,9.12,9.12,0,0,1,.17,1.24,9.6,9.6,0,0,1,0,1.08,7.42,7.42,0,0,1-1.2,3.38A14.46,14.46,0,0,1,99,52.89a25.82,25.82,0,0,1-4.28,2.83c-.64.35-1.37.71-2.2,1.07s-1.64.71-2.43,1-1.51.62-2.15.9a10.66,10.66,0,0,0-1.32.63c.64.39,1.28.79,1.93,1.21a19.93,19.93,0,0,1,2,1.47,18,18,0,0,1,2,2,24.71,24.71,0,0,1,2,2.82,41.71,41.71,0,0,1,2.09,3.87q1.08,2.22,2.17,5.2a3.33,3.33,0,0,1,.22,1.5,3.27,3.27,0,0,1-.36,1.19,3.92,3.92,0,0,1-.76,1,3.39,3.39,0,0,1-1.07.71,2.72,2.72,0,0,1-1.27.19,2.13,2.13,0,0,1-1.6-.9,9.12,9.12,0,0,1-1.1-2.08c-.33-.85-.67-1.8-1-2.86a23.89,23.89,0,0,0-1.32-3.23,29.23,29.23,0,0,0-2-3.38A17.54,17.54,0,0,0,86,65.28a13.46,13.46,0,0,0-2.76-2,7.61,7.61,0,0,0-3-.92l-.43,0a7.2,7.2,0,0,0-1.62,0l-1.39.15a2.33,2.33,0,0,1-1.21-1.16,3.24,3.24,0,0,1-.26-1.65l0-.41-3.13,8.89-.42,1.16c-.18.49-.39,1-.61,1.6s-.46,1.19-.71,1.83l-.68,1.8c-.22.57-.41,1.07-.57,1.52s-.29.79-.37,1a3.22,3.22,0,0,1-1.13,1,2.41,2.41,0,0,1-1.38.3,1.94,1.94,0,0,1-1.69-.93,3.24,3.24,0,0,1-.33-1.82,4.81,4.81,0,0,1,.13-.82Q64.65,74.46,64.77,74.08Zm17.11-31.3-.66,1.63c-.29.71-.61,1.52-1,2.42s-.73,1.86-1.13,2.9-.81,2.06-1.21,3.1-.8,2.05-1.18,3l-1,2.61a5.05,5.05,0,0,1,1.86-1.18,21.24,21.24,0,0,1,2.69-.88c.78-.2,1.74-.5,2.88-.89s2.34-.86,3.6-1.38,2.53-1.11,3.8-1.74a30.59,30.59,0,0,0,3.44-2,14.25,14.25,0,0,0,2.53-2.13,3.76,3.76,0,0,0,1.1-2.18,2.12,2.12,0,0,0-.6-1.76,5.05,5.05,0,0,0-1.79-1.11,13,13,0,0,0-2.44-.64c-.88-.14-1.71-.25-2.48-.32a34.38,34.38,0,0,0-4.19-.12A19.7,19.7,0,0,0,81.88,42.78Z"/><path class="cls-7" d="M105.07,70.13a3.32,3.32,0,0,1,.85-2,3.12,3.12,0,0,1,1.86-1c.25-.41.63-1,1.14-1.63a26.69,26.69,0,0,1,1.86-2.21,29.64,29.64,0,0,1,2.47-2.36,19.36,19.36,0,0,1,3-2.09,15.26,15.26,0,0,1,3.41-1.42,10.36,10.36,0,0,1,3.78-.33,9.69,9.69,0,0,1,2.88.66A5.71,5.71,0,0,1,128.24,59a4.56,4.56,0,0,1,1.06,1.83,5.69,5.69,0,0,1,.21,2.19,7.27,7.27,0,0,1-2.18,4.55,11.88,11.88,0,0,1-2.77,1.89,16.65,16.65,0,0,1-3.37,1.22,33.4,33.4,0,0,1-3.59.7c-1.19.17-2.33.27-3.42.32s-2,.07-2.83.08a7,7,0,0,0-.57,1.27,6.63,6.63,0,0,0-.32,1.53,3,3,0,0,0,1.09,2.72,6.35,6.35,0,0,0,3.59,1.25,10.86,10.86,0,0,0,2.62-.07,13.46,13.46,0,0,0,2.43-.57,18.65,18.65,0,0,0,2.18-.85c.69-.31,1.32-.63,1.89-1a19.3,19.3,0,0,1,2.09-1,3.83,3.83,0,0,1,1.7-.33c.48,0,.78.19.89.45a1.62,1.62,0,0,1,.14.78l-.06.45a2,2,0,0,1-.08.35,4.54,4.54,0,0,1-.71,1.45,4.6,4.6,0,0,1-1.21,1.2,19.79,19.79,0,0,1-6.47,2.83,22.38,22.38,0,0,1-6.83.41c-.47,0-1-.12-1.63-.24a12.12,12.12,0,0,1-1.91-.52,9.76,9.76,0,0,1-1.93-.93,6.12,6.12,0,0,1-2.69-3.56,7.62,7.62,0,0,1-.22-2.9,14,14,0,0,1,.64-3,1.29,1.29,0,0,1-.67-.45A1.32,1.32,0,0,1,105.07,70.13Zm18.79-6.38a.52.52,0,0,0,.08-.25c0-.08,0-.16,0-.26a1.34,1.34,0,0,0-.48-1.22,2.39,2.39,0,0,0-1.35-.52,5.28,5.28,0,0,0-2.56.44,11.66,11.66,0,0,0-2.45,1.46,15.23,15.23,0,0,0-3.6,3.91,29,29,0,0,0,3.86-.22,15.53,15.53,0,0,0,3.11-.71,8,8,0,0,0,2.19-1.14A3.37,3.37,0,0,0,123.86,63.75Z"/><path class="cls-7" d="M134.85,78.89a1.3,1.3,0,0,1,.41.09l.41.17.5.18a4.91,4.91,0,0,0,.75.12,17.24,17.24,0,0,0,3,0,23.89,23.89,0,0,0,3.2-.47,13.63,13.63,0,0,0,2.63-.82,2.19,2.19,0,0,0,1.3-1.12,2.31,2.31,0,0,0,.14-.6,1.28,1.28,0,0,0-.39-1,5.77,5.77,0,0,0-1.12-1,13.33,13.33,0,0,0-1.49-.89l-1.5-.78-.95-.49a11.38,11.38,0,0,1-1.41-.84,8.65,8.65,0,0,1-1.25-1.09,6.06,6.06,0,0,1-1-1.38,5.42,5.42,0,0,1-.55-1.76,7.72,7.72,0,0,1-.12-.82,5.1,5.1,0,0,1,0-.87,3.75,3.75,0,0,1,.66-1.68,9.17,9.17,0,0,1,1.53-1.79,14.72,14.72,0,0,1,2.1-1.65,12.08,12.08,0,0,1,2.39-1.24c.62-.35,1.21-.67,1.77-1a12.24,12.24,0,0,1,1.71-.69,11.7,11.7,0,0,1,1.73-.4,8.43,8.43,0,0,1,1.82,0c.58.05,1.2.14,1.87.26a7,7,0,0,1,1.81.57A3.54,3.54,0,0,1,156.18,59a2.44,2.44,0,0,1,.41,1.71,5.11,5.11,0,0,1-.16.83,6,6,0,0,1-.38,1,3.94,3.94,0,0,1-.57.85.88.88,0,0,1-.73.31,2.16,2.16,0,0,1-1.08-.36,5.6,5.6,0,0,1-.72-.63c-.22-.22-.44-.43-.68-.63a1.58,1.58,0,0,0-.9-.34,5.88,5.88,0,0,0-1.56.11,11.56,11.56,0,0,0-1.87.5,15.5,15.5,0,0,0-1.89.8,15.69,15.69,0,0,0-1.69,1,6.72,6.72,0,0,0-1.24,1,1.77,1.77,0,0,0-.53,1,1.11,1.11,0,0,0,.25.84,2.67,2.67,0,0,0,.76.62c.4.27.87.54,1.39.82l1.6.85,1.57.83c.51.28,1,.54,1.32.76s.93.63,1.32.92a5.56,5.56,0,0,1,1,1,3.3,3.3,0,0,1,.57,1.1,3.59,3.59,0,0,1,.11,1.38,4.57,4.57,0,0,1-.12.74c-.06.25-.15.53-.25.85a7.6,7.6,0,0,1-.4,1c-.18.37-.36.74-.56,1.1a10.06,10.06,0,0,1-.6,1,2.4,2.4,0,0,1-.48.55,16.08,16.08,0,0,1-2.84,1.72,25.26,25.26,0,0,1-3.33,1.3,24,24,0,0,1-3.42.78,12.64,12.64,0,0,1-3.08.13,5.12,5.12,0,0,1-1.51-.41,7,7,0,0,1-1.48-.86A5,5,0,0,1,133.3,82a1.8,1.8,0,0,1-.37-1.2,1.52,1.52,0,0,1,.23-.63,3.33,3.33,0,0,1,.49-.63,3.82,3.82,0,0,1,.61-.47A1,1,0,0,1,134.85,78.89Z"/><path class="cls-7" d="M158.75,75a3.38,3.38,0,0,1,.85-2,3.22,3.22,0,0,1,1.87-1c.25-.4.63-1,1.13-1.63a26.68,26.68,0,0,1,1.86-2.2,28.09,28.09,0,0,1,2.47-2.36,19.16,19.16,0,0,1,3-2.09,14.7,14.7,0,0,1,3.42-1.42,10.51,10.51,0,0,1,3.77-.34,9.68,9.68,0,0,1,2.88.67,5.85,5.85,0,0,1,2,1.31A4.81,4.81,0,0,1,183,65.67a5.69,5.69,0,0,1,.21,2.19,6.66,6.66,0,0,1-.43,1.85A6.5,6.5,0,0,1,181,72.4a11.62,11.62,0,0,1-2.77,1.9,17.27,17.27,0,0,1-3.37,1.22,35.5,35.5,0,0,1-3.59.7c-1.19.16-2.33.27-3.42.32s-2,.07-2.83.08a6.14,6.14,0,0,0-.56,1.27,6.67,6.67,0,0,0-.33,1.53,3,3,0,0,0,1.1,2.72,6.36,6.36,0,0,0,3.58,1.25,11,11,0,0,0,2.63-.07,15.53,15.53,0,0,0,2.42-.57,19.54,19.54,0,0,0,2.19-.85c.68-.32,1.31-.63,1.89-1A19.2,19.2,0,0,1,180,80a3.83,3.83,0,0,1,1.7-.33c.48,0,.78.19.89.44a1.56,1.56,0,0,1,.14.79c0,.15,0,.3-.06.44s0,.27-.07.36a4.87,4.87,0,0,1-.71,1.45,4.64,4.64,0,0,1-1.22,1.2,19.79,19.79,0,0,1-6.47,2.83,22,22,0,0,1-6.83.4c-.46,0-1-.12-1.62-.23a12.23,12.23,0,0,1-1.92-.52,10.35,10.35,0,0,1-1.93-.93,6.12,6.12,0,0,1-2.69-3.56,7.64,7.64,0,0,1-.22-2.9,13.91,13.91,0,0,1,.65-3,1.28,1.28,0,0,1-.68-.46A1.3,1.3,0,0,1,158.75,75Zm18.79-6.38a.56.56,0,0,0,.08-.25l0-.26a1.36,1.36,0,0,0-.47-1.23,2.52,2.52,0,0,0-1.36-.51,5.25,5.25,0,0,0-2.55.44,11.43,11.43,0,0,0-2.46,1.45,14.68,14.68,0,0,0-2.11,2,14.11,14.11,0,0,0-1.49,1.95,28.91,28.91,0,0,0,3.86-.22,15.34,15.34,0,0,0,3.11-.72,7.69,7.69,0,0,0,2.2-1.14A3.34,3.34,0,0,0,177.54,68.57Z"/><path class="cls-7" d="M192.31,80.14a25.21,25.21,0,0,1,1-5q.78-2.57,1.61-4.9a7.73,7.73,0,0,1-1.51-.37A6,6,0,0,1,192,69.2a3.44,3.44,0,0,1-1-.94,1.83,1.83,0,0,1-.3-1.21,2.32,2.32,0,0,1,.17-.65,3.83,3.83,0,0,1,.41-.77A2.25,2.25,0,0,1,192,65a1.22,1.22,0,0,1,.8-.2l3.87.34a.74.74,0,0,0,.8-.41,6.62,6.62,0,0,0,.4-.91c.35-1.09.67-2,1-2.84s.54-1.47.75-2,.36-1,.48-1.36a3.9,3.9,0,0,0,.21-.84q0-.37,0-.72c0-.23,0-.55.06-1l0-.29a3.69,3.69,0,0,1,.1-.6,5.34,5.34,0,0,1,.37-1,2.76,2.76,0,0,1,.72-1,1.8,1.8,0,0,1,1.4-.36,2.51,2.51,0,0,1,2.12,1.35,4.06,4.06,0,0,1,.42,1.23,5.55,5.55,0,0,1,.05,1.35A5.17,5.17,0,0,1,205.3,57l-2.83,7.9,2.81-.24,2.47-.25c.9-.09,1.68-.19,2.34-.28l1.7-.24,1.19-.16a3.79,3.79,0,0,1,.8,0,6,6,0,0,1,.93.16,2.65,2.65,0,0,1,.82.32,1.58,1.58,0,0,1,.55.54,1.45,1.45,0,0,1,.15.86,2.7,2.7,0,0,1-.38,1.2,3.26,3.26,0,0,1-.79.86,3.57,3.57,0,0,1-1,.55,5.26,5.26,0,0,1-1.13.26c-.31,0-.72.08-1.22.16l-1.65.23-1.87.26-1.89.3c-.91.15-1.68.28-2.32.37s-1.19.17-1.64.21l-1.1.07a3.8,3.8,0,0,1-.68,0c-.46,1.06-.88,2.11-1.24,3.15s-.68,2-.95,2.9-.47,1.7-.62,2.42a14,14,0,0,0-.28,1.67,6.82,6.82,0,0,0,0,1.5,3.42,3.42,0,0,0,.38,1.28,2.47,2.47,0,0,0,.86.9,3.23,3.23,0,0,0,1.46.44,6.06,6.06,0,0,0,3.08-.57,14.24,14.24,0,0,0,3-1.87A26,26,0,0,0,209,79.31c.89-.94,1.72-1.85,2.47-2.71a1,1,0,0,1,.94-.44,2,2,0,0,1,.42.09,1.6,1.6,0,0,1,.46.25,1.27,1.27,0,0,1,.35.41.94.94,0,0,1,.11.56,1.16,1.16,0,0,1-.06.34A15.93,15.93,0,0,1,212,81.28c-.75,1.15-1.52,2.29-2.3,3.45a6.38,6.38,0,0,1-1,1.16A16,16,0,0,1,207.3,87c-.47.33-1,.65-1.48.94s-1,.56-1.44.79a7.28,7.28,0,0,1-2.48.74,13.54,13.54,0,0,1-2.54,0,7.79,7.79,0,0,1-3.27-1,7.24,7.24,0,0,1-2.29-2.07,8.15,8.15,0,0,1-1.27-2.86A10.59,10.59,0,0,1,192.31,80.14Z"/></svg>