<svg id="Layer_1" data-name="Layer 1" xmlns="http://www.w3.org/2000/svg" xmlns:xlink="http://www.w3.org/1999/xlink" width="280" height="126" viewBox="0 0 280 126"><defs><style>.cls-1,.cls-4{fill:none;}.cls-2{opacity:0.5;}.cls-3{clip-path:url(#clip-path);}.cls-4{stroke:#ffd732;stroke-linecap:round;stroke-linejoin:round;stroke-width:10.86px;}.cls-5{fill:#1a1a1a;}.cls-6{fill:#FED646;}.cls-7{fill:#f7f7f7;}</style><clipPath id="clip-path"><rect class="cls-1" x="-815" y="-1284.5" width="1922" height="1083"/></clipPath></defs><title>Submit</title><g class="cls-2"><g class="cls-3"><ellipse class="cls-4" cx="-145.32" cy="-86.05" rx="281.9" ry="263.27"/></g></g><polygon class="cls-5" points="258.76 92.99 20.95 112.27 21.08 52.47 258.89 33.2 258.76 92.99"/><polygon class="cls-6" points="255.12 86.01 17.31 105.29 17.43 45.5 255.25 26.22 255.12 86.01"/><path d="M42.83,91c.67.17,1.37.38,2.08.63s1.44.48,2.2.7a18.93,18.93,0,0,0,2.36.5,10.47,10.47,0,0,0,2.58.07,13.78,13.78,0,0,0,3.17-.66,15.3,15.3,0,0,0,3.07-1.38,18.94,18.94,0,0,0,2.8-2,16.51,16.51,0,0,0,2.39-2.67c.78-1.06,1.42-2,1.93-2.86A24,24,0,0,0,66.62,81a10.51,10.51,0,0,0,.63-1.69,4.14,4.14,0,0,0,.13-1.19A1.84,1.84,0,0,0,66.77,77a3.7,3.7,0,0,0-1.39-.77,8.25,8.25,0,0,0-1.9-.34,16,16,0,0,0-2.18,0q-.67.06-1.56.18l-1.81.25-1.79.23-1.5.16a9.56,9.56,0,0,1-2,0,8.09,8.09,0,0,1-2.07-.53,7,7,0,0,1-1.94-1.17,6.75,6.75,0,0,1-1.57-2,7.43,7.43,0,0,1-.4-.92,4.34,4.34,0,0,1-.24-1.17,7.45,7.45,0,0,1,0-1.33c0-.42.08-.82.14-1.22a11.46,11.46,0,0,1,1.09-3,19.81,19.81,0,0,1,2-3.1,34.18,34.18,0,0,1,2.62-3c1-1,1.94-1.9,3-2.78s2-1.67,3-2.38S60.16,52.7,61,52.18a17.1,17.1,0,0,1,3.77-1.69,19.62,19.62,0,0,1,3.87-.76,8.25,8.25,0,0,1,2.23.11,6.41,6.41,0,0,1,1.91.72,4.35,4.35,0,0,1,1.38,1.32,4,4,0,0,1,.63,1.91,3.42,3.42,0,0,1,0,1.09,2.39,2.39,0,0,1-.31.74,1.38,1.38,0,0,1-.48.43,1.34,1.34,0,0,1-.55.16,5.68,5.68,0,0,1-1.44,0c-.45-.08-.88-.18-1.29-.28l-1.25-.3a4.29,4.29,0,0,0-1.35-.07,11.91,11.91,0,0,0-4.27,1.23,24.66,24.66,0,0,0-4.11,2.54A31.2,31.2,0,0,0,56,62.57Q54.29,64.34,53,66a5.63,5.63,0,0,0-1,1.71,3.77,3.77,0,0,0-.23,1.57,1.9,1.9,0,0,0,1.07,1.59,4,4,0,0,0,2.3.41c.52,0,1.11-.11,1.76-.18l2-.25,2-.26c.64-.09,1.21-.15,1.71-.19a11.59,11.59,0,0,1,3.49.2,9.09,9.09,0,0,1,3,1.23,7.28,7.28,0,0,1,2.25,2.27,7,7,0,0,1,1.06,3.27,8.22,8.22,0,0,1-.14,2.36,13.14,13.14,0,0,1-.75,2.47,20.1,20.1,0,0,1-1.18,2.49c-.45.83-.93,1.64-1.44,2.44a31.45,31.45,0,0,1-3.15,4.12,26.44,26.44,0,0,1-3.81,3.47,21.1,21.1,0,0,1-4.4,2.51,16.12,16.12,0,0,1-4.88,1.22,13.26,13.26,0,0,1-2.27,0A15.65,15.65,0,0,1,48,98.06a11.87,11.87,0,0,1-2.21-.8A9,9,0,0,1,44,96.07a6.38,6.38,0,0,1-1.34-1.56A4.27,4.27,0,0,1,42,92.58a3.16,3.16,0,0,1,.07-1A.74.74,0,0,1,42.83,91Z"/><path d="M82.12,68.41a2.79,2.79,0,0,1,.26-.83A2.63,2.63,0,0,1,82.8,67a1.88,1.88,0,0,1,.42-.33.77.77,0,0,1,.31-.11,4.79,4.79,0,0,1,.76,0l.85.06.91.09a1.24,1.24,0,0,1,1.14.52,2.77,2.77,0,0,1,.45,1.35,3.93,3.93,0,0,1-.07,1.2c-.45,2.47-.86,4.61-1.24,6.44s-.71,3.39-1,4.67-.46,2.33-.6,3.14a7.72,7.72,0,0,0-.14,1.81,6.26,6.26,0,0,0,.28,1.35,5.71,5.71,0,0,0,.59,1.36,3.42,3.42,0,0,0,.91,1,1.73,1.73,0,0,0,1.22.33,4.7,4.7,0,0,0,2.39-1,13.58,13.58,0,0,0,2.21-2A18.31,18.31,0,0,0,94,84.4c.54-.87,1-1.64,1.3-2.31L96,80.73a20.67,20.67,0,0,0,1-2.9c.3-1.08.55-2.17.76-3.26s.37-2.1.51-3,.22-1.71.29-2.28L99,65.33a2.82,2.82,0,0,1,.57-1.58,2.5,2.5,0,0,1,1.57-.56,5.06,5.06,0,0,1,1.31.05,2.13,2.13,0,0,1,1,.48,2.47,2.47,0,0,1,.7,1,5.93,5.93,0,0,1,.36,1.73,14.79,14.79,0,0,1-.13,3.08c-.15,1.22-.33,2.46-.53,3.7-.11.72-.22,1.5-.34,2.31s-.2,1.63-.28,2.44-.12,1.58-.15,2.31a17.44,17.44,0,0,0,0,2c.09,1,.21,2,.36,2.94s.28,2,.38,3.11c0,.5.06,1,.07,1.33a5,5,0,0,1,0,.88,4.29,4.29,0,0,1-.68,1.75,2.29,2.29,0,0,1-1.67.7,4,4,0,0,1-1.35-.07,2,2,0,0,1-.81-.44A1.62,1.62,0,0,1,99,91.8,4.92,4.92,0,0,1,98.8,91L98,85.59l-.25.11c-.57.86-1.18,1.82-1.84,2.89a22.92,22.92,0,0,1-2.24,3,13.9,13.9,0,0,1-2.77,2.44,7,7,0,0,1-3.41,1.18,3.1,3.1,0,0,1-1-.1,9.92,9.92,0,0,1-1.27-.37A9.49,9.49,0,0,1,84,94.22a6.57,6.57,0,0,1-1-.6,8.39,8.39,0,0,1-2.55-3.12,11.12,11.12,0,0,1-1-3.7,12.86,12.86,0,0,1,0-2.15c0-.73.13-1.43.22-2.1s.21-1.32.34-1.92.24-1.15.31-1.62c.24-1.47.46-2.77.65-3.9s.37-2.1.51-3,.28-1.57.38-2.17S82.05,68.86,82.12,68.41Z"/><path d="M112.91,82.07q.38-2.38.89-5.21c.34-1.89.69-3.81,1.07-5.77s.73-3.91,1.1-5.85.69-3.75,1-5.47.55-3.26.75-4.63.32-2.48.36-3.32l.11-2.37c0-.18.09-.38.14-.59a2,2,0,0,1,.25-.62,1.88,1.88,0,0,1,.49-.53,1.62,1.62,0,0,1,.81-.27,3.19,3.19,0,0,1,1.53.19,2.58,2.58,0,0,1,1,.76,3.36,3.36,0,0,1,.61,1.19,7.24,7.24,0,0,1,.28,1.43,11.14,11.14,0,0,1,0,1.53c0,.51-.08,1-.14,1.39-.4,2.69-.9,5.42-1.48,8.18s-1.08,5.52-1.5,8.29a26.54,26.54,0,0,1,2.25-2.25,20.23,20.23,0,0,1,2.58-1.94,16.7,16.7,0,0,1,2.83-1.43,11.07,11.07,0,0,1,3-.69,7.51,7.51,0,0,1,2.79.22,5.33,5.33,0,0,1,2,1.09,5.09,5.09,0,0,1,1.28,1.8,7.88,7.88,0,0,1,.57,2.33c0,.41,0,.83,0,1.27s-.05.86-.11,1.27a21.12,21.12,0,0,1-1.65,5.56,23.4,23.4,0,0,1-2.75,4.5,25.09,25.09,0,0,1-3.5,3.63,41.41,41.41,0,0,1-3.89,2.91A15.13,15.13,0,0,1,123.11,90a8.11,8.11,0,0,1-2.43.61,5.08,5.08,0,0,1-1.83-.09,3.32,3.32,0,0,1-1.18-.64,5.27,5.27,0,0,1-.31.64,3.44,3.44,0,0,1-.46.64,2.58,2.58,0,0,1-.69.51,2.4,2.4,0,0,1-.92.25,2.9,2.9,0,0,1-2.41-.62,3.3,3.3,0,0,1-.89-2.15,6.65,6.65,0,0,1,0-1,6.8,6.8,0,0,1,.13-1Zm17.35-13.36a7.63,7.63,0,0,0-2.9,1,23.6,23.6,0,0,0-3.07,2c-1,.78-2,1.6-2.93,2.47s-1.76,1.64-2.48,2.33c-.16.81-.32,1.59-.49,2.34s-.33,1.51-.48,2.28-.29,1.56-.41,2.36-.2,1.66-.25,2.56l-.08,1.14.22.51a5.82,5.82,0,0,1,1.07-.62c.32-.15.64-.28,1-.39l1-.36a11.49,11.49,0,0,0,1.12-.51,22.56,22.56,0,0,0,7.19-5.54,16,16,0,0,0,3.54-7.91c.06-.43.1-.81.13-1.15a4.55,4.55,0,0,0,0-.9A1.71,1.71,0,0,0,131.8,69,2.19,2.19,0,0,0,130.26,68.71Z"/><path d="M143.58,87c.39-2.31.76-4.46,1.13-6.45s.73-3.9,1.09-5.72.69-3.6,1-5.32.65-3.46.94-5.23a9.69,9.69,0,0,0,.13-2,11.16,11.16,0,0,1,.11-2,1.35,1.35,0,0,1,.36-.66,3.73,3.73,0,0,1,.64-.54,4.15,4.15,0,0,1,.76-.38,3.12,3.12,0,0,1,.79-.19,4.45,4.45,0,0,1,1.36.07,2.48,2.48,0,0,1,.91.43,1.75,1.75,0,0,1,.53.73,4,4,0,0,1,.22,1,6.88,6.88,0,0,1-.15,2c-.15.68-.35,1.43-.59,2.25.84-.79,1.71-1.55,2.61-2.27a23.65,23.65,0,0,1,2.8-1.93,18.69,18.69,0,0,1,3-1.43,12.65,12.65,0,0,1,3.26-.72,5.29,5.29,0,0,1,1.58.11,4.12,4.12,0,0,1,1.47.64,4.33,4.33,0,0,1,1.16,1.27,5.23,5.23,0,0,1,.65,2c.78-.63,1.59-1.27,2.43-1.91a26.61,26.61,0,0,1,2.56-1.77A18.84,18.84,0,0,1,177,57.71a9,9,0,0,1,2.64-.65,8.57,8.57,0,0,1,3.23.23,4.83,4.83,0,0,1,3.33,3.07,9.77,9.77,0,0,1,.51,2.37,16.32,16.32,0,0,1,0,2.88q-.14,1.5-.33,2.85-.56,3.42-1.33,6.5t-1.72,6.25l-.48,1.59a9.24,9.24,0,0,1-.6,1.55,4.27,4.27,0,0,1-.89,1.21,2,2,0,0,1-1.27.56,3.54,3.54,0,0,1-2.39-.37,2.11,2.11,0,0,1-.78-1.59,6.59,6.59,0,0,1,0-.67,3.55,3.55,0,0,1,.08-.73,7.45,7.45,0,0,1,.41-1.3c.22-.58.47-1.19.73-1.86s.52-1.33.77-2a15.91,15.91,0,0,0,.55-1.75c.17-.85.38-1.83.63-2.95s.46-2.24.67-3.38.38-2.2.49-3.21a12.78,12.78,0,0,0,.1-2.44,4.22,4.22,0,0,0-.17-.86,2,2,0,0,0-.36-.72,1.62,1.62,0,0,0-.66-.47,2.25,2.25,0,0,0-1-.12,5.58,5.58,0,0,0-2,.68,16,16,0,0,0-2.37,1.5,22,22,0,0,0-2.35,2,17.29,17.29,0,0,0-1.9,2.16,9.77,9.77,0,0,1-1.06,1.22,4.66,4.66,0,0,1-1,.76c0,.08-.1.35-.22.79s-.25,1-.41,1.61-.33,1.3-.5,2-.32,1.4-.47,2-.28,1.14-.38,1.57-.14.66-.14.7c-.09.55-.15,1.11-.2,1.69s-.09,1.13-.12,1.65-.05,1.09-.07,1.68a6.42,6.42,0,0,1-.26,1.68,3,3,0,0,1-.81,1.34,2.78,2.78,0,0,1-1.71.64,2,2,0,0,1-1.08-.19,3,3,0,0,1-.88-.67,3.5,3.5,0,0,1-.64-1,3.79,3.79,0,0,1-.33-1.12c.29-1.77.59-3.37.89-4.79s.61-2.79.92-4.1.61-2.62.89-3.93.55-2.76.8-4.34a10.67,10.67,0,0,0,.14-1.1,5,5,0,0,0,0-1,2.12,2.12,0,0,0-.38-1.11,1.13,1.13,0,0,0-1-.36,6.23,6.23,0,0,0-2.32.68,12,12,0,0,0-2.39,1.71,35.91,35.91,0,0,0-2.8,2.83q-1.52,1.71-3.5,4.06a11.3,11.3,0,0,0-.46,1.67c-.19.81-.37,1.68-.55,2.58s-.35,1.76-.49,2.53-.24,1.3-.27,1.56a16.6,16.6,0,0,0-.26,2.07c0,.56-.05,1.06-.07,1.5,0,.24,0,.63-.07,1.16a8.8,8.8,0,0,1-.28,1.64,4.7,4.7,0,0,1-.73,1.51,1.84,1.84,0,0,1-1.39.74,3.25,3.25,0,0,1-2.24-.53,2.27,2.27,0,0,1-1-1.74,1.64,1.64,0,0,1,0-.38C143.54,87.28,143.56,87.15,143.58,87Z"/><path d="M194,79.2c.19-1.14.42-2.47.7-4s.56-3.12.87-4.82.62-3.43.93-5.2.59-3.5.86-5.17a1.52,1.52,0,0,1,.16-.41A2.5,2.5,0,0,1,198,59a3.1,3.1,0,0,1,.76-.55,3.18,3.18,0,0,1,1.14-.3,4.38,4.38,0,0,1,1,0,3,3,0,0,1,.85.23,1.68,1.68,0,0,1,.63.48,1.37,1.37,0,0,1,.28.75c0,.06,0,.12,0,.19a.58.58,0,0,1,0,.19l-.54,3.13q-.9,5.27-1.85,10.55c-.64,3.53-1.24,7.07-1.83,10.61,0,.12-.07.27-.13.45a2.53,2.53,0,0,1-.27.55,1.71,1.71,0,0,1-.46.47,1.32,1.32,0,0,1-.68.24,2.83,2.83,0,0,1-1.35-.19,3.58,3.58,0,0,1-1.05-.68,3.35,3.35,0,0,1-1-2c0-.1,0-.18,0-.26a.5.5,0,0,1,0-.26Zm4.92-30.55a9.2,9.2,0,0,1,.39-1.52,3.79,3.79,0,0,1,1.2-1.67,6,6,0,0,1,1.08-.58,3.79,3.79,0,0,1,.94-.3,1,1,0,0,1,.61.15,4.07,4.07,0,0,1,.57.39,4.76,4.76,0,0,1,.6.59,1,1,0,0,1,1,.43,2.68,2.68,0,0,1,.31,1.08,3.39,3.39,0,0,1,0,.85c0,.25-.06.46-.09.62a2.75,2.75,0,0,1-.56,1.17,5.36,5.36,0,0,1-1,1,6.06,6.06,0,0,1-1.28.68,4.25,4.25,0,0,1-1.2.31,1.9,1.9,0,0,1-1-.14,4.14,4.14,0,0,1-1-.91,1.78,1.78,0,0,1-.42-.64,2.76,2.76,0,0,1-.08-.42,3.58,3.58,0,0,1,0-.56Z"/><path d="M212.83,73.83a25,25,0,0,1,.11-5.09c.21-1.77.45-3.47.72-5.11a6.85,6.85,0,0,1-1.55-.1,6.12,6.12,0,0,1-1.47-.42,3.42,3.42,0,0,1-1.11-.76,1.82,1.82,0,0,1-.51-1.14,3,3,0,0,1,.06-.67,3.55,3.55,0,0,1,.26-.82,2.3,2.3,0,0,1,.51-.72,1.27,1.27,0,0,1,.76-.34l3.87-.34a.73.73,0,0,0,.7-.54,6,6,0,0,0,.24-1c.15-1.13.3-2.12.45-3s.28-1.55.39-2.13.18-1,.24-1.42a4,4,0,0,0,.05-.86q0-.37-.09-.72c0-.23-.08-.55-.11-.95l0-.29c0-.15,0-.36,0-.61a6.33,6.33,0,0,1,.18-1.09,2.85,2.85,0,0,1,.55-1.1,1.78,1.78,0,0,1,1.31-.61,2.7,2.7,0,0,1,1.36.2,2.78,2.78,0,0,1,1,.76,3.91,3.91,0,0,1,.62,1.14,5.5,5.5,0,0,1,.29,1.31,5.7,5.7,0,0,1,0,1.32l-1.4,8.27,2.73-.73,2.38-.68c.87-.25,1.62-.48,2.26-.69l1.62-.54,1.15-.36a4.37,4.37,0,0,1,.79-.17,7.33,7.33,0,0,1,.94,0,3.12,3.12,0,0,1,.86.17,1.56,1.56,0,0,1,.63.44,1.35,1.35,0,0,1,.31.82,2.68,2.68,0,0,1-.17,1.25,3.21,3.21,0,0,1-.63,1,3.86,3.86,0,0,1-.92.72,5.23,5.23,0,0,1-1.07.46q-.45.12-1.17.36l-1.59.52-1.79.59-1.81.63-2.22.77c-.61.21-1.14.37-1.57.49l-1.07.27a4.8,4.8,0,0,1-.67.11c-.27,1.13-.5,2.24-.67,3.32s-.32,2.09-.42,3-.17,1.76-.19,2.49a15.24,15.24,0,0,0,0,1.7,7.75,7.75,0,0,0,.28,1.48,3.45,3.45,0,0,0,.6,1.18,2.3,2.3,0,0,0,1,.74,3.22,3.22,0,0,0,1.51.18,6.07,6.07,0,0,0,2.93-1.1,14.54,14.54,0,0,0,2.63-2.37,27.21,27.21,0,0,0,2.3-3c.71-1.09,1.36-2.13,2-3.11a1,1,0,0,1,.85-.6,2.22,2.22,0,0,1,.43,0,1.87,1.87,0,0,1,.49.16,1.53,1.53,0,0,1,.42.34,1,1,0,0,1,.21.54,2,2,0,0,1,0,.35,16,16,0,0,1-1.11,3.72c-.54,1.26-1.1,2.52-1.67,3.8a6.21,6.21,0,0,1-.8,1.32,16.18,16.18,0,0,1-2.42,2.46c-.45.38-.87.73-1.27,1a7,7,0,0,1-2.32,1.17,13.43,13.43,0,0,1-2.49.47,7.78,7.78,0,0,1-3.39-.38,7.1,7.1,0,0,1-2.62-1.64,8,8,0,0,1-1.75-2.59A10.65,10.65,0,0,1,212.83,73.83Z"/><path class="cls-7" d="M37.34,90.17c.68.18,1.37.39,2.08.64s1.44.48,2.2.69A17.62,17.62,0,0,0,44,92a11,11,0,0,0,2.58.06,14.18,14.18,0,0,0,3.17-.65A15.92,15.92,0,0,0,52.8,90a17.61,17.61,0,0,0,2.8-2A15.71,15.71,0,0,0,58,85.31c.78-1,1.42-2,1.93-2.86a22.83,22.83,0,0,0,1.21-2.26,9.57,9.57,0,0,0,.63-1.68,3.84,3.84,0,0,0,.13-1.19,1.9,1.9,0,0,0-.6-1.22,3.85,3.85,0,0,0-1.39-.76A7.83,7.83,0,0,0,58,75a13.3,13.3,0,0,0-2.18,0c-.45,0-1,.1-1.56.18l-1.81.24c-.61.09-1.21.16-1.78.23l-1.5.16a9.62,9.62,0,0,1-2,0,8.11,8.11,0,0,1-2.07-.54,6.66,6.66,0,0,1-3.5-3.12,5.89,5.89,0,0,1-.4-.93A4.34,4.34,0,0,1,40.94,70a8.38,8.38,0,0,1,0-1.32c0-.42.08-.83.14-1.22a11.22,11.22,0,0,1,1.09-3,20.08,20.08,0,0,1,2-3.1,36,36,0,0,1,2.62-3c.95-1,1.94-1.9,3-2.77s2-1.67,3-2.39,1.92-1.34,2.79-1.86a16.61,16.61,0,0,1,3.77-1.68,18.36,18.36,0,0,1,3.88-.76,7.78,7.78,0,0,1,2.22.11,5.91,5.91,0,0,1,1.91.72A4.35,4.35,0,0,1,68.7,51,4,4,0,0,1,69.33,53a3.38,3.38,0,0,1,0,1.08,2.09,2.09,0,0,1-.31.74,1.35,1.35,0,0,1-.47.43,1.4,1.4,0,0,1-.56.17,5.65,5.65,0,0,1-1.44,0c-.45-.08-.88-.17-1.29-.28L64,54.74a4.58,4.58,0,0,0-1.35-.07,12.17,12.17,0,0,0-4.27,1.23,26.05,26.05,0,0,0-4.11,2.54,32.12,32.12,0,0,0-3.7,3.28q-1.72,1.78-3.06,3.44a5.62,5.62,0,0,0-1,1.72,3.7,3.7,0,0,0-.23,1.56A1.92,1.92,0,0,0,47.31,70a4.1,4.1,0,0,0,2.31.41l1.76-.19c.65-.07,1.32-.16,2-.25l2-.26c.64-.08,1.22-.15,1.72-.19a11.54,11.54,0,0,1,3.48.21,9.09,9.09,0,0,1,3,1.23,7.24,7.24,0,0,1,2.25,2.26,7.07,7.07,0,0,1,1.06,3.27,8.31,8.31,0,0,1-.14,2.37A13.61,13.61,0,0,1,66,81.37a21.56,21.56,0,0,1-1.18,2.49c-.45.82-.93,1.63-1.44,2.44a31.37,31.37,0,0,1-3.15,4.11,25.45,25.45,0,0,1-3.81,3.48A21.29,21.29,0,0,1,52,96.4a16.11,16.11,0,0,1-4.88,1.21,14.36,14.36,0,0,1-4.6-.4,11.35,11.35,0,0,1-2.21-.79,9.48,9.48,0,0,1-1.87-1.19,6.38,6.38,0,0,1-1.34-1.56,4.44,4.44,0,0,1-.62-1.94,3.1,3.1,0,0,1,.07-1A.74.74,0,0,1,37.34,90.17Z"/><path class="cls-7" d="M76.63,67.56a2.47,2.47,0,0,1,.27-.82,2.21,2.21,0,0,1,.41-.58,1.88,1.88,0,0,1,.42-.33,1.3,1.3,0,0,1,.31-.11,3.91,3.91,0,0,1,.76,0l.85,0,.91.1a1.21,1.21,0,0,1,1.14.51,2.85,2.85,0,0,1,.45,1.36,4,4,0,0,1-.07,1.2c-.44,2.46-.86,4.61-1.24,6.44s-.71,3.38-1,4.66-.46,2.33-.59,3.14A7.4,7.4,0,0,0,79.12,85a6.3,6.3,0,0,0,.28,1.34,6,6,0,0,0,.6,1.36,3.4,3.4,0,0,0,.9,1,1.73,1.73,0,0,0,1.22.33,4.73,4.73,0,0,0,2.39-1,14,14,0,0,0,2.21-2,18.09,18.09,0,0,0,1.83-2.49c.54-.87,1-1.64,1.3-2.31l.64-1.37a19.08,19.08,0,0,0,1-2.9c.3-1.08.56-2.17.76-3.25s.38-2.1.51-3.06.22-1.71.29-2.28l.42-3.9a2.76,2.76,0,0,1,.57-1.58,2.42,2.42,0,0,1,1.57-.56,5.09,5.09,0,0,1,1.31,0,2.28,2.28,0,0,1,1,.48,2.45,2.45,0,0,1,.7,1,6,6,0,0,1,.36,1.73,15.37,15.37,0,0,1-.12,3.08c-.16,1.23-.34,2.46-.54,3.7-.11.73-.22,1.5-.34,2.32s-.2,1.62-.28,2.44-.12,1.58-.14,2.31a15.39,15.39,0,0,0,0,2c.08,1,.2,2,.35,2.94s.28,2,.38,3.11c0,.5.07.94.07,1.33a4.38,4.38,0,0,1-.73,2.62,2.23,2.23,0,0,1-1.67.7,3.76,3.76,0,0,1-1.35-.07,1.87,1.87,0,0,1-.8-.44,1.52,1.52,0,0,1-.43-.67,5.32,5.32,0,0,1-.18-.79l-.8-5.43-.25.11c-.57.86-1.18,1.83-1.84,2.9a24.32,24.32,0,0,1-2.24,3,14.17,14.17,0,0,1-2.77,2.43A7.16,7.16,0,0,1,82,94.39a3.46,3.46,0,0,1-1-.1,12.56,12.56,0,0,1-1.27-.37,11.06,11.06,0,0,1-1.27-.55,6.3,6.3,0,0,1-1-.59A8.39,8.39,0,0,1,75,89.65,10.78,10.78,0,0,1,74,86a14,14,0,0,1,0-2.15c0-.72.13-1.42.22-2.1s.21-1.32.34-1.92.24-1.14.32-1.61c.23-1.48.45-2.78.64-3.9s.37-2.11.52-3,.27-1.57.37-2.17S76.56,68,76.63,67.56Z"/><path class="cls-7" d="M107.43,81.23c.24-1.6.54-3.34.88-5.22s.69-3.8,1.07-5.77.74-3.91,1.1-5.84.7-3.76,1-5.47.55-3.26.75-4.64.32-2.48.36-3.32l.11-2.36c0-.18.09-.38.14-.6a2.07,2.07,0,0,1,.25-.62,1.89,1.89,0,0,1,.5-.52,1.5,1.5,0,0,1,.8-.27,3.2,3.2,0,0,1,1.53.18,2.6,2.6,0,0,1,1,.77,3.41,3.41,0,0,1,.62,1.18,8.22,8.22,0,0,1,.27,1.43,9.76,9.76,0,0,1,0,1.53c0,.52-.08,1-.14,1.4-.4,2.69-.9,5.41-1.48,8.17s-1.08,5.52-1.5,8.3A26.54,26.54,0,0,1,117,67.31a19.33,19.33,0,0,1,2.58-1.94,16,16,0,0,1,2.83-1.43,10.72,10.72,0,0,1,3-.7,7.5,7.5,0,0,1,2.79.23,5.2,5.2,0,0,1,2,1.09,4.85,4.85,0,0,1,1.28,1.79,7.31,7.31,0,0,1,.57,2.34c0,.4.05.82,0,1.26a10.69,10.69,0,0,1-.11,1.28,21.16,21.16,0,0,1-1.65,5.55,23.8,23.8,0,0,1-2.75,4.51,24.5,24.5,0,0,1-3.5,3.62,43.37,43.37,0,0,1-3.89,2.92,15.49,15.49,0,0,1-2.52,1.34,8.32,8.32,0,0,1-2.43.6,5.08,5.08,0,0,1-1.83-.09,3.15,3.15,0,0,1-1.18-.63,5.9,5.9,0,0,1-.3.63,3.63,3.63,0,0,1-.47.64,2.58,2.58,0,0,1-.69.51,2.36,2.36,0,0,1-.92.26,2.93,2.93,0,0,1-2.41-.62,3.35,3.35,0,0,1-.89-2.15,6.66,6.66,0,0,1,0-1,7.11,7.11,0,0,1,.13-1Zm17.34-13.37a7.49,7.49,0,0,0-2.9,1,22.61,22.61,0,0,0-3.07,2c-1,.77-2,1.6-2.93,2.46s-1.76,1.65-2.47,2.33c-.17.81-.33,1.59-.5,2.34s-.33,1.52-.48,2.29-.29,1.55-.41,2.36-.2,1.66-.25,2.55l-.08,1.15.22.5a6.46,6.46,0,0,1,1.07-.62l1-.39,1-.36a8.67,8.67,0,0,0,1.12-.5,22.61,22.61,0,0,0,7.19-5.55,15.92,15.92,0,0,0,3.54-7.9c.06-.44.11-.82.14-1.15a5.4,5.4,0,0,0,0-.9,1.71,1.71,0,0,0-.57-1.26A2.13,2.13,0,0,0,124.77,67.86Z"/><path class="cls-7" d="M138.1,86.17q.57-3.45,1.12-6.44c.37-2,.73-3.9,1.09-5.73s.7-3.6,1-5.31.65-3.47.94-5.24a9,9,0,0,0,.13-2,11.27,11.27,0,0,1,.11-2,1.41,1.41,0,0,1,.36-.65,3.73,3.73,0,0,1,.64-.54,3.48,3.48,0,0,1,.77-.39,2.92,2.92,0,0,1,.78-.18,3.9,3.9,0,0,1,1.36.07,2.2,2.2,0,0,1,.91.43,1.66,1.66,0,0,1,.53.72,4,4,0,0,1,.22,1,6.51,6.51,0,0,1-.15,2c-.15.69-.35,1.44-.59,2.25.84-.79,1.72-1.54,2.61-2.26a23.74,23.74,0,0,1,2.8-1.94,19.2,19.2,0,0,1,3-1.42,12.48,12.48,0,0,1,3.25-.72,5,5,0,0,1,1.58.11,3.88,3.88,0,0,1,1.47.64,4.21,4.21,0,0,1,1.16,1.27,5.07,5.07,0,0,1,.65,2c.78-.63,1.59-1.26,2.43-1.91a30.77,30.77,0,0,1,2.56-1.77,18.76,18.76,0,0,1,2.65-1.33,9.3,9.3,0,0,1,2.64-.66,8.75,8.75,0,0,1,3.23.23,4.83,4.83,0,0,1,3.33,3.07,9.32,9.32,0,0,1,.51,2.37,16.31,16.31,0,0,1,0,2.88c-.09,1-.2,1.95-.33,2.86q-.55,3.42-1.33,6.5c-.52,2-1.09,4.14-1.72,6.25-.15.5-.31,1-.47,1.58a9.44,9.44,0,0,1-.61,1.55,4.44,4.44,0,0,1-.88,1.22,2.11,2.11,0,0,1-1.28.56,3.6,3.6,0,0,1-2.39-.37,2.15,2.15,0,0,1-.78-1.6q0-.28,0-.66a3.65,3.65,0,0,1,.08-.74,8.8,8.8,0,0,1,.41-1.3c.23-.57.47-1.19.73-1.85s.52-1.33.77-2a15.27,15.27,0,0,0,.55-1.75c.17-.84.38-1.83.63-3s.46-2.24.68-3.37.37-2.21.49-3.22a13.48,13.48,0,0,0,.09-2.44,5.2,5.2,0,0,0-.16-.86,2.23,2.23,0,0,0-.37-.72,1.65,1.65,0,0,0-.65-.47,2.17,2.17,0,0,0-1-.11,5.54,5.54,0,0,0-2,.67,17.77,17.77,0,0,0-2.37,1.5,24.4,24.4,0,0,0-2.34,2A19,19,0,0,0,165,67.2a8.56,8.56,0,0,1-1.06,1.23,5,5,0,0,1-1,.76c0,.08-.1.34-.22.79s-.25,1-.41,1.61-.32,1.3-.49,2-.33,1.4-.48,2-.28,1.15-.37,1.58-.15.65-.15.69c-.08.55-.15,1.12-.2,1.69s-.08,1.13-.12,1.66,0,1.08-.07,1.68a6.15,6.15,0,0,1-.26,1.68,3.07,3.07,0,0,1-.81,1.34,2.84,2.84,0,0,1-1.71.64,2,2,0,0,1-1.08-.2,2.83,2.83,0,0,1-.88-.66,3.74,3.74,0,0,1-.64-1,3.85,3.85,0,0,1-.33-1.13c.29-1.77.59-3.36.89-4.79s.61-2.79.92-4.1.61-2.61.89-3.93.55-2.76.8-4.33a10.86,10.86,0,0,0,.14-1.11,6,6,0,0,0,0-.94,2.08,2.08,0,0,0-.39-1.12,1.13,1.13,0,0,0-1.05-.36,6.42,6.42,0,0,0-2.32.68,12,12,0,0,0-2.39,1.71,36.21,36.21,0,0,0-2.8,2.84c-1,1.13-2.18,2.49-3.5,4.06a10.94,10.94,0,0,0-.46,1.67c-.18.81-.37,1.67-.55,2.58s-.34,1.75-.49,2.53-.24,1.3-.27,1.55a19.18,19.18,0,0,0-.26,2.08c0,.55-.05,1-.07,1.5,0,.24,0,.62-.07,1.16a8.17,8.17,0,0,1-.28,1.64,4.75,4.75,0,0,1-.73,1.5,1.85,1.85,0,0,1-1.39.75,3.31,3.31,0,0,1-2.24-.53,2.31,2.31,0,0,1-1-1.75,2.44,2.44,0,0,1,0-.38A3.26,3.26,0,0,1,138.1,86.17Z"/><path class="cls-7" d="M188.52,78.36c.19-1.14.42-2.47.7-4s.56-3.13.87-4.82.62-3.43.93-5.21.6-3.49.86-5.16a1.53,1.53,0,0,1,.17-.41,2.44,2.44,0,0,1,.44-.59,2.77,2.77,0,0,1,.77-.55,2.89,2.89,0,0,1,1.13-.3,4.49,4.49,0,0,1,1,0,2.74,2.74,0,0,1,.84.24,1.52,1.52,0,0,1,.63.48,1.37,1.37,0,0,1,.28.75s0,.12,0,.18a.59.59,0,0,1,0,.19l-.54,3.14q-.92,5.25-1.86,10.55T192.9,83.48c0,.11-.08.26-.14.44a2.33,2.33,0,0,1-.27.55A1.62,1.62,0,0,1,192,85a1.28,1.28,0,0,1-.67.23A2.75,2.75,0,0,1,190,85a3.22,3.22,0,0,1-1.74-1.63,3.06,3.06,0,0,1-.3-1,2.11,2.11,0,0,0,0-.26.66.66,0,0,1,0-.26Zm4.92-30.55a9.12,9.12,0,0,1,.4-1.52A3.85,3.85,0,0,1,195,44.61a6,6,0,0,1,1.08-.57,3.08,3.08,0,0,1,.94-.3,1,1,0,0,1,.61.15,3.33,3.33,0,0,1,.57.38,5.56,5.56,0,0,1,.6.59,1,1,0,0,1,1,.44,2.59,2.59,0,0,1,.31,1.08,3.88,3.88,0,0,1,0,.84c0,.26-.07.46-.1.62a2.54,2.54,0,0,1-.56,1.17,5.11,5.11,0,0,1-1.05,1,7.15,7.15,0,0,1-1.28.68,4.56,4.56,0,0,1-1.2.3,1.82,1.82,0,0,1-1-.14,3.85,3.85,0,0,1-1-.9,1.8,1.8,0,0,1-.42-.65,2.9,2.9,0,0,1-.08-.41,2.71,2.71,0,0,1,0-.57C193.4,48.12,193.42,48,193.44,47.81Z"/><path class="cls-7" d="M207.35,73a24.26,24.26,0,0,1,.1-5.09c.22-1.78.46-3.48.72-5.11a7.47,7.47,0,0,1-1.55-.1,5.92,5.92,0,0,1-1.46-.43A3.22,3.22,0,0,1,204,61.5a1.76,1.76,0,0,1-.5-1.13,2.48,2.48,0,0,1,.05-.68,3.75,3.75,0,0,1,.27-.82,2.23,2.23,0,0,1,.5-.71,1.25,1.25,0,0,1,.76-.35l3.87-.33a.77.77,0,0,0,.71-.55,7.39,7.39,0,0,0,.23-1c.15-1.14.31-2.13.46-3s.27-1.54.38-2.13l.24-1.41a4.07,4.07,0,0,0,.05-.87q0-.37-.09-.72c0-.23-.08-.54-.11-.95l0-.29c0-.15,0-.35,0-.61a6.48,6.48,0,0,1,.18-1.09,2.81,2.81,0,0,1,.55-1.09,1.76,1.76,0,0,1,1.31-.61,2.58,2.58,0,0,1,1.36.2,2.67,2.67,0,0,1,1,.76,3.67,3.67,0,0,1,.62,1.14,5.05,5.05,0,0,1,.29,1.31,5.61,5.61,0,0,1,0,1.31l-1.4,8.27c1-.26,1.93-.5,2.73-.73l2.39-.67c.87-.25,1.62-.49,2.25-.7l1.63-.53,1.14-.36a3.23,3.23,0,0,1,.79-.17,5.89,5.89,0,0,1,.94,0,3.12,3.12,0,0,1,.86.17,1.57,1.57,0,0,1,.64.44,1.41,1.41,0,0,1,.3.82,2.56,2.56,0,0,1-.17,1.25,3.2,3.2,0,0,1-.62,1,3.63,3.63,0,0,1-.93.72,5.23,5.23,0,0,1-1.07.46l-1.17.37-1.59.51-1.79.6c-.62.21-1.23.41-1.81.62l-2.22.78c-.61.2-1.13.37-1.57.48s-.79.21-1.07.27-.5.1-.67.12c-.27,1.13-.5,2.23-.67,3.32s-.32,2.09-.42,3-.17,1.76-.19,2.49a12.82,12.82,0,0,0,0,1.7,6.84,6.84,0,0,0,.27,1.47,3.51,3.51,0,0,0,.6,1.19,2.53,2.53,0,0,0,1,.74,3.25,3.25,0,0,0,1.51.17,6,6,0,0,0,2.93-1.1,13.83,13.83,0,0,0,2.63-2.37,26.32,26.32,0,0,0,2.3-3c.71-1.09,1.36-2.12,1.95-3.11a1.07,1.07,0,0,1,.85-.59,1.64,1.64,0,0,1,.43,0,1.34,1.34,0,0,1,.49.16,1.15,1.15,0,0,1,.42.34.93.93,0,0,1,.21.53,1,1,0,0,1,0,.35,16,16,0,0,1-1.11,3.72c-.54,1.26-1.1,2.53-1.66,3.8a6.65,6.65,0,0,1-.8,1.32,15,15,0,0,1-1.13,1.28c-.41.41-.84.81-1.29,1.19s-.88.72-1.28,1a7.17,7.17,0,0,1-2.31,1.16,12.93,12.93,0,0,1-2.5.48,7.78,7.78,0,0,1-3.39-.39,7.16,7.16,0,0,1-2.62-1.63,8.21,8.21,0,0,1-1.75-2.6A10.38,10.38,0,0,1,207.35,73Z"/></svg>