<svg id="Layer_1" data-name="Layer 1" xmlns="http://www.w3.org/2000/svg" xmlns:xlink="http://www.w3.org/1999/xlink" width="280" height="126" viewBox="0 0 280 126"><defs><style>.cls-1,.cls-4{fill:none;}.cls-2{opacity:0.5;}.cls-3{clip-path:url(#clip-path);}.cls-4{stroke:#ffd732;stroke-linecap:round;stroke-linejoin:round;stroke-width:10.86px;}.cls-5{fill:#fff;}.cls-6{fill:#1a1a1a;}.cls-7{fill:#2e3192;}.cls-8{fill:#f7f7f7;}</style><clipPath id="clip-path"><rect class="cls-1" x="-157" y="-1284.5" width="1922" height="1083"/></clipPath></defs><title>Start</title><g class="cls-2"><g class="cls-3"><ellipse class="cls-4" cx="512.68" cy="-86.05" rx="281.9" ry="263.27"/><path class="cls-5" d="M127.91-261.46c-9.38,8.76-16.19,11.29-22.78,13.72s-12.56,4.65-21.3,12.82S72.67-221.07,70.11-215s-5.31,12.51-14.7,21.28S39.22-182.46,32.63-180s-12.56,4.65-21.3,12.82S.17-153.36-2.39-147.32-7.7-134.81-17.08-126s-16.2,11.29-22.79,13.73-12.56,4.65-21.3,12.81S-72.33-85.65-74.88-79.62-80.2-67.1-89.58-58.34-105.78-47-112.37-44.61-124.92-40-133.67-31.8s-11.16,13.86-13.72,19.9S-152.7.61-162.08,9.38s-16.2,11.29-22.79,13.73-12.56,4.65-21.3,12.81l-6.77-6.32c9.38-8.77,16.2-11.29,22.79-13.73s12.55-4.65,21.29-12.82,11.17-13.86,13.72-19.89,5.32-12.52,14.7-21.28,16.2-11.29,22.79-13.73,12.56-4.65,21.3-12.81S-85.2-78.52-82.63-84.55s5.31-12.52,14.69-21.28,16.2-11.29,22.79-13.73,12.56-4.65,21.3-12.81,11.15-13.86,13.71-19.89,5.32-12.52,14.7-21.28,16.2-11.28,22.78-13.72,12.56-4.65,21.3-12.82S59.8-213.94,62.36-220s5.31-12.51,14.7-21.28S93.26-252.53,99.84-255s12.56-4.65,21.3-12.82Z"/></g></g><polygon class="cls-6" points="255.71 90.99 17.9 110.27 18.02 50.47 255.84 31.2 255.71 90.99"/><polygon class="cls-7" points="252.07 84.01 14.26 103.29 14.38 43.5 252.19 24.22 252.07 84.01"/><path d="M59.44,86.21c.67.17,1.36.39,2.07.63s1.45.48,2.2.7a21.91,21.91,0,0,0,2.36.51,11,11,0,0,0,2.58.06,14.38,14.38,0,0,0,3.18-.65,15.84,15.84,0,0,0,3.06-1.39,18.33,18.33,0,0,0,2.81-2,16.45,16.45,0,0,0,2.38-2.67c.78-1.06,1.43-2,1.94-2.86a25.15,25.15,0,0,0,1.21-2.26,9.49,9.49,0,0,0,.62-1.69A3.53,3.53,0,0,0,84,73.35a1.79,1.79,0,0,0-.6-1.21A3.63,3.63,0,0,0,82,71.38,7.73,7.73,0,0,0,80.08,71a16,16,0,0,0-2.18,0c-.44,0-1,.1-1.55.18l-1.81.25-1.79.23-1.5.16a9.67,9.67,0,0,1-2,0,8.3,8.3,0,0,1-2.07-.53,7.07,7.07,0,0,1-1.93-1.17,6.75,6.75,0,0,1-1.57-2,6.82,6.82,0,0,1-.4-.92A4.76,4.76,0,0,1,63,66.08a8.48,8.48,0,0,1,0-1.33c0-.42.08-.82.14-1.22a11.12,11.12,0,0,1,1.09-3.05,19.73,19.73,0,0,1,2-3.1,37.87,37.87,0,0,1,2.62-3c1-1,1.94-1.9,3-2.77s2-1.68,3-2.39,1.92-1.34,2.79-1.86a17,17,0,0,1,3.76-1.69,19.86,19.86,0,0,1,3.88-.76A8.16,8.16,0,0,1,87.5,45a6.07,6.07,0,0,1,1.91.73,4,4,0,0,1,1.38,1.32,4.05,4.05,0,0,1,.64,1.9,3.74,3.74,0,0,1-.05,1.09,2.4,2.4,0,0,1-.32.74,1.36,1.36,0,0,1-.47.43,1.59,1.59,0,0,1-.55.17,6.26,6.26,0,0,1-1.45,0c-.44-.08-.87-.17-1.29-.28s-.83-.21-1.25-.3a4.21,4.21,0,0,0-1.34-.07,11.85,11.85,0,0,0-4.27,1.23,25,25,0,0,0-4.12,2.54,32,32,0,0,0-3.7,3.28c-1.15,1.19-2.17,2.33-3.06,3.44a5.93,5.93,0,0,0-1,1.72,3.87,3.87,0,0,0-.23,1.56,1.91,1.91,0,0,0,1.08,1.59,4,4,0,0,0,2.3.41c.52,0,1.11-.1,1.76-.18l2-.25,2-.26c.64-.08,1.21-.15,1.71-.19a11.51,11.51,0,0,1,3.48.2,9.05,9.05,0,0,1,3,1.23A7.61,7.61,0,0,1,88,69.3,7.15,7.15,0,0,1,89,72.57a8.32,8.32,0,0,1-.15,2.37,14,14,0,0,1-.74,2.46,21.65,21.65,0,0,1-1.18,2.49c-.45.83-.93,1.64-1.45,2.44a32.27,32.27,0,0,1-3.14,4.12,26,26,0,0,1-3.82,3.47,20.78,20.78,0,0,1-4.39,2.51,16.11,16.11,0,0,1-4.89,1.22,13.26,13.26,0,0,1-2.27,0,15.52,15.52,0,0,1-2.33-.39,11.87,11.87,0,0,1-2.21-.8,8.34,8.34,0,0,1-1.86-1.19,6,6,0,0,1-1.35-1.55,4.44,4.44,0,0,1-.62-1.94,3.37,3.37,0,0,1,.07-1C58.76,86.43,59,86.25,59.44,86.21Z"/><path d="M99.29,80.4a25,25,0,0,1,.11-5.09c.22-1.77.46-3.48.72-5.11a7.47,7.47,0,0,1-1.55-.1,6.38,6.38,0,0,1-1.46-.42A3.38,3.38,0,0,1,96,68.91a1.76,1.76,0,0,1-.5-1.13,2.39,2.39,0,0,1,.05-.67,3.83,3.83,0,0,1,.27-.83,2.23,2.23,0,0,1,.5-.71,1.23,1.23,0,0,1,.76-.34l3.87-.34a.75.75,0,0,0,.71-.54,7.53,7.53,0,0,0,.23-1c.15-1.14.31-2.13.46-3s.27-1.55.38-2.13.18-1.06.24-1.42A4.07,4.07,0,0,0,103,56q0-.37-.09-.72a9.39,9.39,0,0,1-.11-1l0-.28c0-.16,0-.36,0-.61a6.41,6.41,0,0,1,.18-1.1,2.81,2.81,0,0,1,.55-1.09,1.76,1.76,0,0,1,1.31-.61,2.58,2.58,0,0,1,1.36.2,2.67,2.67,0,0,1,1,.76,3.67,3.67,0,0,1,.62,1.14,5.05,5.05,0,0,1,.29,1.31,5.61,5.61,0,0,1,0,1.31l-1.4,8.27c1-.26,1.93-.5,2.73-.73l2.38-.67c.87-.25,1.63-.48,2.26-.69l1.62-.54,1.15-.36a3.65,3.65,0,0,1,.79-.17,5.87,5.87,0,0,1,.94,0,3.12,3.12,0,0,1,.86.17,1.67,1.67,0,0,1,.64.44,1.41,1.41,0,0,1,.3.82,2.68,2.68,0,0,1-.17,1.25,3.2,3.2,0,0,1-.62,1,3.9,3.9,0,0,1-.93.73,5.8,5.8,0,0,1-1.07.45l-1.17.37-1.59.51-1.79.6-1.81.62-2.22.78c-.61.21-1.13.37-1.57.48s-.79.21-1.07.27a4.83,4.83,0,0,1-.67.12c-.27,1.13-.5,2.23-.67,3.32s-.32,2.09-.42,3-.17,1.76-.19,2.49a12.82,12.82,0,0,0,0,1.7,6.84,6.84,0,0,0,.27,1.47,3.51,3.51,0,0,0,.6,1.19,2.53,2.53,0,0,0,1,.74,3.25,3.25,0,0,0,1.51.17,6,6,0,0,0,2.93-1.1,13.83,13.83,0,0,0,2.63-2.37,26.2,26.2,0,0,0,2.3-3c.71-1.1,1.36-2.13,2-3.12a1.05,1.05,0,0,1,.85-.59,1.64,1.64,0,0,1,.43,0,1.56,1.56,0,0,1,.49.16,1.27,1.27,0,0,1,.43.34,1,1,0,0,1,.2.53,1.32,1.32,0,0,1,0,.35,16,16,0,0,1-1.11,3.72c-.54,1.26-1.1,2.53-1.66,3.8a6.18,6.18,0,0,1-.81,1.32,13.32,13.32,0,0,1-1.12,1.28c-.41.42-.84.81-1.29,1.19s-.88.72-1.28,1a7.12,7.12,0,0,1-2.32,1.16,12.7,12.7,0,0,1-2.49.48,7.78,7.78,0,0,1-3.39-.39,7.16,7.16,0,0,1-2.62-1.63,8,8,0,0,1-1.75-2.6A10.66,10.66,0,0,1,99.29,80.4Z"/><path d="M141.1,84.54a11.61,11.61,0,0,1,0-2,18.35,18.35,0,0,0,0-2.92c-.6.52-1.25,1.13-2,1.83s-1.46,1.38-2.24,2a17.19,17.19,0,0,1-2.34,1.67,5.39,5.39,0,0,1-2.24.8,5.14,5.14,0,0,1-1.67-.12,4.28,4.28,0,0,1-1.39-.58A8.55,8.55,0,0,1,126.81,83a5.71,5.71,0,0,1-.93-2.77,9.64,9.64,0,0,1,0-1.52c0-.52.12-1.13.23-1.82a25.47,25.47,0,0,1,3-8.78,26.07,26.07,0,0,1,6.05-7.21,8.16,8.16,0,0,1,2.94-1.63,14.64,14.64,0,0,1,3-.57,13.87,13.87,0,0,1,1.5-.05l1.5.05c.43-.14.79-.24,1.06-.3a6,6,0,0,1,.88-.13,3.71,3.71,0,0,1,1.46.1,2.38,2.38,0,0,1,1,.54,2.41,2.41,0,0,1,.59.85,3.68,3.68,0,0,1,.25,1,4.37,4.37,0,0,1-.11,1.45c-.11.47-.23.94-.34,1.41l-2.48,15.56c0,.83,0,1.6,0,2.3a9.41,9.41,0,0,1-.17,2c-.05.18-.1.4-.16.67a2.66,2.66,0,0,1-1,1.47A2.21,2.21,0,0,1,144,86a6.94,6.94,0,0,1-1.44,0,2,2,0,0,1-.85-.26.94.94,0,0,1-.42-.49A2.27,2.27,0,0,1,141.1,84.54Zm-10.35-7.88c-.05.28-.1.67-.15,1.18a8.46,8.46,0,0,0,0,1.51,3.89,3.89,0,0,0,.35,1.38,1,1,0,0,0,1.06.53,5,5,0,0,0,2.23-.73,10.88,10.88,0,0,0,1.86-1.46,37,37,0,0,0,4.53-5.34,25.26,25.26,0,0,0,1.77-3,12.14,12.14,0,0,0,1-3,16.64,16.64,0,0,0,.22-2,14.2,14.2,0,0,0,0-2,1.66,1.66,0,0,0-.24-.73.67.67,0,0,0-.7-.3,7.84,7.84,0,0,0-2.79.8,13.15,13.15,0,0,0-2.63,1.71,17.77,17.77,0,0,0-2.34,2.4A22.33,22.33,0,0,0,133,70.51a20.52,20.52,0,0,0-1.44,3.09A18.13,18.13,0,0,0,130.75,76.66Z"/><path d="M156.17,81.48c.13-1.37.29-2.88.48-4.52s.38-3.31.58-5,.4-3.34.58-5,.34-3.12.46-4.46c0-.2-.06-.36-.08-.51s0-.3,0-.47a15.45,15.45,0,0,1,0-1.8,11.85,11.85,0,0,1,.18-1.68,3.61,3.61,0,0,1,.57-1.55,1.76,1.76,0,0,1,1.23-.5,2.44,2.44,0,0,1,1.37.22,2.41,2.41,0,0,1,.87.81,3.58,3.58,0,0,1,.48,1.22,13.3,13.3,0,0,1,.22,1.45c0,.27,0,.57.05.9s0,.59,0,.78c.49-.6,1-1.22,1.57-1.87a14.78,14.78,0,0,1,1.79-1.75,10.88,10.88,0,0,1,2.07-1.36,6.13,6.13,0,0,1,2.34-.67,5.24,5.24,0,0,1,1,0,8.46,8.46,0,0,1,1,.15,8.62,8.62,0,0,1,1.23.28,5.44,5.44,0,0,1,1.26.57,6.34,6.34,0,0,1,1.76,1.67,4.26,4.26,0,0,1,.85,2.15,3,3,0,0,1-.1,1,3.23,3.23,0,0,1-.39,1,3,3,0,0,1-.65.76,1.6,1.6,0,0,1-.87.35,3.82,3.82,0,0,1-1.22-.14,3.57,3.57,0,0,1-1.23-.55,2.39,2.39,0,0,1-.46-.45l-.46-.6c-.14-.2-.27-.39-.4-.56a1.76,1.76,0,0,0-.27-.34l-.32,0h-.32a5.64,5.64,0,0,0-2.74,1,12.82,12.82,0,0,0-2.32,2,20,20,0,0,0-1.92,2.5c-.58.87-1.08,1.66-1.5,2.35-.25,1.6-.53,3.3-.85,5.1s-.62,3.69-.92,5.65l.07.72q.07.87.09,1.77a4.86,4.86,0,0,1-.21,1.62,2.54,2.54,0,0,1-.84.82,3.16,3.16,0,0,1-1.35.42,2.14,2.14,0,0,1-1.89-.64,3,3,0,0,1-.77-1.81A4,4,0,0,1,156.17,81.48Z"/><path d="M184.38,73a25,25,0,0,1,.11-5.09c.22-1.77.45-3.47.72-5.11a6.85,6.85,0,0,1-1.55-.1,6.61,6.61,0,0,1-1.47-.42,3.58,3.58,0,0,1-1.11-.76,1.84,1.84,0,0,1-.51-1.14,2.94,2.94,0,0,1,.06-.67,3.55,3.55,0,0,1,.26-.82,2.3,2.3,0,0,1,.51-.72,1.21,1.21,0,0,1,.75-.34l3.88-.34a.73.73,0,0,0,.7-.54,6,6,0,0,0,.24-1c.15-1.14.3-2.12.45-3s.28-1.55.39-2.13.18-1.06.24-1.42a4,4,0,0,0,0-.86q0-.37-.09-.72c0-.23-.08-.55-.11-1l0-.29a5.65,5.65,0,0,1,0-.61,6.33,6.33,0,0,1,.18-1.09,2.85,2.85,0,0,1,.55-1.1,1.79,1.79,0,0,1,1.31-.61,2.7,2.7,0,0,1,1.36.2,2.78,2.78,0,0,1,1,.76,3.91,3.91,0,0,1,.62,1.14,5.5,5.5,0,0,1,.29,1.31,5.7,5.7,0,0,1,0,1.32l-1.4,8.27c1-.27,1.93-.51,2.73-.74l2.38-.67c.87-.25,1.62-.48,2.26-.69l1.62-.54,1.15-.36a4.37,4.37,0,0,1,.79-.17,5.87,5.87,0,0,1,.94,0,3.12,3.12,0,0,1,.86.17,1.56,1.56,0,0,1,.63.44,1.35,1.35,0,0,1,.31.82,2.68,2.68,0,0,1-.17,1.25,3.21,3.21,0,0,1-.63,1,3.86,3.86,0,0,1-.92.72,5.85,5.85,0,0,1-1.07.46q-.45.12-1.17.36l-1.59.52-1.79.59-1.81.62-2.22.78c-.61.21-1.14.37-1.57.49l-1.07.26a3.83,3.83,0,0,1-.67.12c-.27,1.13-.5,2.24-.67,3.32s-.32,2.09-.42,3-.17,1.76-.19,2.49a15.24,15.24,0,0,0,0,1.7,7.75,7.75,0,0,0,.28,1.48,3.55,3.55,0,0,0,.6,1.18,2.38,2.38,0,0,0,1,.74,3.22,3.22,0,0,0,1.51.18,6.07,6.07,0,0,0,2.93-1.1,14.54,14.54,0,0,0,2.63-2.37,27.21,27.21,0,0,0,2.3-3c.71-1.09,1.36-2.13,1.95-3.11a1,1,0,0,1,.85-.6,2.22,2.22,0,0,1,.43,0,1.56,1.56,0,0,1,.49.16,1.37,1.37,0,0,1,.42.34,1,1,0,0,1,.21.54,2,2,0,0,1,0,.35,16,16,0,0,1-1.11,3.72c-.54,1.26-1.1,2.52-1.67,3.8a6.21,6.21,0,0,1-.8,1.32A14.55,14.55,0,0,1,200.34,77a16.38,16.38,0,0,1-1.3,1.19c-.45.38-.87.73-1.27,1a6.84,6.84,0,0,1-2.32,1.16,12.7,12.7,0,0,1-2.49.48,7.93,7.93,0,0,1-3.39-.38A7.24,7.24,0,0,1,187,78.86a8,8,0,0,1-1.75-2.59A10.65,10.65,0,0,1,184.38,73Z"/><path class="cls-8" d="M52.54,86.77c.68.17,1.37.38,2.08.63s1.45.48,2.2.7a19.32,19.32,0,0,0,2.36.5,10.5,10.5,0,0,0,2.58.07A13.67,13.67,0,0,0,64.93,88,15.3,15.3,0,0,0,68,86.63a17.78,17.78,0,0,0,2.8-2,16.05,16.05,0,0,0,2.39-2.67c.78-1.06,1.42-2,1.93-2.86a25.51,25.51,0,0,0,1.22-2.26A9.49,9.49,0,0,0,77,75.1a3.53,3.53,0,0,0,.13-1.19,1.79,1.79,0,0,0-.6-1.21,3.78,3.78,0,0,0-1.39-.77,8.34,8.34,0,0,0-1.91-.34,16,16,0,0,0-2.18,0q-.66.06-1.56.18l-1.81.25-1.78.23-1.5.16a9.66,9.66,0,0,1-2,0,8.3,8.3,0,0,1-2.07-.53,6.93,6.93,0,0,1-1.93-1.17,6.75,6.75,0,0,1-1.57-2,6.82,6.82,0,0,1-.4-.92,4.76,4.76,0,0,1-.25-1.17,7.41,7.41,0,0,1,0-1.33,12,12,0,0,1,.14-1.22A11.08,11.08,0,0,1,57.35,61a20.57,20.57,0,0,1,2-3.1A37.87,37.87,0,0,1,62,55c1-1,1.94-1.9,3-2.78s2-1.67,3-2.38,1.93-1.34,2.79-1.86a17.31,17.31,0,0,1,3.77-1.69,19.86,19.86,0,0,1,3.88-.76,8.16,8.16,0,0,1,2.22.11,6.31,6.31,0,0,1,1.91.72,4.35,4.35,0,0,1,1.38,1.32,4,4,0,0,1,.63,1.91,3.42,3.42,0,0,1,0,1.09,2.17,2.17,0,0,1-.31.74,1.45,1.45,0,0,1-.47.43,1.39,1.39,0,0,1-.55.16,5.76,5.76,0,0,1-1.45,0c-.44-.08-.87-.17-1.29-.28s-.83-.21-1.25-.3a4.21,4.21,0,0,0-1.34-.07,12,12,0,0,0-4.28,1.23A24.66,24.66,0,0,0,69.43,55a32,32,0,0,0-3.7,3.28Q64,60.09,62.67,61.76a5.67,5.67,0,0,0-1,1.71A3.94,3.94,0,0,0,61.44,65a1.9,1.9,0,0,0,1.07,1.59,4,4,0,0,0,2.31.41c.52,0,1.1-.1,1.76-.18l2-.25,2-.26c.65-.08,1.22-.15,1.72-.19a11.54,11.54,0,0,1,3.48.2,9.14,9.14,0,0,1,3,1.23,7.5,7.5,0,0,1,2.25,2.27,7.1,7.1,0,0,1,1,3.27A8.31,8.31,0,0,1,82,75.5,14,14,0,0,1,81.23,78a23.46,23.46,0,0,1-1.18,2.49c-.45.83-.94,1.64-1.45,2.44A31.45,31.45,0,0,1,75.45,87a25.42,25.42,0,0,1-3.81,3.47A21,21,0,0,1,67.25,93a16.19,16.19,0,0,1-4.89,1.22,13.26,13.26,0,0,1-2.27,0,15.52,15.52,0,0,1-2.33-.39,11.62,11.62,0,0,1-2.21-.8,9,9,0,0,1-1.87-1.19,6.2,6.2,0,0,1-1.34-1.56,4.4,4.4,0,0,1-.62-1.93,3.08,3.08,0,0,1,.07-1A.74.74,0,0,1,52.54,86.77Z"/><path class="cls-8" d="M92.4,81a25,25,0,0,1,.11-5.09c.21-1.78.45-3.48.72-5.11a7.47,7.47,0,0,1-1.55-.1,6.13,6.13,0,0,1-1.47-.43,3.27,3.27,0,0,1-1.11-.76,1.82,1.82,0,0,1-.51-1.13,2.94,2.94,0,0,1,.06-.67,3.63,3.63,0,0,1,.26-.83,2.11,2.11,0,0,1,.51-.71,1.21,1.21,0,0,1,.75-.34L94,65.45a.75.75,0,0,0,.71-.54,6.23,6.23,0,0,0,.24-1q.23-1.71.45-3c.15-.83.28-1.54.38-2.13s.19-1.05.24-1.41a3.6,3.6,0,0,0,.06-.87q0-.37-.09-.72c0-.23-.08-.54-.11-1l0-.29a5.59,5.59,0,0,1,0-.61,6.48,6.48,0,0,1,.18-1.09,2.81,2.81,0,0,1,.55-1.09,1.74,1.74,0,0,1,1.31-.61,2.6,2.6,0,0,1,1.36.2,2.76,2.76,0,0,1,1,.76,3.67,3.67,0,0,1,.62,1.14,5.5,5.5,0,0,1,.29,1.31,5.61,5.61,0,0,1,0,1.31l-1.4,8.27c1-.26,1.93-.5,2.73-.73l2.38-.67c.87-.25,1.62-.48,2.25-.7l1.63-.53,1.15-.36a3.7,3.7,0,0,1,.78-.17,6,6,0,0,1,.95,0,3.12,3.12,0,0,1,.86.17,1.47,1.47,0,0,1,.63.44,1.35,1.35,0,0,1,.31.82,2.68,2.68,0,0,1-.17,1.25,3.05,3.05,0,0,1-.63,1,3.41,3.41,0,0,1-.92.72,5.23,5.23,0,0,1-1.07.46l-1.17.37-1.59.51-1.8.6c-.62.21-1.22.41-1.8.62l-2.22.78c-.61.21-1.14.37-1.57.48l-1.07.27c-.28.06-.5.1-.68.12-.27,1.13-.49,2.23-.67,3.32s-.31,2.09-.41,3-.17,1.76-.19,2.49a15.27,15.27,0,0,0,0,1.7,7.51,7.51,0,0,0,.28,1.47,3.18,3.18,0,0,0,.6,1.19,2.46,2.46,0,0,0,1,.74,3.23,3.23,0,0,0,1.51.17,6,6,0,0,0,2.93-1.1,14.14,14.14,0,0,0,2.63-2.37,26.32,26.32,0,0,0,2.3-3c.71-1.09,1.36-2.12,2-3.11a1.05,1.05,0,0,1,.85-.59,1.64,1.64,0,0,1,.43,0,1.34,1.34,0,0,1,.49.16,1.24,1.24,0,0,1,.42.34.93.93,0,0,1,.21.53,2,2,0,0,1,0,.35,16.07,16.07,0,0,1-1.12,3.72c-.54,1.26-1.09,2.53-1.66,3.8a5.75,5.75,0,0,1-.8,1.32A13.32,13.32,0,0,1,108.36,85c-.41.41-.84.81-1.3,1.19s-.87.72-1.27,1a7.33,7.33,0,0,1-2.32,1.16,12.7,12.7,0,0,1-2.49.48,7.78,7.78,0,0,1-3.39-.39A7,7,0,0,1,95,86.86a8.23,8.23,0,0,1-1.76-2.6A10.94,10.94,0,0,1,92.4,81Z"/><path class="cls-8" d="M134.21,85.1a12.56,12.56,0,0,1,0-2,17.24,17.24,0,0,0,0-2.92c-.59.52-1.25,1.13-2,1.83s-1.46,1.38-2.24,2a17.83,17.83,0,0,1-2.34,1.67,5.26,5.26,0,0,1-2.25.79,4.83,4.83,0,0,1-1.66-.11,4.28,4.28,0,0,1-1.39-.58,8.6,8.6,0,0,1-2.43-2.23,5.7,5.7,0,0,1-.92-2.77,9.64,9.64,0,0,1,0-1.52c0-.52.12-1.13.23-1.82a25.47,25.47,0,0,1,3-8.78,26.07,26.07,0,0,1,6.05-7.21,8.35,8.35,0,0,1,2.94-1.64,15.17,15.17,0,0,1,3-.56,13.78,13.78,0,0,1,1.49,0l1.51,0c.43-.14.79-.24,1.06-.3a7.71,7.71,0,0,1,.88-.14,3.93,3.93,0,0,1,1.46.11,2.31,2.31,0,0,1,1.56,1.39,3.37,3.37,0,0,1,.25,1,4.37,4.37,0,0,1-.1,1.45c-.12.47-.23.94-.34,1.41l-2.49,15.56v2.3a10.2,10.2,0,0,1-.18,2c0,.18-.09.4-.16.67a2.4,2.4,0,0,1-.35.79,2.54,2.54,0,0,1-.67.68,2.14,2.14,0,0,1-1.1.36,6.94,6.94,0,0,1-1.44,0,2.13,2.13,0,0,1-.85-.26.94.94,0,0,1-.42-.49A2.27,2.27,0,0,1,134.21,85.1Zm-10.35-7.88a10.68,10.68,0,0,0-.15,2.69,4.11,4.11,0,0,0,.36,1.38,1,1,0,0,0,1.06.53,4.91,4.91,0,0,0,2.22-.73,11,11,0,0,0,1.87-1.46c.77-.74,1.54-1.57,2.33-2.49a33.66,33.66,0,0,0,2.19-2.85,25.36,25.36,0,0,0,1.78-3,12.14,12.14,0,0,0,1-3,16.64,16.64,0,0,0,.22-2,14.36,14.36,0,0,0,0-2,1.92,1.92,0,0,0-.24-.72.67.67,0,0,0-.7-.3,8,8,0,0,0-2.8.8,13.09,13.09,0,0,0-2.62,1.71,16.15,16.15,0,0,0-2.34,2.4,21.42,21.42,0,0,0-2,2.88,20.45,20.45,0,0,0-1.43,3.09A17.23,17.23,0,0,0,123.86,77.22Z"/><path class="cls-8" d="M149.28,82c.13-1.37.29-2.88.48-4.52s.38-3.32.58-5,.39-3.35.58-5,.34-3.12.46-4.47a3.66,3.66,0,0,1-.08-.5c0-.14,0-.3,0-.47a13.64,13.64,0,0,1,0-1.81,11.93,11.93,0,0,1,.17-1.67,3.59,3.59,0,0,1,.58-1.55,1.75,1.75,0,0,1,1.22-.5,2.37,2.37,0,0,1,1.38.22,2.41,2.41,0,0,1,.87.81,3.71,3.71,0,0,1,.48,1.22,13.3,13.3,0,0,1,.22,1.45c0,.27,0,.57.05.9s0,.59,0,.78c.49-.6,1-1.23,1.57-1.87a15.63,15.63,0,0,1,1.8-1.75A11.13,11.13,0,0,1,161.65,57a6.23,6.23,0,0,1,2.35-.67,5.24,5.24,0,0,1,1,0c.32,0,.65.08,1,.14a10.81,10.81,0,0,1,1.23.29,5.44,5.44,0,0,1,1.26.57A6.48,6.48,0,0,1,170.21,59a4.16,4.16,0,0,1,.84,2.15,2.73,2.73,0,0,1-.09,1,3.65,3.65,0,0,1-.39,1,3,3,0,0,1-.65.76,1.63,1.63,0,0,1-.87.35,3.8,3.8,0,0,1-1.22-.14,3.48,3.48,0,0,1-1.23-.55,2.39,2.39,0,0,1-.46-.45c-.16-.2-.32-.4-.46-.6l-.4-.57a1.52,1.52,0,0,0-.28-.33,1.57,1.57,0,0,0-.32,0h-.32a5.64,5.64,0,0,0-2.73,1,13.23,13.23,0,0,0-2.33,2.05,22.11,22.11,0,0,0-1.92,2.5c-.57.87-1.07,1.66-1.49,2.35-.25,1.6-.54,3.3-.85,5.1s-.63,3.69-.92,5.65l.06.72c0,.58.08,1.17.1,1.77a5.13,5.13,0,0,1-.21,1.62,2.64,2.64,0,0,1-.84.82,3.16,3.16,0,0,1-1.35.42,2.14,2.14,0,0,1-1.89-.64,3,3,0,0,1-.77-1.81A3.58,3.58,0,0,1,149.28,82Z"/><path class="cls-8" d="M177.49,73.52a25,25,0,0,1,.11-5.09c.21-1.77.45-3.48.72-5.11a7.43,7.43,0,0,1-1.55-.1,6.46,6.46,0,0,1-1.47-.42,3.58,3.58,0,0,1-1.11-.76,1.84,1.84,0,0,1-.51-1.14,2.94,2.94,0,0,1,.06-.67,3.79,3.79,0,0,1,.26-.83,2.11,2.11,0,0,1,.51-.71,1.18,1.18,0,0,1,.75-.34l3.87-.34a.74.74,0,0,0,.71-.54,6,6,0,0,0,.24-1c.15-1.14.3-2.12.45-3s.28-1.55.38-2.13.19-1.06.24-1.42a3.52,3.52,0,0,0,.06-.86q0-.37-.09-.72c0-.23-.08-.55-.12-.95l0-.29a5.71,5.71,0,0,1,0-.61,6.56,6.56,0,0,1,.18-1.1,2.78,2.78,0,0,1,.54-1.09,1.8,1.8,0,0,1,1.32-.61,2.6,2.6,0,0,1,1.36.2,2.64,2.64,0,0,1,1,.76,3.94,3.94,0,0,1,.63,1.14,5.5,5.5,0,0,1,.29,1.31,5.72,5.72,0,0,1,0,1.32l-1.41,8.27c1-.27,1.94-.51,2.73-.74l2.39-.67q1.31-.37,2.25-.69l1.63-.54,1.15-.36a4.47,4.47,0,0,1,.78-.17,6,6,0,0,1,.95,0,3.12,3.12,0,0,1,.86.17,1.56,1.56,0,0,1,.63.44,1.42,1.42,0,0,1,.31.82,2.68,2.68,0,0,1-.17,1.25,3.21,3.21,0,0,1-.63,1,3.86,3.86,0,0,1-.92.72,6.16,6.16,0,0,1-1.07.46c-.3.08-.7.2-1.18.36l-1.58.52c-.58.18-1.18.38-1.8.59l-1.81.62-2.21.78c-.61.21-1.14.37-1.57.49l-1.07.26a3.77,3.77,0,0,1-.68.12c-.27,1.13-.49,2.24-.67,3.32s-.31,2.09-.42,3-.16,1.76-.19,2.49,0,1.3,0,1.7a7.75,7.75,0,0,0,.28,1.48,3.36,3.36,0,0,0,.59,1.18,2.51,2.51,0,0,0,1,.74,3.17,3.17,0,0,0,1.52.17,5.88,5.88,0,0,0,2.93-1.1,14.43,14.43,0,0,0,2.63-2.36,26,26,0,0,0,2.29-3c.71-1.09,1.37-2.13,2-3.11a1,1,0,0,1,.85-.6,2.09,2.09,0,0,1,.42,0,1.62,1.62,0,0,1,.5.16,1.37,1.37,0,0,1,.42.34,1,1,0,0,1,.21.54,2,2,0,0,1,0,.35A16.57,16.57,0,0,1,197,71.19c-.54,1.26-1.09,2.52-1.66,3.79a6,6,0,0,1-.8,1.33,14.7,14.7,0,0,1-1.13,1.27c-.41.42-.84.81-1.29,1.19s-.88.72-1.28,1A7,7,0,0,1,188.56,81a12.7,12.7,0,0,1-2.49.48,8,8,0,0,1-3.4-.38,7.19,7.19,0,0,1-2.61-1.64,8.3,8.3,0,0,1-1.76-2.59A11,11,0,0,1,177.49,73.52Z"/></svg>