<svg id="Layer_1" data-name="Layer 1" xmlns="http://www.w3.org/2000/svg" xmlns:xlink="http://www.w3.org/1999/xlink" width="1920" height="1080" viewBox="0 0 1920 1080"><defs><style>.cls-1,.cls-10,.cls-11,.cls-12,.cls-13,.cls-14,.cls-15,.cls-17,.cls-18,.cls-6,.cls-7,.cls-8{fill:none;}.cls-2{fill:#fff;}.cls-3{fill:#e40087;}.cls-3,.cls-4{opacity:0.5;}.cls-5{clip-path:url(#clip-path);}.cls-6,.cls-7,.cls-8{stroke:#ffd732;}.cls-10,.cls-11,.cls-12,.cls-13,.cls-14,.cls-15,.cls-17,.cls-18,.cls-6,.cls-7,.cls-8{stroke-linecap:round;stroke-linejoin:round;}.cls-11,.cls-6{stroke-width:10.86px;}.cls-7{stroke-width:33.65px;}.cls-8{stroke-width:79.34px;}.cls-9{fill:#ffd732;}.cls-10,.cls-12,.cls-14,.cls-18{stroke:#00b8f1;}.cls-10{stroke-width:46.62px;}.cls-11,.cls-13,.cls-15,.cls-17{stroke:#fff;}.cls-12,.cls-13{stroke-width:7.74px;}.cls-14,.cls-15{stroke-width:7.16px;}.cls-16{fill:#00b8f1;}.cls-17,.cls-18{stroke-width:5.74px;}</style><clipPath id="clip-path"><rect class="cls-1" x="-1" y="-0.08" width="1922" height="1079.92"/></clipPath></defs><title>Background</title><rect class="cls-2" y="0.13" width="1920" height="1079.88"/><rect class="cls-3" x="0.17" y="0.08" width="1919.83" height="1079.75"/><g class="cls-4"><g class="cls-5"><g id="Layer2"><circle class="cls-6" cx="665.04" cy="-127.55" r="273.45"/><circle class="cls-6" cx="665.04" cy="1239.51" r="273.45"/><circle class="cls-7" cx="289.78" cy="562.97" r="44.13"/><circle class="cls-7" cx="1336.24" cy="49.64" r="44.13"/><circle class="cls-8" cx="476.47" cy="820.06" r="131.03"/><circle class="cls-9" cx="471.15" cy="604.91" r="15.9"/><circle class="cls-9" cx="543.07" cy="45.52" r="6.01"/><circle class="cls-9" cx="571.41" cy="17.19" r="6.01"/><circle class="cls-9" cx="514.73" cy="73.86" r="6.01"/><circle class="cls-9" cx="571.41" cy="73.86" r="6.01"/><circle class="cls-9" cx="599.75" cy="45.52" r="6.01"/><circle class="cls-9" cx="543.07" cy="102.2" r="6.01"/><circle class="cls-9" cx="628.08" cy="17.19" r="6.01"/><circle class="cls-9" cx="599.75" cy="102.2" r="6.01"/><circle class="cls-9" cx="628.08" cy="73.86" r="6.01"/><circle class="cls-9" cx="571.41" cy="130.54" r="6.01"/><circle class="cls-9" cx="656.42" cy="45.52" r="6.01"/><circle class="cls-9" cx="684.76" cy="17.19" r="6.01"/><circle class="cls-9" cx="628.08" cy="130.54" r="6.01"/><circle class="cls-9" cx="656.42" cy="102.2" r="6.01"/><circle class="cls-9" cx="599.75" cy="158.88" r="6.01"/><circle class="cls-9" cx="684.76" cy="73.86" r="6.01"/><circle class="cls-9" cx="713.1" cy="45.52" r="6.01"/><circle class="cls-9" cx="741.44" cy="17.19" r="6.01"/><circle class="cls-9" cx="656.42" cy="158.88" r="6.01"/><circle class="cls-9" cx="684.76" cy="130.54" r="6.01"/><circle class="cls-9" cx="628.08" cy="187.22" r="6.01"/><circle class="cls-9" cx="713.1" cy="102.2" r="6.01"/><circle class="cls-9" cx="741.44" cy="73.86" r="6.01"/><circle class="cls-9" cx="769.78" cy="45.52" r="6.01"/><circle class="cls-9" cx="798.11" cy="17.19" r="6.01"/><circle class="cls-9" cx="684.76" cy="187.22" r="6.01"/><circle class="cls-9" cx="713.1" cy="158.88" r="6.01"/><circle class="cls-9" cx="656.42" cy="215.55" r="6.01"/><circle class="cls-9" cx="741.44" cy="130.54" r="6.01"/><circle class="cls-9" cx="769.78" cy="102.2" r="6.01"/><circle class="cls-9" cx="798.11" cy="73.86" r="6.01"/><circle class="cls-9" cx="826.45" cy="45.52" r="6.01"/><circle class="cls-9" cx="854.79" cy="17.19" r="6.01"/><circle class="cls-9" cx="713.1" cy="215.55" r="6.01"/><circle class="cls-9" cx="741.44" cy="187.22" r="6.01"/><circle class="cls-9" cx="684.76" cy="243.89" r="6.01"/><circle class="cls-9" cx="769.78" cy="158.88" r="6.01"/><circle class="cls-9" cx="798.11" cy="130.54" r="6.01"/><circle class="cls-9" cx="826.45" cy="102.2" r="6.01"/><circle class="cls-9" cx="854.79" cy="73.86" r="6.01"/><circle class="cls-9" cx="883.13" cy="45.52" r="6.01"/><circle class="cls-9" cx="911.47" cy="17.19" r="6.01"/><circle class="cls-9" cx="741.44" cy="243.89" r="6.01"/><circle class="cls-9" cx="769.78" cy="215.55" r="6.01"/><circle class="cls-9" cx="713.1" cy="272.23" r="6.01"/><circle class="cls-9" cx="798.11" cy="187.22" r="6.01"/><circle class="cls-9" cx="826.45" cy="158.88" r="6.01"/><circle class="cls-9" cx="854.79" cy="130.54" r="6.01"/><circle class="cls-9" cx="883.13" cy="102.2" r="6.01"/><circle class="cls-9" cx="911.47" cy="73.86" r="6.01"/><circle class="cls-9" cx="939.81" cy="45.52" r="6.01"/><circle class="cls-9" cx="968.14" cy="17.19" r="6.01"/><circle class="cls-9" cx="769.78" cy="272.23" r="6.01"/><circle class="cls-9" cx="798.11" cy="243.89" r="6.01"/><circle class="cls-9" cx="741.44" cy="300.57" r="6.01"/><circle class="cls-9" cx="826.45" cy="215.55" r="6.01"/><circle class="cls-9" cx="854.79" cy="187.22" r="6.01"/><circle class="cls-9" cx="883.13" cy="158.88" r="6.01"/><circle class="cls-9" cx="911.47" cy="130.54" r="6.01"/><circle class="cls-9" cx="939.81" cy="102.2" r="6.01"/><circle class="cls-9" cx="968.14" cy="73.86" r="6.01"/><circle class="cls-9" cx="996.48" cy="45.52" r="6.01"/><circle class="cls-9" cx="1024.82" cy="17.19" r="6.01"/><circle class="cls-9" cx="798.11" cy="300.57" r="6.01"/><circle class="cls-9" cx="826.45" cy="272.23" r="6.01"/><circle class="cls-9" cx="769.78" cy="328.91" r="6.01"/><circle class="cls-9" cx="854.79" cy="243.89" r="6.01"/><circle class="cls-9" cx="883.13" cy="215.55" r="6.01"/><circle class="cls-9" cx="911.47" cy="187.22" r="6.01"/><circle class="cls-9" cx="939.81" cy="158.88" r="6.01"/><circle class="cls-9" cx="968.14" cy="130.54" r="6.01"/><circle class="cls-9" cx="996.48" cy="102.2" r="6.01"/><circle class="cls-9" cx="1024.82" cy="73.86" r="6.01"/><circle class="cls-9" cx="1053.16" cy="45.52" r="6.01"/><circle class="cls-9" cx="1081.5" cy="17.19" r="6.01"/><circle class="cls-9" cx="826.45" cy="328.91" r="6.01"/><circle class="cls-9" cx="854.79" cy="300.57" r="6.01"/><circle class="cls-9" cx="798.11" cy="357.25" r="6.01"/><circle class="cls-9" cx="883.13" cy="272.23" r="6.01"/><circle class="cls-9" cx="911.47" cy="243.89" r="6.01"/><circle class="cls-9" cx="939.81" cy="215.55" r="6.01"/><circle class="cls-9" cx="968.14" cy="187.22" r="6.01"/><circle class="cls-9" cx="996.48" cy="158.88" r="6.01"/><circle class="cls-9" cx="1024.82" cy="130.54" r="6.01"/><circle class="cls-9" cx="1053.16" cy="102.2" r="6.01"/><circle class="cls-9" cx="1081.5" cy="73.86" r="6.01"/><circle class="cls-9" cx="1109.84" cy="45.52" r="6.01"/><circle class="cls-9" cx="854.79" cy="357.25" r="6.01"/><circle class="cls-9" cx="883.13" cy="328.91" r="6.01"/><circle class="cls-9" cx="826.45" cy="385.58" r="6.01"/><circle class="cls-9" cx="911.47" cy="300.57" r="6.01"/><circle class="cls-9" cx="939.81" cy="272.23" r="6.01"/><circle class="cls-9" cx="968.14" cy="243.89" r="6.01"/><circle class="cls-9" cx="996.48" cy="215.55" r="6.01"/><circle class="cls-9" cx="1024.82" cy="187.22" r="6.01"/><circle class="cls-9" cx="1053.16" cy="158.88" r="6.01"/><circle class="cls-9" cx="1081.5" cy="130.54" r="6.01"/><circle class="cls-9" cx="1109.84" cy="102.2" r="6.01"/><circle class="cls-9" cx="1138.17" cy="73.86" r="6.01"/><circle class="cls-9" cx="1233.96" cy="1063.45" r="8.06"/><circle class="cls-9" cx="1271.95" cy="1025.47" r="8.06"/><circle class="cls-9" cx="1309.93" cy="987.48" r="8.06"/><circle class="cls-9" cx="1347.92" cy="949.5" r="8.06"/><circle class="cls-9" cx="1385.9" cy="911.51" r="8.06"/><circle class="cls-9" cx="1423.89" cy="873.53" r="8.06"/><circle class="cls-9" cx="1461.87" cy="835.54" r="8.06"/><circle class="cls-9" cx="1499.86" cy="797.56" r="8.06"/><circle class="cls-9" cx="1309.93" cy="1063.45" r="8.06"/><circle class="cls-9" cx="1347.92" cy="1025.47" r="8.06"/><circle class="cls-9" cx="1385.9" cy="987.48" r="8.06"/><circle class="cls-9" cx="1423.89" cy="949.5" r="8.06"/><circle class="cls-9" cx="1461.87" cy="911.51" r="8.06"/><circle class="cls-9" cx="1499.86" cy="873.53" r="8.06"/><circle class="cls-9" cx="1385.9" cy="1063.45" r="8.06"/><circle class="cls-9" cx="1423.89" cy="1025.47" r="8.06"/><circle class="cls-9" cx="1461.87" cy="987.48" r="8.06"/><circle class="cls-9" cx="1499.86" cy="949.5" r="8.06"/><circle class="cls-9" cx="1461.87" cy="1063.45" r="8.06"/><circle class="cls-9" cx="1499.86" cy="1025.47" r="8.06"/><circle class="cls-9" cx="788.41" cy="976.94" r="31.85"/><circle class="cls-9" cx="1425.62" cy="781.71" r="31.85"/><circle class="cls-10" cx="1124.72" cy="1035.26" r="31.85"/><circle class="cls-2" cx="888.18" cy="736.21" r="31.85"/><circle class="cls-2" cx="942.15" cy="999.97" r="9.6"/><circle class="cls-2" cx="1140.46" cy="265.69" r="9.6"/><circle class="cls-11" cx="1682.05" cy="-119.82" r="273.45"/><circle class="cls-11" cx="1682.05" cy="1247.24" r="273.45"/><circle class="cls-2" cx="329.23" cy="146.68" r="33.08"/><path class="cls-12" d="M1039.35,205.15l-71,213-142-142Z"/><path class="cls-13" d="M1027.88,147.81l-71,213-142-142Z"/><path class="cls-14" d="M1050.08,844.44l-46,138-92-92Z"/><path class="cls-15" d="M1042.64,807.26l-46,138.06-92-92Z"/><path class="cls-16" d="M526.94,167.13c-9.1,9.11-15.71,11.73-22.1,14.26s-12.18,4.83-20.66,13.31-10.82,14.39-13.31,20.66-5.15,13-14.25,22.1-15.71,11.73-22.11,14.26-12.18,4.83-20.66,13.31-10.82,14.39-13.3,20.66-5.16,13-14.26,22.09-15.71,11.73-22.1,14.26-12.18,4.83-20.66,13.31S332.7,349.75,330.22,356s-5.15,13-14.26,22.1-15.71,11.73-22.1,14.26-12.18,4.83-20.66,13.31-10.83,14.39-13.31,20.66-5.15,13-14.26,22.1-15.71,11.73-22.1,14.27-12.19,4.82-20.66,13.3l-6.57-6.57c9.1-9.1,15.71-11.72,22.1-14.26s12.19-4.83,20.66-13.3,10.83-14.4,13.31-20.66,5.16-13,14.26-22.11,15.72-11.72,22.11-14.26,12.18-4.83,20.66-13.31,10.82-14.39,13.3-20.66,5.16-13,14.26-22.1,15.72-11.72,22.1-14.26,12.19-4.82,20.66-13.3,10.83-14.4,13.31-20.66,5.16-13,14.25-22.1S423,246.74,429.39,244.2s12.18-4.83,20.66-13.31,10.82-14.39,13.31-20.66,5.15-13,14.25-22.1,15.72-11.72,22.11-14.26,12.18-4.83,20.66-13.3Z"/><path class="cls-2" d="M1492.92,223.33c-9.1,9.1-15.71,11.72-22.1,14.25s-12.18,4.83-20.66,13.31-10.82,14.39-13.31,20.66-5.15,13-14.26,22.1-15.71,11.73-22.1,14.26-12.18,4.83-20.66,13.31-10.82,14.39-13.31,20.66-5.15,13-14.25,22.1-15.71,11.72-22.1,14.26-12.18,4.82-20.66,13.3-10.83,14.4-13.31,20.66-5.15,13-14.26,22.11-15.71,11.72-22.1,14.25-12.18,4.83-20.66,13.31-10.83,14.4-13.31,20.67-5.16,13-14.26,22.1-15.71,11.72-22.11,14.26-12.18,4.83-20.66,13.31l-6.56-6.57c9.1-9.11,15.71-11.72,22.1-14.26s12.19-4.83,20.66-13.31,10.83-14.4,13.31-20.66,5.16-13,14.26-22.11,15.72-11.72,22.1-14.25,12.19-4.83,20.67-13.31,10.82-14.4,13.3-20.66,5.16-13,14.26-22.11,15.71-11.72,22.1-14.25,12.18-4.83,20.66-13.31S1356.53,343,1359,336.75s5.15-13,14.25-22.1,15.72-11.72,22.11-14.26,12.18-4.83,20.66-13.3,10.82-14.4,13.3-20.66,5.16-13,14.26-22.11,15.72-11.72,22.1-14.25,12.19-4.83,20.66-13.31Z"/><path class="cls-2" d="M291.8,1057.32c-9.11,9.11-15.71,11.73-22.11,14.26s-12.18,4.83-20.66,13.31-10.82,14.39-13.31,20.66-5.15,13-14.25,22.1-15.71,11.73-22.1,14.26-12.19,4.83-20.67,13.31-10.82,14.39-13.3,20.66-5.16,13-14.26,22.1-15.71,11.72-22.1,14.25-12.18,4.83-20.66,13.31-10.83,14.4-13.31,20.66-5.15,13-14.25,22.1S65.11,1280,58.71,1282.56s-12.18,4.83-20.66,13.31-10.82,14.4-13.31,20.66-5.15,13-14.26,22.1-15.71,11.73-22.1,14.27-12.18,4.82-20.66,13.3l-6.57-6.56c9.1-9.11,15.71-11.73,22.11-14.27s12.18-4.82,20.66-13.3,10.82-14.4,13.3-20.66,5.16-13,14.26-22.11S47.2,1277.58,53.59,1275s12.18-4.83,20.66-13.3,10.82-14.4,13.31-20.67,5.15-13,14.25-22.1,15.72-11.72,22.11-14.26,12.18-4.82,20.66-13.3,10.82-14.4,13.3-20.66,5.16-13,14.26-22.1,15.71-11.72,22.1-14.26,12.18-4.83,20.66-13.31,10.83-14.39,13.31-20.66,5.15-13,14.25-22.1,15.72-11.72,22.11-14.26,12.18-4.83,20.66-13.3Z"/><path class="cls-17" d="M326.33,676.09,155,847.44"/><path class="cls-17" d="M222,711.59,50.69,882.94"/><path class="cls-18" d="M1502.07,403.12,1330.72,574.47"/><path class="cls-18" d="M1381.43,493.36,1210.08,664.71"/><path class="cls-18" d="M1287.4,262.58,1116.05,433.93"/><path class="cls-16" d="M1150,836.28h43.81V792.47h31v43.81h43.81v31h-43.81v43.81h-31V867.25H1150Z"/><path class="cls-2" d="M1105.93-50.67h37.16V-87.82h26.27v37.15h37.15V-24.4h-37.15V12.76h-26.27V-24.4h-37.16Z"/><path class="cls-18" d="M1349.56,145.49,1178.21,316.84"/></g></g></g></svg>