<svg id="Layer_1" data-name="Layer 1" xmlns="http://www.w3.org/2000/svg" width="756" height="214" viewBox="0 0 756 214"><defs><style>.cls-1{fill:#ffd732;}.cls-2{fill:#6ae582;}.cls-3{fill:#1a1a1a;}.cls-4{fill:#2e3192;}.cls-5{fill:#e40087;}</style></defs><title>PoseOverlay</title><ellipse class="cls-1" cx="336.05" cy="206.84" rx="5.53" ry="5.17"/><ellipse class="cls-1" cx="362.14" cy="182.48" rx="5.53" ry="5.17"/><ellipse class="cls-1" cx="388.23" cy="158.12" rx="5.53" ry="5.17"/><ellipse class="cls-1" cx="414.32" cy="133.75" rx="5.53" ry="5.17"/><ellipse class="cls-1" cx="440.4" cy="109.39" rx="5.53" ry="5.17"/><ellipse class="cls-1" cx="466.49" cy="85.02" rx="5.53" ry="5.17"/><ellipse class="cls-1" cx="492.58" cy="60.66" rx="5.53" ry="5.17"/><ellipse class="cls-1" cx="518.67" cy="36.3" rx="5.53" ry="5.17"/><ellipse class="cls-1" cx="388.23" cy="206.84" rx="5.53" ry="5.17"/><ellipse class="cls-1" cx="414.32" cy="182.48" rx="5.53" ry="5.17"/><ellipse class="cls-1" cx="440.4" cy="158.12" rx="5.53" ry="5.17"/><ellipse class="cls-1" cx="466.49" cy="133.75" rx="5.53" ry="5.17"/><ellipse class="cls-1" cx="492.58" cy="109.39" rx="5.53" ry="5.17"/><ellipse class="cls-1" cx="518.67" cy="85.02" rx="5.53" ry="5.17"/><ellipse class="cls-1" cx="440.4" cy="206.84" rx="5.53" ry="5.17"/><ellipse class="cls-1" cx="466.49" cy="182.48" rx="5.53" ry="5.17"/><ellipse class="cls-1" cx="492.58" cy="158.12" rx="5.53" ry="5.17"/><ellipse class="cls-1" cx="518.67" cy="133.75" rx="5.53" ry="5.17"/><ellipse class="cls-1" cx="492.58" cy="206.84" rx="5.53" ry="5.17"/><ellipse class="cls-1" cx="518.67" cy="182.48" rx="5.53" ry="5.17"/><path class="cls-2" d="M426.3,151.4a83.24,83.24,0,0,1-28.42,62.72H287.82A83.28,83.28,0,0,1,260.06,162q-.36-2.94-.52-5.94c-.09-1.54-.13-3.08-.13-4.64a83.06,83.06,0,0,1,9.84-39.34q1.72-3.24,3.73-6.28a83.77,83.77,0,0,1,32.27-28.89,7.36,7.36,0,0,1,.7-.33q2.52-1.26,5.11-2.33c.26-.11.52-.22.77-.31a83.52,83.52,0,0,1,92.62,21.2c1.64,1.79,3.21,3.66,4.69,5.6a83,83,0,0,1,16.7,41.85q.32,2.93.4,5.94C426.28,149.47,426.3,150.43,426.3,151.4Z"/><polygon class="cls-3" points="707.75 125.69 40.4 179.79 50.3 129.82 717.65 75.72 707.75 125.69"/><polygon class="cls-4" points="698.68 120.44 31.34 174.54 41.24 124.57 708.59 70.47 698.68 120.44"/><polygon class="cls-3" points="-0.06 152.35 32.5 122.37 32.96 121.95 41.2 124.78 54.73 129.45 73.49 135.92 80.2 138.24 93.11 126.34 100.24 119.79 116.49 104.82 116.95 104.4 149.86 115.76 149.87 115.76 157.48 118.38 163.91 120.61 164.17 120.69 164.31 120.57 171.43 114.02 171.44 114.02 171.45 114.01 200.47 87.28 200.93 86.85 241.45 100.83 248.16 103.14 284.46 69.73 284.92 69.3 305.95 76.56 323.93 82.75 330.91 85.16 332.34 80.98 311.83 73.92 283.87 64.27 283.41 64.7 279.72 68.09 247.1 98.11 245.14 97.44 240.41 95.8 199.88 81.81 199.42 82.24 195.72 85.64 164.28 114.6 163.13 115.65 161.17 114.98 160.86 114.87 156.42 113.34 115.89 99.37 115.43 99.79 111.75 103.19 93.09 120.37 85.97 126.92 79.14 133.21 77.17 132.53 72.44 130.89 65.7 128.57 65.68 128.57 65.67 128.57 51.66 123.73 51.64 123.73 51.63 123.73 31.91 116.91 31.45 117.33 27.76 120.74 -0.06 146.35 -0.06 152.35"/><polygon class="cls-5" points="325.18 79.1 323.93 82.75 323.74 83.28 305.25 76.89 284.46 69.73 279.72 68.09 277.76 67.41 245.14 97.44 241.45 100.83 241 101.25 200.47 87.28 195.72 85.64 193.77 84.97 161.35 114.84 161.34 114.84 161.17 114.98 157.48 118.38 157.02 118.81 148.51 115.87 116.49 104.82 111.75 103.19 109.78 102.51 90.13 120.61 83 127.16 77.17 132.53 73.49 135.92 73.03 136.35 53.37 129.56 53.36 129.56 41.09 125.33 32.5 122.37 27.76 120.74 25.8 120.06 -0.06 143.88 -0.06 137.87 24.75 115.02 31.45 117.33 50.28 123.84 64.32 128.68 71.98 131.32 72.44 130.89 75.86 127.74 82.99 121.19 108.73 97.48 115.43 99.79 155.96 113.77 156.42 113.34 192.72 79.93 199.42 82.24 239.95 96.22 240.41 95.8 276.7 62.38 283.41 64.7 311.06 74.23 325.18 79.1"/></svg>