<svg id="Layer_1" data-name="Layer 1" xmlns="http://www.w3.org/2000/svg" width="314" height="248" viewBox="0 0 314 248"><defs><style>.cls-1{fill:#333;}.cls-2{fill:#e40087;}</style></defs><title>ScoreOverlay</title><path class="cls-1" d="M141,22.64c6.89,37-37.89,53.71-71.54,26.74,33.65,27,2.07,54-50.44,43.16,52.51,10.83,41.39,41.93-17.77,49.69,59.16-7.76,71,20.31,19,44.83,52.07-24.52,84.22-5.92,51.36,29.71,32.86-35.63,77.92-30.76,72,7.78,5.94-38.54,53.59-48.52,76.12-15.94-22.53-32.58,16.79-55.12,62.81-36-46-19.12-24-49.05,35.13-47.81C258.42,123.56,258,93.09,317,76.12c-58.92,17-81.59-7.06-36.21-38.38C235.37,69.06,195.61,57,217.24,18.44,195.61,57,147.86,59.61,141,22.64Z"/><path class="cls-2" d="M131.72,20.21c6.89,37-37.9,53.71-71.55,26.75,33.65,27,2.08,54-50.43,43.16C62.25,100.94,51.12,132.05-8,139.8c59.15-7.75,71,20.31,19,44.84,52.07-24.53,84.21-5.93,51.36,29.7,32.85-35.63,77.92-30.76,72,7.78,5.94-38.54,53.59-48.52,76.11-15.94-22.52-32.58,16.8-55.11,62.82-36-46-19.11-24-49.05,35.12-47.81-59.15-1.24-59.54-31.71-.61-48.67-58.93,17-81.59-7.07-36.21-38.39C226.12,66.63,186.35,54.55,208,16,186.35,54.55,138.61,57.18,131.72,20.21Z"/></svg>